STARTFONT 2.1
COMMENT
COMMENT Converted from TrueType font "arialbd.ttf" by "ttf2bdf 2.6".
COMMENT
FONT -FreeType-Arial-Bold-R-Normal--33-240-100-100-P-166-ISO10646-1
SIZE 24 100 100
FONTBOUNDINGBOX 58 47 -21 -13
STARTPROPERTIES 22
FOUNDRY "FreeType"
FAMILY_NAME "Arial"
WEIGHT_NAME "Bold"
SLANT "R"
SETWIDTH_NAME "Normal"
ADD_STYLE_NAME ""
PIXEL_SIZE 33
POINT_SIZE 240
RESOLUTION_X 100
RESOLUTION_Y 100
SPACING "P"
AVERAGE_WIDTH 166
CHARSET_REGISTRY "ISO10646"
CHARSET_ENCODING "1"
FONT_ASCENT 29
FONT_DESCENT 6
COPYRIGHT "Typeface © The Monotype Corporation plc. Data © The Monotype Corporation plc/Type Solutions Inc. 1990-1992. All Rights Reserved"
_TTF_FONTFILE "arialbd.ttf"
_TTF_PSNAME "Arial-BoldMT"
_XFREE86_GLYPH_RANGES "32_126 160_383 399 402 416_417 431_432 461_476 506_511 601 710_711 713 728_733 768_769 771 777 803 894 900_906 908 910_929 931_974 1025_1036 1038_1103 1105_1116 1118_1119 1168_1171 1174_1175 1178_1181 1186_1187 1198_1203 1208_1211 1240_1241 1256_1257 1456_1475 1488_1514 1520_1524 1548 1563 1567 1569_1594 1600_1621 1632_1773 1776_1790 7808_7813 7840_7929 8204_8207 8211_8213 8215_8222 8224_8226 8230 8234_8238 8240 8242_8243 8249_8250 8252 8254 8260 8298_8303 8319 8355_8356 8359"
_XFREE86_GLYPH_RANGES "8362_8364 8453 8467 8470 8482 8486 8494 8531_8532 8539_8542 8592_8597 8616 8706 8710 8719 8721_8722 8725 8729_8730 8734_8735 8745 8747 8776 8800_8801 8804_8805 8962 8976 8992_8993 9472 9474 9484 9488 9492 9496 9500 9508 9516 9524 9532 9552_9580 9600 9604 9608 9612 9616_9619 9632_9633 9642_9644 9650 9658 9660 9668 9674_9675 9679 9688_9689 9702 9786_9788 9792 9794 9824 9827 9829_9830 9834_9835 59393_59397 59416 59450 61441_61442 61444_61489 64257_64258 64285_64288 64298_64310"
_XFREE86_GLYPH_RANGES "64312_64316 64318 64320_64321 64323_64324 64326_64433 64467_64487 64508_64511 64606_64610 64830_64831 65010 65152_65276 65532"
ENDPROPERTIES
CHARS 1419
STARTCHAR 0020
ENCODING 32
SWIDTH 270 0
DWIDTH 9 0
BBX 1 1 0 0
BITMAP
00
ENDCHAR
STARTCHAR 0021
ENCODING 33
SWIDTH 330 0
DWIDTH 11 0
BBX 5 24 3 0
BITMAP
F8
F8
F8
F8
F8
F8
F8
F8
F8
F8
78
70
70
70
70
70
70
00
00
F8
F8
F8
F8
F8
ENDCHAR
STARTCHAR 0022
ENCODING 34
SWIDTH 480 0
DWIDTH 16 0
BBX 12 8 2 16
BITMAP
F9F0
F9F0
F9F0
F9F0
F9F0
F9F0
70E0
70E0
ENDCHAR
STARTCHAR 0023
ENCODING 35
SWIDTH 540 0
DWIDTH 18 0
BBX 18 24 0 0
BITMAP
038380
038380
078780
070700
070700
070700
FFFFC0
FFFFC0
FFFFC0
0E0E00
0E0E00
0E0E00
1E1E00
1C1C00
FFFFC0
FFFFC0
FFFFC0
383800
383800
383800
383800
383800
707000
707000
ENDCHAR
STARTCHAR 0024
ENCODING 36
SWIDTH 540 0
DWIDTH 18 0
BBX 15 29 1 -3
BITMAP
0180
0180
07E0
1FF0
3FF8
3FFC
7DBC
79BE
799E
7980
7D80
3F80
3FE0
1FF8
0FFC
01FC
01BE
019E
F19E
F99E
799E
7DBE
3FFC
3FFC
1FF8
07E0
0180
0180
0180
ENDCHAR
STARTCHAR 0025
ENCODING 37
SWIDTH 780 0
DWIDTH 26 0
BBX 23 25 1 -1
BITMAP
3E01E0
7F01C0
7F01C0
F78380
E38380
E38700
E38700
E38F00
E38E00
F79E00
7F1C00
7F1C00
3E38F8
0039FC
0071FC
0073DE
00F38E
00E38E
01E38E
01C38E
01C38E
0383DE
0381FC
0701FC
0700F8
ENDCHAR
STARTCHAR 0026
ENCODING 38
SWIDTH 720 0
DWIDTH 24 0
BBX 22 24 1 0
BITMAP
03F000
07FC00
0FFE00
1F3F00
1F1F00
1F1F00
1F1F00
0FBE00
0FFE00
07F800
07F000
0FF000
3FF800
7FF8E0
7CFDF0
FC7FF0
F83FE0
F83FE0
F81FC0
F81FE0
7C3FF8
3FFFFC
1FFCF8
07F030
ENDCHAR
STARTCHAR 0027
ENCODING 39
SWIDTH 240 0
DWIDTH 8 0
BBX 5 8 2 16
BITMAP
F8
F8
F8
F8
F8
F8
70
70
ENDCHAR
STARTCHAR 0028
ENCODING 40
SWIDTH 330 0
DWIDTH 11 0
BBX 8 31 2 -7
BITMAP
07
0E
1E
1E
3E
3C
3C
7C
7C
78
F8
F8
F8
F8
F8
F8
F8
F8
F8
F8
78
78
7C
7C
3C
3C
3C
1E
1E
0E
07
ENDCHAR
STARTCHAR 0029
ENCODING 41
SWIDTH 330 0
DWIDTH 11 0
BBX 8 31 1 -7
BITMAP
E0
F0
78
78
7C
3C
3C
3E
3E
1E
1E
1F
1F
1F
1F
1F
1F
1F
1F
1F
1E
1E
3E
3E
3C
3C
78
78
70
70
E0
ENDCHAR
STARTCHAR 002A
ENCODING 42
SWIDTH 390 0
DWIDTH 13 0
BBX 11 10 0 14
BITMAP
0E00
0E00
CE60
FFE0
FFE0
1F00
1F00
3B80
71C0
1100
ENDCHAR
STARTCHAR 002B
ENCODING 43
SWIDTH 570 0
DWIDTH 19 0
BBX 16 16 1 3
BITMAP
03C0
03C0
03C0
03C0
03C0
03C0
FFFF
FFFF
FFFF
FFFF
03C0
03C0
03C0
03C0
03C0
03C0
ENDCHAR
STARTCHAR 002C
ENCODING 44
SWIDTH 270 0
DWIDTH 9 0
BBX 5 10 2 -5
BITMAP
F8
F8
F8
F8
F8
18
18
70
E0
40
ENDCHAR
STARTCHAR 002D
ENCODING 45
SWIDTH 330 0
DWIDTH 11 0
BBX 9 4 2 6
BITMAP
FF80
FF80
FF80
FF80
ENDCHAR
STARTCHAR 002E
ENCODING 46
SWIDTH 270 0
DWIDTH 9 0
BBX 5 5 2 0
BITMAP
F8
F8
F8
F8
F8
ENDCHAR
STARTCHAR 002F
ENCODING 47
SWIDTH 270 0
DWIDTH 9 0
BBX 9 24 0 0
BITMAP
0380
0380
0700
0700
0700
0700
0E00
0E00
0E00
0E00
1C00
1C00
1C00
1C00
3800
3800
3800
3800
7000
7000
7000
7000
E000
E000
ENDCHAR
STARTCHAR 0030
ENCODING 48
SWIDTH 540 0
DWIDTH 18 0
BBX 15 24 1 0
BITMAP
07C0
1FF0
3FF8
3FF8
7C7C
7C7C
F83C
F83E
F83E
F83E
F83E
F83E
F83E
F83E
F83E
F83E
F83E
F83C
7C7C
7C7C
7FF8
3FF8
1FF0
07C0
ENDCHAR
STARTCHAR 0031
ENCODING 49
SWIDTH 540 0
DWIDTH 18 0
BBX 11 24 3 0
BITMAP
01E0
03E0
03E0
0FE0
1FE0
7FE0
FFE0
FBE0
E3E0
83E0
03E0
03E0
03E0
03E0
03E0
03E0
03E0
03E0
03E0
03E0
03E0
03E0
03E0
03E0
ENDCHAR
STARTCHAR 0032
ENCODING 50
SWIDTH 540 0
DWIDTH 18 0
BBX 15 24 1 0
BITMAP
07E0
1FF8
3FFC
7FFC
7C7E
F83E
F83E
F83E
003E
007C
007C
00F8
01F8
03F0
07E0
0FC0
1F80
1E00
3E00
7FFE
7FFE
FFFE
FFFE
FFFE
ENDCHAR
STARTCHAR 0033
ENCODING 51
SWIDTH 540 0
DWIDTH 18 0
BBX 15 24 1 0
BITMAP
0FC0
3FF0
7FF8
7FF8
FCFC
F87C
787C
007C
00F8
03F0
03C0
03F8
007C
003C
003E
003E
783E
F83E
FC7E
7C7C
7FFC
3FF8
1FF0
07C0
ENDCHAR
STARTCHAR 0034
ENCODING 52
SWIDTH 540 0
DWIDTH 18 0
BBX 17 24 0 0
BITMAP
007C00
007C00
00FC00
01FC00
01FC00
03FC00
07FC00
07FC00
0FFC00
0F7C00
1F7C00
3E7C00
3C7C00
7C7C00
F87C00
FFFF80
FFFF80
FFFF80
FFFF80
007C00
007C00
007C00
007C00
007C00
ENDCHAR
STARTCHAR 0035
ENCODING 53
SWIDTH 540 0
DWIDTH 18 0
BBX 15 24 1 0
BITMAP
1FFC
1FFC
3FFC
3FFC
3FFC
3E00
3C00
7C00
7FE0
7FF0
7FF8
FFFC
FC7C
783E
003E
003E
783E
F83E
FC3E
7C7C
7FFC
3FF8
1FF0
07C0
ENDCHAR
STARTCHAR 0036
ENCODING 54
SWIDTH 540 0
DWIDTH 18 0
BBX 15 24 1 0
BITMAP
03E0
0FF8
1FFC
3FFC
7C7E
7C3E
783E
F800
F800
FBE0
FFF0
FFF8
FFFC
FC7E
F83E
F83E
F83E
783E
783E
7C7C
3FFC
3FF8
1FF0
07E0
ENDCHAR
STARTCHAR 0037
ENCODING 55
SWIDTH 540 0
DWIDTH 18 0
BBX 15 24 1 0
BITMAP
FFFE
FFFE
FFFE
FFFE
FFFC
0078
0070
00F0
01E0
03E0
03C0
07C0
0780
0F80
0F80
0F00
1F00
1F00
1F00
3E00
3E00
3E00
3E00
3E00
ENDCHAR
STARTCHAR 0038
ENCODING 56
SWIDTH 540 0
DWIDTH 18 0
BBX 15 24 1 0
BITMAP
0FE0
3FF8
7FFC
7FFC
FC7E
F83E
F83E
F83E
F83E
7C7C
3FF8
1FF0
1FF0
3FF8
7C7C
F83E
F83E
F83E
F83E
FC7E
7FFC
7FFC
3FF8
0FE0
ENDCHAR
STARTCHAR 0039
ENCODING 57
SWIDTH 540 0
DWIDTH 18 0
BBX 15 24 1 0
BITMAP
0FC0
1FF0
3FF8
7FF8
FC7C
F83C
F83C
F83E
F83E
F83E
FC7E
7FFE
7FFE
3FFE
0FBE
003E
003E
F83C
F87C
FC7C
7FF8
7FF0
3FE0
0F80
ENDCHAR
STARTCHAR 003A
ENCODING 58
SWIDTH 330 0
DWIDTH 11 0
BBX 5 18 3 0
BITMAP
F8
F8
F8
F8
F8
00
00
00
00
00
00
00
00
F8
F8
F8
F8
F8
ENDCHAR
STARTCHAR 003B
ENCODING 59
SWIDTH 330 0
DWIDTH 11 0
BBX 5 23 3 -5
BITMAP
F8
F8
F8
F8
F8
00
00
00
00
00
00
00
00
F8
F8
F8
F8
F8
18
18
70
E0
40
ENDCHAR
STARTCHAR 003C
ENCODING 60
SWIDTH 570 0
DWIDTH 19 0
BBX 16 18 1 3
BITMAP
0001
0007
003F
00FF
03FE
1FF0
7FC0
FE00
F800
F800
FE00
7FC0
0FF0
03FE
00FF
003F
0007
0001
ENDCHAR
STARTCHAR 003D
ENCODING 61
SWIDTH 570 0
DWIDTH 19 0
BBX 16 11 1 7
BITMAP
FFFF
FFFF
FFFF
FFFF
0000
0000
0000
FFFF
FFFF
FFFF
FFFF
ENDCHAR
STARTCHAR 003E
ENCODING 62
SWIDTH 570 0
DWIDTH 19 0
BBX 16 18 1 3
BITMAP
8000
E000
FC00
FF00
7FC0
0FF0
03FE
007F
001F
001F
007F
03FE
0FF0
7FC0
FF00
FC00
E000
8000
ENDCHAR
STARTCHAR 003F
ENCODING 63
SWIDTH 600 0
DWIDTH 20 0
BBX 17 24 2 0
BITMAP
07F000
1FFC00
3FFE00
7E3F00
FC1F80
F80F80
000F80
000F80
001F80
003F00
00FE00
01FC00
03F800
07E000
07C000
07C000
07C000
000000
000000
07C000
07C000
07C000
07C000
07C000
ENDCHAR
STARTCHAR 0040
ENCODING 64
SWIDTH 960 0
DWIDTH 32 0
BBX 31 31 1 -7
BITMAP
000FF800
007FFE00
01FFFF80
03F00FC0
07C001E0
0F0000F0
1E0F1E78
3C3FBE38
387FFE38
78FFFE1C
70F8FE1C
71F07E1C
F1E07C1C
E3E07C1C
E3C07C1C
E3C07C3C
E3C0FC38
E3C0F838
E3C1F870
E3E3F8F0
71FFF9E0
71FFFFC0
78FEFF00
387C7C00
3C00001E
1E00003C
0F8000F8
07F007F0
03FFFFE0
00FFFF80
000FFC00
ENDCHAR
STARTCHAR 0041
ENCODING 65
SWIDTH 690 0
DWIDTH 23 0
BBX 23 24 0 0
BITMAP
00FE00
00FE00
01FF00
01FF00
01EF00
03EF80
03EF80
03C780
07C7C0
07C7C0
07C3C0
0F83E0
0F83E0
0F83E0
1F01F0
1FFFF0
1FFFF0
3FFFF8
3FFFF8
3E00F8
7C007C
7C007C
FC007C
F8003E
ENDCHAR
STARTCHAR 0042
ENCODING 66
SWIDTH 690 0
DWIDTH 23 0
BBX 20 24 2 0
BITMAP
FFFE00
FFFF80
FFFFC0
FFFFC0
F807E0
F803E0
F803E0
F803E0
F803E0
F807C0
FFFF80
FFFF00
FFFF80
FFFFE0
F807E0
F801F0
F801F0
F801F0
F801F0
F803F0
FFFFE0
FFFFE0
FFFFC0
FFFF00
ENDCHAR
STARTCHAR 0043
ENCODING 67
SWIDTH 720 0
DWIDTH 24 0
BBX 21 24 1 0
BITMAP
00FE00
07FF80
0FFFC0
1FFFE0
3F87F0
7E01F0
7C01F8
7C00E0
F80000
F80000
F80000
F80000
F80000
F80000
F80000
F800E0
7C00F8
7C01F8
7E03F0
3F07F0
1FFFE0
0FFFC0
07FF80
01FE00
ENDCHAR
STARTCHAR 0044
ENCODING 68
SWIDTH 690 0
DWIDTH 23 0
BBX 20 24 2 0
BITMAP
FFF800
FFFF00
FFFF80
FFFFC0
F80FC0
F807E0
F803E0
F803E0
F801F0
F801F0
F801F0
F801F0
F801F0
F801F0
F801F0
F801F0
F803F0
F803E0
F803E0
F80FC0
FFFFC0
FFFF80
FFFF00
FFF800
ENDCHAR
STARTCHAR 0045
ENCODING 69
SWIDTH 660 0
DWIDTH 22 0
BBX 18 24 2 0
BITMAP
FFFFC0
FFFFC0
FFFFC0
FFFFC0
F80000
F80000
F80000
F80000
F80000
FFFF80
FFFF80
FFFF80
FFFF80
F80000
F80000
F80000
F80000
F80000
F80000
F80000
FFFFC0
FFFFC0
FFFFC0
FFFFC0
ENDCHAR
STARTCHAR 0046
ENCODING 70
SWIDTH 600 0
DWIDTH 20 0
BBX 16 24 2 0
BITMAP
FFFF
FFFF
FFFF
FFFF
F800
F800
F800
F800
F800
F800
FFFE
FFFE
FFFE
FFFE
F800
F800
F800
F800
F800
F800
F800
F800
F800
F800
ENDCHAR
STARTCHAR 0047
ENCODING 71
SWIDTH 780 0
DWIDTH 26 0
BBX 23 24 1 0
BITMAP
00FF80
03FFE0
0FFFF0
1FFFF8
3F81FC
3F00FE
7E007E
7C0038
F80000
F80000
F80000
F80FFE
F80FFE
F80FFE
F80FFE
FC003E
7C003E
7E003E
3F007E
3F81FE
1FFFFE
0FFFF8
03FFF0
00FF00
ENDCHAR
STARTCHAR 0048
ENCODING 72
SWIDTH 690 0
DWIDTH 23 0
BBX 19 24 2 0
BITMAP
F803E0
F803E0
F803E0
F803E0
F803E0
F803E0
F803E0
F803E0
F803E0
FFFFE0
FFFFE0
FFFFE0
FFFFE0
F803E0
F803E0
F803E0
F803E0
F803E0
F803E0
F803E0
F803E0
F803E0
F803E0
F803E0
ENDCHAR
STARTCHAR 0049
ENCODING 73
SWIDTH 270 0
DWIDTH 9 0
BBX 5 24 2 0
BITMAP
F8
F8
F8
F8
F8
F8
F8
F8
F8
F8
F8
F8
F8
F8
F8
F8
F8
F8
F8
F8
F8
F8
F8
F8
ENDCHAR
STARTCHAR 004A
ENCODING 74
SWIDTH 540 0
DWIDTH 18 0
BBX 15 24 1 0
BITMAP
003E
003E
003E
003E
003E
003E
003E
003E
003E
003E
003E
003E
003E
003E
003E
003E
F83E
F83E
F83E
FC7C
7FFC
7FF8
3FF0
0FC0
ENDCHAR
STARTCHAR 004B
ENCODING 75
SWIDTH 720 0
DWIDTH 24 0
BBX 21 24 2 0
BITMAP
F803F8
F807F0
F80FE0
F81FC0
F83F80
F87F00
F87E00
F8FC00
F9F800
FBF000
FFF800
FFF800
FFFC00
FF7E00
FE3E00
FC3F00
F81F80
F80F80
F80FC0
F807E0
F803E0
F803F0
F801F8
F801F8
ENDCHAR
STARTCHAR 004C
ENCODING 76
SWIDTH 600 0
DWIDTH 20 0
BBX 17 24 2 0
BITMAP
F80000
F80000
F80000
F80000
F80000
F80000
F80000
F80000
F80000
F80000
F80000
F80000
F80000
F80000
F80000
F80000
F80000
F80000
F80000
F80000
FFFF80
FFFF80
FFFF80
FFFF80
ENDCHAR
STARTCHAR 004D
ENCODING 77
SWIDTH 870 0
DWIDTH 29 0
BBX 23 24 3 0
BITMAP
FE00FE
FE00FE
FE00FE
FF01FE
FF01FE
FF01DE
F701DE
F783DE
F783DE
F3839E
F3839E
F3C79E
F1C71E
F1C71E
F1EF1E
F0EF1E
F0EE1E
F0EE1E
F0FE1E
F07C1E
F07C1E
F07C1E
F0381E
F0381E
ENDCHAR
STARTCHAR 004E
ENCODING 78
SWIDTH 690 0
DWIDTH 23 0
BBX 19 24 2 0
BITMAP
FC01E0
FC01E0
FE01E0
FE01E0
FF01E0
FF01E0
FF81E0
F781E0
F7C1E0
F3C1E0
F3E1E0
F1E1E0
F1F1E0
F0F1E0
F0F9E0
F079E0
F07DE0
F03DE0
F03FE0
F01FE0
F01FE0
F00FE0
F00FE0
F007E0
ENDCHAR
STARTCHAR 004F
ENCODING 79
SWIDTH 750 0
DWIDTH 25 0
BBX 23 24 1 0
BITMAP
00FE00
07FFC0
0FFFE0
1FFFF0
3F83F8
7E00FC
7C007C
7C007C
F8003E
F8003E
F8003E
F8003E
F8003E
F8003E
F8003E
F8003E
7C007C
7C007C
7E00FC
3F83F8
1FFFF0
0FFFE0
07FFC0
00FE00
ENDCHAR
STARTCHAR 0050
ENCODING 80
SWIDTH 630 0
DWIDTH 21 0
BBX 18 24 2 0
BITMAP
FFFC00
FFFE00
FFFF00
FFFF80
F81FC0
F80FC0
F807C0
F807C0
F807C0
F80FC0
F81FC0
FFFF80
FFFF00
FFFE00
FFF800
F80000
F80000
F80000
F80000
F80000
F80000
F80000
F80000
F80000
ENDCHAR
STARTCHAR 0051
ENCODING 81
SWIDTH 750 0
DWIDTH 25 0
BBX 24 26 1 -2
BITMAP
00FE00
07FFC0
0FFFE0
1FFFF0
3F83F8
7E00FC
7C007C
7C007C
F8003E
F8003E
F8003E
F8003E
F8003E
F8003E
F8003E
F8187E
7C1C7C
7C3FFC
7E1FFC
3F87F8
1FFFF0
0FFFF8
07FFFE
00FE7F
00001E
000006
ENDCHAR
STARTCHAR 0052
ENCODING 82
SWIDTH 720 0
DWIDTH 24 0
BBX 22 24 2 0
BITMAP
FFFE00
FFFFC0
FFFFE0
FFFFE0
F803F0
F801F0
F801F0
F801F0
F801F0
F803E0
FFFFE0
FFFFC0
FFFF80
FFFC00
F87E00
F83F00
F81F80
F80FC0
F807C0
F807E0
F803F0
F801F0
F801F8
F800FC
ENDCHAR
STARTCHAR 0053
ENCODING 83
SWIDTH 660 0
DWIDTH 22 0
BBX 19 24 1 0
BITMAP
03F800
0FFE00
3FFF00
3FFF80
7E0F80
7C07C0
7C07C0
7C0000
7E0000
3F8000
3FF800
1FFE00
07FF80
00FFC0
001FC0
0007E0
F803E0
F803E0
7C07E0
7E0FE0
3FFFC0
3FFF80
0FFF00
03FC00
ENDCHAR
STARTCHAR 0054
ENCODING 84
SWIDTH 630 0
DWIDTH 21 0
BBX 19 24 1 0
BITMAP
FFFFE0
FFFFE0
FFFFE0
FFFFE0
01F000
01F000
01F000
01F000
01F000
01F000
01F000
01F000
01F000
01F000
01F000
01F000
01F000
01F000
01F000
01F000
01F000
01F000
01F000
01F000
ENDCHAR
STARTCHAR 0055
ENCODING 85
SWIDTH 690 0
DWIDTH 23 0
BBX 19 24 2 0
BITMAP
F803E0
F803E0
F803E0
F803E0
F803E0
F803E0
F803E0
F803E0
F803E0
F803E0
F803E0
F803E0
F803E0
F803E0
F803E0
F803E0
F803E0
F803E0
FC07E0
7E0FC0
7FFFC0
3FFF80
1FFF00
07FC00
ENDCHAR
STARTCHAR 0056
ENCODING 86
SWIDTH 660 0
DWIDTH 22 0
BBX 21 24 0 0
BITMAP
F800F8
FC01F8
7C01F0
7C01F0
7C01F0
3E03E0
3E03E0
3E03E0
3E03E0
1F07C0
1F07C0
1F07C0
0F8F80
0F8F80
0F8F80
078F00
07DF00
07DF00
07DF00
03DE00
03FE00
03FE00
01FC00
01FC00
ENDCHAR
STARTCHAR 0057
ENCODING 87
SWIDTH 930 0
DWIDTH 31 0
BBX 31 24 0 0
BITMAP
F807C03E
F807C03E
7C0FE07E
7C0FE07C
7C0FE07C
7C0EE07C
7C1EF07C
3C1EF07C
3E1EF0F8
3E1C70F8
3E3C78F8
3E3C78F8
1E3C78F0
1F3839F0
1F7839F0
1F783DF0
1F783DF0
0F701DE0
0FF01DE0
0FF01FE0
0FF01FE0
0FE00FE0
07E00FC0
07E00FC0
ENDCHAR
STARTCHAR 0058
ENCODING 88
SWIDTH 660 0
DWIDTH 22 0
BBX 20 24 1 0
BITMAP
7C03E0
7E07E0
3E07C0
1F0F80
1F9F80
0F9F00
0FFF00
07FE00
03FE00
03FC00
01F800
01F800
03FC00
03FC00
07FE00
07FE00
0F9F00
1F9F80
1F0F80
3F0FC0
3E07C0
7C03E0
FC03F0
F801F0
ENDCHAR
STARTCHAR 0059
ENCODING 89
SWIDTH 690 0
DWIDTH 23 0
BBX 21 24 1 0
BITMAP
F801F8
FC01F8
7E03F0
3E03E0
3F07E0
1F07C0
1F8FC0
0F8F80
07DF00
07FF00
03FE00
01FE00
01FC00
00F800
00F800
00F800
00F800
00F800
00F800
00F800
00F800
00F800
00F800
00F800
ENDCHAR
STARTCHAR 005A
ENCODING 90
SWIDTH 660 0
DWIDTH 22 0
BBX 19 24 1 0
BITMAP
7FFFE0
7FFFE0
7FFFE0
7FFFE0
0007C0
000F80
001F00
003F00
003E00
007C00
00F800
01F800
03F000
03E000
07C000
0FC000
1F8000
1F0000
3E0000
7E0000
FFFFE0
FFFFE0
FFFFE0
FFFFE0
ENDCHAR
STARTCHAR 005B
ENCODING 91
SWIDTH 330 0
DWIDTH 11 0
BBX 8 31 2 -7
BITMAP
FF
FF
FF
FF
F8
F8
F8
F8
F8
F8
F8
F8
F8
F8
F8
F8
F8
F8
F8
F8
F8
F8
F8
F8
F8
F8
F8
FF
FF
FF
FF
ENDCHAR
STARTCHAR 005C
ENCODING 92
SWIDTH 270 0
DWIDTH 9 0
BBX 9 24 0 0
BITMAP
E000
E000
7000
7000
7000
7000
3800
3800
3800
3800
1C00
1C00
1C00
1C00
0E00
0E00
0E00
0E00
0700
0700
0700
0700
0380
0380
ENDCHAR
STARTCHAR 005D
ENCODING 93
SWIDTH 330 0
DWIDTH 11 0
BBX 8 31 1 -7
BITMAP
FF
FF
FF
FF
1F
1F
1F
1F
1F
1F
1F
1F
1F
1F
1F
1F
1F
1F
1F
1F
1F
1F
1F
1F
1F
1F
1F
FF
FF
FF
FF
ENDCHAR
STARTCHAR 005E
ENCODING 94
SWIDTH 570 0
DWIDTH 19 0
BBX 16 13 2 11
BITMAP
03C0
07E0
07E0
07F0
0FF0
0FF0
1E78
1E78
3E7C
3C3C
7C3E
7C3E
F81F
ENDCHAR
STARTCHAR 005F
ENCODING 95
SWIDTH 540 0
DWIDTH 18 0
BBX 19 3 -1 -7
BITMAP
FFFFE0
FFFFE0
FFFFE0
ENDCHAR
STARTCHAR 0060
ENCODING 96
SWIDTH 330 0
DWIDTH 11 0
BBX 7 5 1 19
BITMAP
F8
78
3C
1C
0E
ENDCHAR
STARTCHAR 0061
ENCODING 97
SWIDTH 540 0
DWIDTH 18 0
BBX 16 18 1 0
BITMAP
0FF0
1FF8
3FFC
787E
303E
003E
007E
0FFE
3FFE
7FBE
FC3E
F83E
F83E
F87E
FCFE
7FFE
7FDE
1F1F
ENDCHAR
STARTCHAR 0062
ENCODING 98
SWIDTH 600 0
DWIDTH 20 0
BBX 17 24 2 0
BITMAP
F80000
F80000
F80000
F80000
F80000
F80000
F8F000
FBFC00
FFFE00
FE3F00
FC1F00
F80F80
F80F80
F80F80
F80F80
F80F80
F80F80
F80F80
FC0F80
FC1F00
FE3F00
FFFE00
F7FC00
F1F000
ENDCHAR
STARTCHAR 0063
ENCODING 99
SWIDTH 540 0
DWIDTH 18 0
BBX 15 18 2 0
BITMAP
07E0
1FF8
3FFC
7C7C
7C3E
F838
F800
F800
F800
F800
F800
F800
F838
7C3E
7C7C
3FFC
1FF8
07E0
ENDCHAR
STARTCHAR 0064
ENCODING 100
SWIDTH 600 0
DWIDTH 20 0
BBX 17 24 2 0
BITMAP
000F80
000F80
000F80
000F80
000F80
000F80
078F80
1FEF80
3FFF80
7E3F80
7C1F80
F80F80
F80F80
F80F80
F80F80
F80F80
F80F80
F80F80
F81F80
7C1F80
7E3F80
3FFF80
1FF780
07C780
ENDCHAR
STARTCHAR 0065
ENCODING 101
SWIDTH 540 0
DWIDTH 18 0
BBX 16 18 1 0
BITMAP
07E0
1FF8
3FFC
7E3E
7C3E
F81E
F81F
FFFF
FFFF
FFFF
F800
F800
F800
7C1C
7E3F
3FFE
1FFC
07F0
ENDCHAR
STARTCHAR 0066
ENCODING 102
SWIDTH 330 0
DWIDTH 11 0
BBX 11 24 1 0
BITMAP
0FE0
1FE0
3FE0
3E00
3E00
3E00
FFC0
FFC0
FFC0
3E00
3E00
3E00
3E00
3E00
3E00
3E00
3E00
3E00
3E00
3E00
3E00
3E00
3E00
3E00
ENDCHAR
STARTCHAR 0067
ENCODING 103
SWIDTH 600 0
DWIDTH 20 0
BBX 17 25 2 -7
BITMAP
07C780
1FF780
3FFF80
7E3F80
7C1F80
F81F80
F80F80
F80F80
F80F80
F80F80
F80F80
F80F80
F81F80
7C1F80
7E3F80
3FFF80
1FEF80
07CF80
000F80
000F80
700F80
7C1F00
3FFF00
3FFE00
07F800
ENDCHAR
STARTCHAR 0068
ENCODING 104
SWIDTH 600 0
DWIDTH 20 0
BBX 17 24 2 0
BITMAP
F80000
F80000
F80000
F80000
F80000
F80000
F8F800
FBFE00
FFFF00
FE1F80
FC0F80
F80F80
F80F80
F80F80
F80F80
F80F80
F80F80
F80F80
F80F80
F80F80
F80F80
F80F80
F80F80
F80F80
ENDCHAR
STARTCHAR 0069
ENCODING 105
SWIDTH 270 0
DWIDTH 9 0
BBX 5 24 2 0
BITMAP
F8
F8
F8
00
00
00
F8
F8
F8
F8
F8
F8
F8
F8
F8
F8
F8
F8
F8
F8
F8
F8
F8
F8
ENDCHAR
STARTCHAR 006A
ENCODING 106
SWIDTH 270 0
DWIDTH 9 0
BBX 9 31 -2 -7
BITMAP
0F80
0F80
0F80
0000
0000
0000
0F80
0F80
0F80
0F80
0F80
0F80
0F80
0F80
0F80
0F80
0F80
0F80
0F80
0F80
0F80
0F80
0F80
0F80
0F80
0F80
0F80
1F80
FF00
FF00
FC00
ENDCHAR
STARTCHAR 006B
ENCODING 107
SWIDTH 540 0
DWIDTH 18 0
BBX 15 24 2 0
BITMAP
F800
F800
F800
F800
F800
F800
F83E
F87C
F878
F8F8
F9F0
FBE0
FBC0
FFC0
FFE0
FFE0
FDF0
FCF0
F8F8
F8F8
F87C
F87C
F83E
F83E
ENDCHAR
STARTCHAR 006C
ENCODING 108
SWIDTH 270 0
DWIDTH 9 0
BBX 5 24 2 0
BITMAP
F8
F8
F8
F8
F8
F8
F8
F8
F8
F8
F8
F8
F8
F8
F8
F8
F8
F8
F8
F8
F8
F8
F8
F8
ENDCHAR
STARTCHAR 006D
ENCODING 109
SWIDTH 870 0
DWIDTH 29 0
BBX 27 18 1 0
BITMAP
F1F83F00
F7FEFF80
FFFFFFC0
FE3FC7E0
FC1F83E0
F81F03E0
F81F03E0
F81F03E0
F81F03E0
F81F03E0
F81F03E0
F81F03E0
F81F03E0
F81F03E0
F81F03E0
F81F03E0
F81F03E0
F81F03E0
ENDCHAR
STARTCHAR 006E
ENCODING 110
SWIDTH 600 0
DWIDTH 20 0
BBX 17 18 2 0
BITMAP
F1F800
F7FE00
FFFF00
FE1F80
FC0F80
F80F80
F80F80
F80F80
F80F80
F80F80
F80F80
F80F80
F80F80
F80F80
F80F80
F80F80
F80F80
F80F80
ENDCHAR
STARTCHAR 006F
ENCODING 111
SWIDTH 600 0
DWIDTH 20 0
BBX 17 18 2 0
BITMAP
03E000
1FF800
3FFE00
3E3E00
7C1F00
7C1F00
F80F80
F80F80
F80F80
F80F80
F80F80
F80F80
7C1F80
7C1F00
7E3F00
3FFE00
1FFC00
03F000
ENDCHAR
STARTCHAR 0070
ENCODING 112
SWIDTH 600 0
DWIDTH 20 0
BBX 17 25 2 -7
BITMAP
F1F000
F7FC00
FFFE00
FE3F00
FC1F00
F80F80
F80F80
F80F80
F80F80
F80F80
F80F80
F80F80
FC0F80
FC1F00
FE3F00
FFFE00
FBFC00
F8F000
F80000
F80000
F80000
F80000
F80000
F80000
F80000
ENDCHAR
STARTCHAR 0071
ENCODING 113
SWIDTH 600 0
DWIDTH 20 0
BBX 17 25 2 -7
BITMAP
07E780
1FF780
3FFF80
7E3F80
7C1F80
FC0F80
F80F80
F80F80
F80F80
F80F80
F80F80
F80F80
F81F80
7C1F80
7E3F80
3FFF80
1FEF80
0F8F80
000F80
000F80
000F80
000F80
000F80
000F80
000F80
ENDCHAR
STARTCHAR 0072
ENCODING 114
SWIDTH 390 0
DWIDTH 13 0
BBX 11 18 2 0
BITMAP
F3C0
F7E0
FFC0
FFC0
FC00
FC00
F800
F800
F800
F800
F800
F800
F800
F800
F800
F800
F800
F800
ENDCHAR
STARTCHAR 0073
ENCODING 115
SWIDTH 540 0
DWIDTH 18 0
BBX 16 18 1 0
BITMAP
07F0
1FFC
3FFE
7E3F
7C0C
7C00
7F00
7FE0
3FF8
1FFE
03FE
007F
001F
381F
FC3F
7FFE
3FFC
0FF0
ENDCHAR
STARTCHAR 0074
ENCODING 116
SWIDTH 330 0
DWIDTH 11 0
BBX 10 24 0 0
BITMAP
0200
0E00
1E00
3E00
3E00
3E00
FFC0
FFC0
FFC0
3E00
3E00
3E00
3E00
3E00
3E00
3E00
3E00
3E00
3E00
3E00
3E00
3FC0
1FC0
0FC0
ENDCHAR
STARTCHAR 0075
ENCODING 117
SWIDTH 600 0
DWIDTH 20 0
BBX 17 18 2 0
BITMAP
F80F80
F80F80
F80F80
F80F80
F80F80
F80F80
F80F80
F80F80
F80F80
F80F80
F80F80
F80F80
F80F80
F81F80
FC3F80
7FFF80
3FF780
0FC780
ENDCHAR
STARTCHAR 0076
ENCODING 118
SWIDTH 570 0
DWIDTH 19 0
BBX 17 18 1 0
BITMAP
F80F80
F80F80
F80F80
780F00
7C1F00
3C1E00
3C1E00
3E3E00
1E3C00
1E3C00
0E3C00
0F7800
0F7800
07F000
07F000
07F000
03E000
03E000
ENDCHAR
STARTCHAR 0077
ENCODING 119
SWIDTH 750 0
DWIDTH 25 0
BBX 25 18 0 0
BITMAP
F01C0780
F81C0F80
783E0F00
783E0F00
783E0F00
3C761E00
3C771E00
3C771E00
1C771C00
1EE3BC00
1EE3BC00
0EE3B800
0EE3B800
0FC1F800
07C1F000
07C1F000
0780F000
0380E000
ENDCHAR
STARTCHAR 0078
ENCODING 120
SWIDTH 540 0
DWIDTH 18 0
BBX 16 18 1 0
BITMAP
7C3E
7C3E
3E7C
3E78
1FF8
0FF0
0FF0
07E0
07E0
07E0
0FF0
0FF0
1FF8
3E7C
3E7C
7C3E
FC3F
F81F
ENDCHAR
STARTCHAR 0079
ENCODING 121
SWIDTH 570 0
DWIDTH 19 0
BBX 17 25 1 -7
BITMAP
F80F80
F80F80
780F00
7C1F00
7C1F00
3C1E00
3E3E00
3E3E00
1E3C00
1E3C00
0F7C00
0F7800
0F7800
077800
07F000
07F000
03F000
03E000
03E000
03C000
07C000
0FC000
7F8000
7F0000
7E0000
ENDCHAR
STARTCHAR 007A
ENCODING 122
SWIDTH 510 0
DWIDTH 17 0
BBX 15 18 1 0
BITMAP
7FFC
7FFC
7FFC
007C
00F8
01F0
03E0
03E0
07C0
0F80
1F00
1F00
3E00
7C00
F800
FFFE
FFFE
FFFE
ENDCHAR
STARTCHAR 007B
ENCODING 123
SWIDTH 390 0
DWIDTH 13 0
BBX 11 31 1 -7
BITMAP
03E0
0FE0
0FE0
1FE0
1F00
1E00
1E00
1E00
1E00
1E00
1E00
1E00
3E00
3C00
F800
F000
F800
3C00
3E00
1E00
1E00
1E00
1E00
1E00
1E00
1E00
1F00
1FE0
0FE0
0FE0
03E0
ENDCHAR
STARTCHAR 007C
ENCODING 124
SWIDTH 270 0
DWIDTH 9 0
BBX 3 31 3 -7
BITMAP
E0
E0
E0
E0
E0
E0
E0
E0
E0
E0
E0
E0
E0
E0
E0
E0
E0
E0
E0
E0
E0
E0
E0
E0
E0
E0
E0
E0
E0
E0
E0
ENDCHAR
STARTCHAR 007D
ENCODING 125
SWIDTH 390 0
DWIDTH 13 0
BBX 11 31 1 -7
BITMAP
F800
FE00
FE00
FF00
1F00
0F00
0F00
0F00
0F00
0F00
0F00
0F00
0F80
0780
03E0
01E0
03E0
0780
0F80
0F00
0F00
0F00
0F00
0F00
0F00
0F00
1F00
FF00
FE00
FE00
F800
ENDCHAR
STARTCHAR 007E
ENCODING 126
SWIDTH 570 0
DWIDTH 19 0
BBX 17 6 1 8
BITMAP
3F0080
7FE180
FFFF80
FFFF80
C1FF00
803E00
ENDCHAR
STARTCHAR 00A0
ENCODING 160
SWIDTH 270 0
DWIDTH 9 0
BBX 1 1 0 0
BITMAP
00
ENDCHAR
STARTCHAR 00A1
ENCODING 161
SWIDTH 330 0
DWIDTH 11 0
BBX 5 25 3 -7
BITMAP
F8
F8
F8
F8
F8
00
00
70
70
70
70
70
70
70
F8
F8
F8
F8
F8
F8
F8
F8
F8
F8
F8
ENDCHAR
STARTCHAR 00A2
ENCODING 162
SWIDTH 540 0
DWIDTH 18 0
BBX 15 31 2 -7
BITMAP
0010
0018
0030
0030
0030
0070
07E0
1FF0
3FF8
7CFC
7CFE
F8F8
F8C0
F980
F980
F980
F980
FB00
FB38
7B3E
7F7C
3FFC
1FF8
0FE0
0C00
0C00
0C00
0C00
1800
1800
0800
ENDCHAR
STARTCHAR 00A3
ENCODING 163
SWIDTH 540 0
DWIDTH 18 0
BBX 17 24 0 0
BITMAP
01F800
07FE00
0FFF00
1F1F00
3E0F80
3E0F00
3E0000
3E0000
3E0000
3E0000
3F0000
FFF000
FFF000
FFF000
1F0000
1F0000
1F0000
3E0000
3E0000
7C0000
FFC200
7FFF00
7FFF80
207F00
ENDCHAR
STARTCHAR 00A4
ENCODING 164
SWIDTH 540 0
DWIDTH 18 0
BBX 16 16 1 3
BITMAP
2008
7BDE
FFFF
FFFF
7C3E
381C
700E
700E
700E
700E
381C
7C3E
FFFF
FFFF
7BDE
2008
ENDCHAR
STARTCHAR 00A5
ENCODING 165
SWIDTH 540 0
DWIDTH 18 0
BBX 18 24 0 0
BITMAP
F003C0
780780
780780
3C0F00
3C0F00
1E1E00
1F3E00
0F3C00
07F800
07F800
7FFF80
7FFF80
7FFF80
01E000
01E000
7FFF80
7FFF80
7FFF80
01E000
01E000
01E000
01E000
01E000
01E000
ENDCHAR
STARTCHAR 00A6
ENCODING 166
SWIDTH 270 0
DWIDTH 9 0
BBX 3 31 3 -7
BITMAP
E0
E0
E0
E0
E0
E0
E0
E0
E0
E0
E0
E0
E0
00
00
00
00
00
E0
E0
E0
E0
E0
E0
E0
E0
E0
E0
E0
E0
E0
ENDCHAR
STARTCHAR 00A7
ENCODING 167
SWIDTH 540 0
DWIDTH 18 0
BBX 16 31 1 -7
BITMAP
07E0
1FF8
3FFC
7E7E
7C3E
7C00
7E00
3F00
3F80
3FE0
7FF0
FBFC
F1FE
F07E
F03F
F81F
7E0F
7F0F
3F9F
1FFE
0FFC
03F8
01FC
00FE
003E
7C3E
7C3E
3E7E
3FFC
1FF8
07E0
ENDCHAR
STARTCHAR 00A8
ENCODING 168
SWIDTH 330 0
DWIDTH 11 0
BBX 11 3 0 21
BITMAP
E0E0
E0E0
E0E0
ENDCHAR
STARTCHAR 00A9
ENCODING 169
SWIDTH 720 0
DWIDTH 24 0
BBX 24 24 0 0
BITMAP
007E00
03FFC0
0781E0
1E0070
180018
307C0C
70FF0E
61C706
61C386
C38003
C38003
C38003
C38003
C38003
C38003
61C386
61C706
70FF0E
307C0C
180018
1E0078
0781E0
03FFC0
007E00
ENDCHAR
STARTCHAR 00AA
ENCODING 170
SWIDTH 360 0
DWIDTH 12 0
BBX 10 12 1 12
BITMAP
3F00
7F80
FFC0
E1C0
03C0
3FC0
7DC0
E1C0
E3C0
FFC0
7FC0
3DC0
ENDCHAR
STARTCHAR 00AB
ENCODING 171
SWIDTH 540 0
DWIDTH 18 0
BBX 15 15 2 1
BITMAP
070E
0E1C
1E3C
1E3C
3C78
7CF8
78F0
F9F0
78F0
7CF8
3C78
1E3C
1E3C
0E1C
070E
ENDCHAR
STARTCHAR 00AC
ENCODING 172
SWIDTH 570 0
DWIDTH 19 0
BBX 16 11 1 7
BITMAP
FFFF
FFFF
FFFF
FFFF
000F
000F
000F
000F
000F
000F
000F
ENDCHAR
STARTCHAR 00AD
ENCODING 173
SWIDTH 330 0
DWIDTH 11 0
BBX 9 4 2 6
BITMAP
FF80
FF80
FF80
FF80
ENDCHAR
STARTCHAR 00AE
ENCODING 174
SWIDTH 720 0
DWIDTH 24 0
BBX 24 24 0 0
BITMAP
007E00
03FFC0
0781E0
1E0078
180018
33FE0C
73FF0E
638786
638386
C38383
C38783
C3FF03
C3FE03
C38E03
C38703
638706
638386
73838E
3381CC
180018
1E0078
0781E0
03FFC0
007E00
ENDCHAR
STARTCHAR 00AF
ENCODING 175
SWIDTH 540 0
DWIDTH 18 0
BBX 18 3 0 25
BITMAP
FFFFC0
FFFFC0
FFFFC0
ENDCHAR
STARTCHAR 00B0
ENCODING 176
SWIDTH 390 0
DWIDTH 13 0
BBX 11 11 1 13
BITMAP
1F00
3F80
7FC0
F1E0
E0E0
E0E0
E0E0
F1E0
7FC0
3F80
1F00
ENDCHAR
STARTCHAR 00B1
ENCODING 177
SWIDTH 540 0
DWIDTH 18 0
BBX 16 22 1 0
BITMAP
03C0
03C0
03C0
03C0
03C0
03C0
FFFF
FFFF
FFFF
FFFF
03C0
03C0
03C0
03C0
03C0
03C0
0000
0000
FFFF
FFFF
FFFF
FFFF
ENDCHAR
STARTCHAR 00B2
ENCODING 178
SWIDTH 330 0
DWIDTH 11 0
BBX 10 12 0 12
BITMAP
1F00
7F80
7FC0
F1C0
E1C0
0380
0700
0E00
3C00
7FC0
FFC0
FFC0
ENDCHAR
STARTCHAR 00B3
ENCODING 179
SWIDTH 330 0
DWIDTH 11 0
BBX 9 12 1 12
BITMAP
3E00
7F00
FF80
E380
0380
0F00
0F00
0380
E380
FF80
7F00
3E00
ENDCHAR
STARTCHAR 00B4
ENCODING 180
SWIDTH 330 0
DWIDTH 11 0
BBX 7 5 2 19
BITMAP
3E
3C
78
70
E0
ENDCHAR
STARTCHAR 00B5
ENCODING 181
SWIDTH 570 0
DWIDTH 19 0
BBX 16 25 1 -7
BITMAP
F81F
F81F
F81F
F81F
F81F
F81F
F81F
F81F
F81F
F81F
F81F
F81F
F81F
FC3F
FE7F
FFFF
FFFF
FBDF
F800
F800
F800
F800
F800
F800
F800
ENDCHAR
STARTCHAR 00B6
ENCODING 182
SWIDTH 540 0
DWIDTH 18 0
BBX 18 30 0 -6
BITMAP
0FFFC0
3FFFC0
7FFFC0
7FC700
FFC700
FFC700
FFC700
FFC700
FFC700
7FC700
7FC700
3FC700
0FC700
01C700
01C700
01C700
01C700
01C700
01C700
01C700
01C700
01C700
01C700
01C700
01C700
01C700
01C700
01C700
01C700
01C700
ENDCHAR
STARTCHAR 00B7
ENCODING 183
SWIDTH 270 0
DWIDTH 9 0
BBX 5 5 2 9
BITMAP
F8
F8
F8
F8
F8
ENDCHAR
STARTCHAR 00B8
ENCODING 184
SWIDTH 330 0
DWIDTH 11 0
BBX 9 6 1 -6
BITMAP
3E00
7F80
0380
0380
FF00
FE00
ENDCHAR
STARTCHAR 00B9
ENCODING 185
SWIDTH 330 0
DWIDTH 11 0
BBX 6 12 1 12
BITMAP
1C
1C
7C
FC
FC
9C
1C
1C
1C
1C
1C
1C
ENDCHAR
STARTCHAR 00BA
ENCODING 186
SWIDTH 360 0
DWIDTH 12 0
BBX 10 12 1 12
BITMAP
1E00
7F80
7F80
F3C0
E1C0
E1C0
E1C0
E1C0
F3C0
7F80
7F80
1E00
ENDCHAR
STARTCHAR 00BB
ENCODING 187
SWIDTH 540 0
DWIDTH 18 0
BBX 15 15 2 1
BITMAP
E1C0
70E0
78F0
78F0
3C78
3E7C
1E3C
1F3E
1E3C
3E7C
3C78
78F0
78F0
70E0
E1C0
ENDCHAR
STARTCHAR 00BC
ENCODING 188
SWIDTH 840 0
DWIDTH 28 0
BBX 27 24 1 0
BITMAP
1C003800
1C007000
7C00F000
FC00E000
FC01E000
9C03C000
1C038000
1C078000
1C070000
1C0E0000
1C1E0000
1C1C0000
00380380
00780780
00700F80
00F01F80
01E03B80
01C07380
03C06380
0380FFE0
0700FFE0
0F00FFE0
0E000380
1C000380
ENDCHAR
STARTCHAR 00BD
ENCODING 189
SWIDTH 840 0
DWIDTH 28 0
BBX 26 24 1 0
BITMAP
1C007800
1C007000
7C00F000
FC01E000
FC01C000
9C03C000
1C038000
1C070000
1C0F0000
1C0E0000
1C1E0000
1C3C0000
00381F00
00787F80
00707FC0
00E0F1C0
01E0E1C0
01C00380
03C00700
07800E00
07003800
0F007FC0
0E00FFC0
1C00FFC0
ENDCHAR
STARTCHAR 00BE
ENCODING 190
SWIDTH 840 0
DWIDTH 28 0
BBX 27 24 1 0
BITMAP
3E003C00
7F003800
FF807000
E380F000
0380E000
0F01E000
0F01C000
0383C000
E3838000
FF870000
7F0F0000
3E0E0000
001E0380
001C0780
00380F80
00781F80
00703B80
00F07380
00E06380
01C0FFE0
03C0FFE0
0380FFE0
07800380
07000380
ENDCHAR
STARTCHAR 00BF
ENCODING 191
SWIDTH 600 0
DWIDTH 20 0
BBX 17 25 1 -7
BITMAP
01F000
01F000
01F000
01F000
01F000
000000
000000
01F000
01F000
01F000
03F000
07E000
1FC000
3F8000
7F0000
7E0000
FC0000
F80000
F80000
F80F80
7C1F80
7E3F00
3FFE00
1FFC00
07F000
ENDCHAR
STARTCHAR 00C0
ENCODING 192
SWIDTH 690 0
DWIDTH 23 0
BBX 23 31 0 0
BITMAP
00F800
007800
003C00
001C00
000E00
000000
000000
00FE00
00FE00
01FF00
01FF00
01EF00
03EF80
03EF80
03C780
07C7C0
07C7C0
07C3C0
0F83E0
0F83E0
0F83E0
1F01F0
1FFFF0
1FFFF0
3FFFF8
3FFFF8
3E00F8
7C007C
7C007C
FC007C
F8003E
ENDCHAR
STARTCHAR 00C1
ENCODING 193
SWIDTH 690 0
DWIDTH 23 0
BBX 23 31 0 0
BITMAP
001F00
001E00
003C00
003800
007000
000000
000000
00FE00
00FE00
01FF00
01FF00
01EF00
03EF80
03EF80
03C780
07C7C0
07C7C0
07C3C0
0F83E0
0F83E0
0F83E0
1F01F0
1FFFF0
1FFFF0
3FFFF8
3FFFF8
3E00F8
7C007C
7C007C
FC007C
F8003E
ENDCHAR
STARTCHAR 00C2
ENCODING 194
SWIDTH 690 0
DWIDTH 23 0
BBX 23 30 0 0
BITMAP
003800
007C00
00EE00
01C700
000000
000000
00FE00
00FE00
01FF00
01FF00
01EF00
03EF80
03EF80
03C780
07C7C0
07C7C0
07C3C0
0F83E0
0F83E0
0F83E0
1F01F0
1FFFF0
1FFFF0
3FFFF8
3FFFF8
3E00F8
7C007C
7C007C
FC007C
F8003E
ENDCHAR
STARTCHAR 00C3
ENCODING 195
SWIDTH 690 0
DWIDTH 23 0
BBX 23 30 0 0
BITMAP
01E180
03FF80
03FF80
030F00
000000
000000
00FE00
00FE00
01FF00
01FF00
01EF00
03EF80
03EF80
03C780
07C7C0
07C7C0
07C3C0
0F83E0
0F83E0
0F83E0
1F01F0
1FFFF0
1FFFF0
3FFFF8
3FFFF8
3E00F8
7C007C
7C007C
FC007C
F8003E
ENDCHAR
STARTCHAR 00C4
ENCODING 196
SWIDTH 690 0
DWIDTH 23 0
BBX 23 29 0 0
BITMAP
038380
038380
038380
000000
000000
00FE00
00FE00
01FF00
01FF00
01EF00
03EF80
03EF80
03C780
07C7C0
07C7C0
07C3C0
0F83E0
0F83E0
0F83E0
1F01F0
1FFFF0
1FFFF0
3FFFF8
3FFFF8
3E00F8
7C007C
7C007C
FC007C
F8003E
ENDCHAR
STARTCHAR 00C5
ENCODING 197
SWIDTH 690 0
DWIDTH 23 0
BBX 23 28 0 0
BITMAP
003C00
007E00
006600
006600
00FE00
00FE00
01FF00
01FF00
01EF00
03EF80
03EF80
03C780
07C7C0
07C7C0
07C3C0
0F83E0
0F83E0
0F83E0
1F01F0
1FFFF0
1FFFF0
3FFFF8
3FFFF8
3E00F8
7C007C
7C007C
FC007C
F8003E
ENDCHAR
STARTCHAR 00C6
ENCODING 198
SWIDTH 1050 0
DWIDTH 35 0
BBX 33 24 -1 0
BITMAP
001FFFFF80
003FFFFF80
003FFFFF80
007EFFFF80
007CF80000
00FCF80000
00F8F80000
00F8F80000
01F8F80000
01F0FFFF00
03F0FFFF00
03E0FFFF00
07E0FFFF00
07C0F80000
0FFFF80000
0FFFF80000
1FFFF80000
1FFFF80000
1F00F80000
3E00F80000
3E00FFFF80
7E00FFFF80
7C00FFFF80
FC00FFFF80
ENDCHAR
STARTCHAR 00C7
ENCODING 199
SWIDTH 720 0
DWIDTH 24 0
BBX 21 30 1 -6
BITMAP
00FE00
07FF80
0FFFC0
1FFFE0
3F87F0
7E01F0
7C01F8
7C00E0
F80000
F80000
F80000
F80000
F80000
F80000
F80000
F800E0
7C00F8
7C01F8
7E03F0
3F07F0
1FFFE0
0FFFC0
07FF80
01FE00
01F000
03FC00
001C00
001C00
07F800
07F000
ENDCHAR
STARTCHAR 00C8
ENCODING 200
SWIDTH 660 0
DWIDTH 22 0
BBX 18 31 2 0
BITMAP
07C000
03C000
01E000
00E000
007000
000000
000000
FFFFC0
FFFFC0
FFFFC0
FFFFC0
F80000
F80000
F80000
F80000
F80000
FFFF80
FFFF80
FFFF80
FFFF80
F80000
F80000
F80000
F80000
F80000
F80000
F80000
FFFFC0
FFFFC0
FFFFC0
FFFFC0
ENDCHAR
STARTCHAR 00C9
ENCODING 201
SWIDTH 660 0
DWIDTH 22 0
BBX 18 31 2 0
BITMAP
007C00
007800
00F000
00E000
01C000
000000
000000
FFFFC0
FFFFC0
FFFFC0
FFFFC0
F80000
F80000
F80000
F80000
F80000
FFFF80
FFFF80
FFFF80
FFFF80
F80000
F80000
F80000
F80000
F80000
F80000
F80000
FFFFC0
FFFFC0
FFFFC0
FFFFC0
ENDCHAR
STARTCHAR 00CA
ENCODING 202
SWIDTH 660 0
DWIDTH 22 0
BBX 18 30 2 0
BITMAP
00E000
01F000
03B800
071C00
000000
000000
FFFFC0
FFFFC0
FFFFC0
FFFFC0
F80000
F80000
F80000
F80000
F80000
FFFF80
FFFF80
FFFF80
FFFF80
F80000
F80000
F80000
F80000
F80000
F80000
F80000
FFFFC0
FFFFC0
FFFFC0
FFFFC0
ENDCHAR
STARTCHAR 00CB
ENCODING 203
SWIDTH 660 0
DWIDTH 22 0
BBX 18 29 2 0
BITMAP
0E0E00
0E0E00
0E0E00
000000
000000
FFFFC0
FFFFC0
FFFFC0
FFFFC0
F80000
F80000
F80000
F80000
F80000
FFFF80
FFFF80
FFFF80
FFFF80
F80000
F80000
F80000
F80000
F80000
F80000
F80000
FFFFC0
FFFFC0
FFFFC0
FFFFC0
ENDCHAR
STARTCHAR 00CC
ENCODING 204
SWIDTH 270 0
DWIDTH 9 0
BBX 7 31 1 0
BITMAP
F8
78
3C
1C
0E
00
00
7C
7C
7C
7C
7C
7C
7C
7C
7C
7C
7C
7C
7C
7C
7C
7C
7C
7C
7C
7C
7C
7C
7C
7C
ENDCHAR
STARTCHAR 00CD
ENCODING 205
SWIDTH 270 0
DWIDTH 9 0
BBX 7 31 1 0
BITMAP
3E
3C
78
70
E0
00
00
7C
7C
7C
7C
7C
7C
7C
7C
7C
7C
7C
7C
7C
7C
7C
7C
7C
7C
7C
7C
7C
7C
7C
7C
ENDCHAR
STARTCHAR 00CE
ENCODING 206
SWIDTH 270 0
DWIDTH 9 0
BBX 9 30 0 0
BITMAP
1C00
3E00
7700
E380
0000
0000
3E00
3E00
3E00
3E00
3E00
3E00
3E00
3E00
3E00
3E00
3E00
3E00
3E00
3E00
3E00
3E00
3E00
3E00
3E00
3E00
3E00
3E00
3E00
3E00
ENDCHAR
STARTCHAR 00CF
ENCODING 207
SWIDTH 270 0
DWIDTH 9 0
BBX 11 29 -1 0
BITMAP
E0E0
E0E0
E0E0
0000
0000
1F00
1F00
1F00
1F00
1F00
1F00
1F00
1F00
1F00
1F00
1F00
1F00
1F00
1F00
1F00
1F00
1F00
1F00
1F00
1F00
1F00
1F00
1F00
1F00
ENDCHAR
STARTCHAR 00D0
ENCODING 208
SWIDTH 690 0
DWIDTH 23 0
BBX 22 24 0 0
BITMAP
3FFE00
3FFFC0
3FFFE0
3FFFF0
3E03F0
3E01F8
3E00F8
3E00F8
3E007C
3E007C
3E007C
FFF07C
FFF07C
FFF07C
3E007C
3E007C
3E00FC
3E00F8
3E01F8
3E03F0
3FFFF0
3FFFE0
3FFFC0
3FFE00
ENDCHAR
STARTCHAR 00D1
ENCODING 209
SWIDTH 690 0
DWIDTH 23 0
BBX 19 30 2 0
BITMAP
078600
0FFE00
0FFE00
0C3C00
000000
000000
FC01E0
FC01E0
FE01E0
FE01E0
FF01E0
FF01E0
FF81E0
F781E0
F7C1E0
F3C1E0
F3E1E0
F1E1E0
F1F1E0
F0F1E0
F0F9E0
F079E0
F07DE0
F03DE0
F03FE0
F01FE0
F01FE0
F00FE0
F00FE0
F007E0
ENDCHAR
STARTCHAR 00D2
ENCODING 210
SWIDTH 750 0
DWIDTH 25 0
BBX 23 31 1 0
BITMAP
00F800
007800
003C00
001C00
000E00
000000
000000
00FE00
07FFC0
0FFFE0
1FFFF0
3F83F8
7E00FC
7C007C
7C007C
F8003E
F8003E
F8003E
F8003E
F8003E
F8003E
F8003E
F8003E
7C007C
7C007C
7E00FC
3F83F8
1FFFF0
0FFFE0
07FFC0
00FE00
ENDCHAR
STARTCHAR 00D3
ENCODING 211
SWIDTH 750 0
DWIDTH 25 0
BBX 23 31 1 0
BITMAP
003E00
003C00
007800
007000
00E000
000000
000000
00FE00
07FFC0
0FFFE0
1FFFF0
3F83F8
7E00FC
7C007C
7C007C
F8003E
F8003E
F8003E
F8003E
F8003E
F8003E
F8003E
F8003E
7C007C
7C007C
7E00FC
3F83F8
1FFFF0
0FFFE0
07FFC0
00FE00
ENDCHAR
STARTCHAR 00D4
ENCODING 212
SWIDTH 750 0
DWIDTH 25 0
BBX 23 30 1 0
BITMAP
003800
007C00
00EE00
01C700
000000
000000
00FE00
07FFC0
0FFFE0
1FFFF0
3F83F8
7E00FC
7C007C
7C007C
F8003E
F8003E
F8003E
F8003E
F8003E
F8003E
F8003E
F8003E
7C007C
7C007C
7E00FC
3F83F8
1FFFF0
0FFFE0
07FFC0
00FE00
ENDCHAR
STARTCHAR 00D5
ENCODING 213
SWIDTH 750 0
DWIDTH 25 0
BBX 23 30 1 0
BITMAP
01E180
03FF80
03FF80
030F00
000000
000000
00FE00
07FFC0
0FFFE0
1FFFF0
3F83F8
7E00FC
7C007C
7C007C
F8003E
F8003E
F8003E
F8003E
F8003E
F8003E
F8003E
F8003E
7C007C
7C007C
7E00FC
3F83F8
1FFFF0
0FFFE0
07FFC0
00FE00
ENDCHAR
STARTCHAR 00D6
ENCODING 214
SWIDTH 750 0
DWIDTH 25 0
BBX 23 29 1 0
BITMAP
038380
038380
038380
000000
000000
00FE00
07FFC0
0FFFE0
1FFFF0
3F83F8
7E00FC
7C007C
7C007C
F8003E
F8003E
F8003E
F8003E
F8003E
F8003E
F8003E
F8003E
7C007C
7C007C
7E00FC
3F83F8
1FFFF0
0FFFE0
07FFC0
00FE00
ENDCHAR
STARTCHAR 00D7
ENCODING 215
SWIDTH 570 0
DWIDTH 19 0
BBX 15 15 2 4
BITMAP
2008
701C
F83E
7C7C
3EF8
1FF0
0FE0
07C0
0FE0
1FF0
3EF8
7C7C
F83E
701C
2008
ENDCHAR
STARTCHAR 00D8
ENCODING 216
SWIDTH 780 0
DWIDTH 26 0
BBX 24 26 1 -1
BITMAP
000004
00FF06
03FFCF
07FFFE
0FFFFC
1FC3F8
3F00FC
3E01FC
3E03FC
7C07BE
7C0F3E
7C1E3E
7C1C3E
7C383E
7C783E
7CF03E
7DE03E
7FC07C
3F807C
3F00FC
3FC3F8
3FFFF0
7FFFE0
F7FFC0
60FE00
200000
ENDCHAR
STARTCHAR 00D9
ENCODING 217
SWIDTH 690 0
DWIDTH 23 0
BBX 19 31 2 0
BITMAP
07C000
03C000
01E000
00E000
007000
000000
000000
F803E0
F803E0
F803E0
F803E0
F803E0
F803E0
F803E0
F803E0
F803E0
F803E0
F803E0
F803E0
F803E0
F803E0
F803E0
F803E0
F803E0
F803E0
FC07E0
7E0FC0
7FFFC0
3FFF80
1FFF00
07FC00
ENDCHAR
STARTCHAR 00DA
ENCODING 218
SWIDTH 690 0
DWIDTH 23 0
BBX 19 31 2 0
BITMAP
007C00
007800
00F000
00E000
01C000
000000
000000
F803E0
F803E0
F803E0
F803E0
F803E0
F803E0
F803E0
F803E0
F803E0
F803E0
F803E0
F803E0
F803E0
F803E0
F803E0
F803E0
F803E0
F803E0
FC07E0
7E0FC0
7FFFC0
3FFF80
1FFF00
07FC00
ENDCHAR
STARTCHAR 00DB
ENCODING 219
SWIDTH 690 0
DWIDTH 23 0
BBX 19 30 2 0
BITMAP
00E000
01F000
03B800
071C00
000000
000000
F803E0
F803E0
F803E0
F803E0
F803E0
F803E0
F803E0
F803E0
F803E0
F803E0
F803E0
F803E0
F803E0
F803E0
F803E0
F803E0
F803E0
F803E0
FC07E0
7E0FC0
7FFFC0
3FFF80
1FFF00
07FC00
ENDCHAR
STARTCHAR 00DC
ENCODING 220
SWIDTH 690 0
DWIDTH 23 0
BBX 19 29 2 0
BITMAP
0E0E00
0E0E00
0E0E00
000000
000000
F803E0
F803E0
F803E0
F803E0
F803E0
F803E0
F803E0
F803E0
F803E0
F803E0
F803E0
F803E0
F803E0
F803E0
F803E0
F803E0
F803E0
F803E0
FC07E0
7E0FC0
7FFFC0
3FFF80
1FFF00
07FC00
ENDCHAR
STARTCHAR 00DD
ENCODING 221
SWIDTH 690 0
DWIDTH 23 0
BBX 21 31 1 0
BITMAP
003E00
003C00
007800
007000
00E000
000000
000000
F801F8
FC01F8
7E03F0
3E03E0
3F07E0
1F07C0
1F8FC0
0F8F80
07DF00
07FF00
03FE00
01FE00
01FC00
00F800
00F800
00F800
00F800
00F800
00F800
00F800
00F800
00F800
00F800
00F800
ENDCHAR
STARTCHAR 00DE
ENCODING 222
SWIDTH 660 0
DWIDTH 22 0
BBX 17 24 3 0
BITMAP
F80000
F80000
F80000
F80000
FFF800
FFFC00
FFFE00
FFFF00
F83F00
F81F80
F80F80
F80F80
F80F80
F80F80
F81F80
F83F00
FFFF00
FFFE00
FFFC00
FFF800
F80000
F80000
F80000
F80000
ENDCHAR
STARTCHAR 00DF
ENCODING 223
SWIDTH 600 0
DWIDTH 20 0
BBX 17 24 2 0
BITMAP
0FE000
3FF000
7FF800
7CFC00
F87C00
F87C00
F87C00
F8F800
F8F800
F9F000
F9F000
F9F000
F9F800
F8FC00
F87E00
F87F00
F83F80
F81F80
F80F80
F88F80
F9CF80
FBFF00
F9FE00
F87C00
ENDCHAR
STARTCHAR 00E0
ENCODING 224
SWIDTH 540 0
DWIDTH 18 0
BBX 16 25 1 0
BITMAP
0F80
0780
03C0
01C0
00E0
0000
0000
0FF0
1FF8
3FFC
787E
303E
003E
007E
0FFE
3FFE
7FBE
FC3E
F83E
F83E
F87E
FCFE
7FFE
7FDE
1F1F
ENDCHAR
STARTCHAR 00E1
ENCODING 225
SWIDTH 540 0
DWIDTH 18 0
BBX 16 25 1 0
BITMAP
01F0
01E0
03C0
0380
0700
0000
0000
0FF0
1FF8
3FFC
787E
303E
003E
007E
0FFE
3FFE
7FBE
FC3E
F83E
F83E
F87E
FCFE
7FFE
7FDE
1F1F
ENDCHAR
STARTCHAR 00E2
ENCODING 226
SWIDTH 540 0
DWIDTH 18 0
BBX 16 24 1 0
BITMAP
01C0
03E0
0770
0E38
0000
0000
0FF0
1FF8
3FFC
787E
303E
003E
007E
0FFE
3FFE
7FBE
FC3E
F83E
F83E
F87E
FCFE
7FFE
7FDE
1F1F
ENDCHAR
STARTCHAR 00E3
ENCODING 227
SWIDTH 540 0
DWIDTH 18 0
BBX 16 24 1 0
BITMAP
0F0C
1FFC
1FFC
1878
0000
0000
0FF0
1FF8
3FFC
787E
303E
003E
007E
0FFE
3FFE
7FBE
FC3E
F83E
F83E
F87E
FCFE
7FFE
7FDE
1F1F
ENDCHAR
STARTCHAR 00E4
ENCODING 228
SWIDTH 540 0
DWIDTH 18 0
BBX 16 23 1 0
BITMAP
1C1C
1C1C
1C1C
0000
0000
0FF0
1FF8
3FFC
787E
303E
003E
007E
0FFE
3FFE
7FBE
FC3E
F83E
F83E
F87E
FCFE
7FFE
7FDE
1F1F
ENDCHAR
STARTCHAR 00E5
ENCODING 229
SWIDTH 540 0
DWIDTH 18 0
BBX 16 26 1 0
BITMAP
03C0
07E0
0660
0660
07E0
03C0
0000
0000
0FF0
1FF8
3FFC
787E
303E
003E
007E
0FFE
3FFE
7FBE
FC3E
F83E
F83E
F87E
FCFE
7FFE
7FDE
1F1F
ENDCHAR
STARTCHAR 00E6
ENCODING 230
SWIDTH 870 0
DWIDTH 29 0
BBX 25 18 2 0
BITMAP
07F1F000
1FFFFC00
3FFFFE00
787F1F00
303F0F00
003E0F80
00FE0F80
0FFFFF80
3FFFFF80
7FBFFF80
FC3E0000
F83E0000
F83E0000
F87F0E00
FC7F1F80
7FFFFF00
7FE7FE00
1F81F800
ENDCHAR
STARTCHAR 00E7
ENCODING 231
SWIDTH 540 0
DWIDTH 18 0
BBX 15 24 2 -6
BITMAP
07E0
1FF8
3FFC
7C7C
7C3E
F838
F800
F800
F800
F800
F800
F800
F838
7C3E
7C7C
3FFC
1FF8
07E0
0F80
1FE0
00E0
00E0
3FC0
3F80
ENDCHAR
STARTCHAR 00E8
ENCODING 232
SWIDTH 540 0
DWIDTH 18 0
BBX 16 25 1 0
BITMAP
0F80
0780
03C0
01C0
00E0
0000
0000
07E0
1FF8
3FFC
7E3E
7C3E
F81E
F81F
FFFF
FFFF
FFFF
F800
F800
F800
7C1C
7E3F
3FFE
1FFC
07F0
ENDCHAR
STARTCHAR 00E9
ENCODING 233
SWIDTH 540 0
DWIDTH 18 0
BBX 16 25 1 0
BITMAP
01F0
01E0
03C0
0380
0700
0000
0000
07E0
1FF8
3FFC
7E3E
7C3E
F81E
F81F
FFFF
FFFF
FFFF
F800
F800
F800
7C1C
7E3F
3FFE
1FFC
07F0
ENDCHAR
STARTCHAR 00EA
ENCODING 234
SWIDTH 540 0
DWIDTH 18 0
BBX 16 24 1 0
BITMAP
01C0
03E0
0770
0E38
0000
0000
07E0
1FF8
3FFC
7E3E
7C3E
F81E
F81F
FFFF
FFFF
FFFF
F800
F800
F800
7C1C
7E3F
3FFE
1FFC
07F0
ENDCHAR
STARTCHAR 00EB
ENCODING 235
SWIDTH 540 0
DWIDTH 18 0
BBX 16 23 1 0
BITMAP
1C1C
1C1C
1C1C
0000
0000
07E0
1FF8
3FFC
7E3E
7C3E
F81E
F81F
FFFF
FFFF
FFFF
F800
F800
F800
7C1C
7E3F
3FFE
1FFC
07F0
ENDCHAR
STARTCHAR 00EC
ENCODING 236
SWIDTH 270 0
DWIDTH 9 0
BBX 7 25 1 0
BITMAP
F8
78
3C
1C
0E
00
00
7C
7C
7C
7C
7C
7C
7C
7C
7C
7C
7C
7C
7C
7C
7C
7C
7C
7C
ENDCHAR
STARTCHAR 00ED
ENCODING 237
SWIDTH 270 0
DWIDTH 9 0
BBX 7 25 1 0
BITMAP
3E
3C
78
70
E0
00
00
7C
7C
7C
7C
7C
7C
7C
7C
7C
7C
7C
7C
7C
7C
7C
7C
7C
7C
ENDCHAR
STARTCHAR 00EE
ENCODING 238
SWIDTH 270 0
DWIDTH 9 0
BBX 9 24 0 0
BITMAP
1C00
3E00
7700
E380
0000
0000
3E00
3E00
3E00
3E00
3E00
3E00
3E00
3E00
3E00
3E00
3E00
3E00
3E00
3E00
3E00
3E00
3E00
3E00
ENDCHAR
STARTCHAR 00EF
ENCODING 239
SWIDTH 270 0
DWIDTH 9 0
BBX 11 23 -1 0
BITMAP
E0E0
E0E0
E0E0
0000
0000
1F00
1F00
1F00
1F00
1F00
1F00
1F00
1F00
1F00
1F00
1F00
1F00
1F00
1F00
1F00
1F00
1F00
1F00
ENDCHAR
STARTCHAR 00F0
ENCODING 240
SWIDTH 600 0
DWIDTH 20 0
BBX 17 24 2 0
BITMAP
0F8800
03FC00
01F000
07F000
0E3800
003C00
07DC00
0FFE00
3FFF00
3E3F00
7C1F00
7C1F80
F80F80
F80F80
F80F80
F80F80
F80F80
F80F80
7C1F00
7C1F00
3E3E00
3FFE00
0FF800
03E000
ENDCHAR
STARTCHAR 00F1
ENCODING 241
SWIDTH 600 0
DWIDTH 20 0
BBX 17 24 2 0
BITMAP
0F0C00
1FFC00
1FFC00
187800
000000
000000
F1F800
F7FE00
FFFF00
FE1F80
FC0F80
F80F80
F80F80
F80F80
F80F80
F80F80
F80F80
F80F80
F80F80
F80F80
F80F80
F80F80
F80F80
F80F80
ENDCHAR
STARTCHAR 00F2
ENCODING 242
SWIDTH 600 0
DWIDTH 20 0
BBX 17 25 2 0
BITMAP
07C000
03C000
01E000
00E000
007000
000000
000000
03E000
1FF800
3FFE00
3E3E00
7C1F00
7C1F00
F80F80
F80F80
F80F80
F80F80
F80F80
F80F80
7C1F80
7C1F00
7E3F00
3FFE00
1FFC00
03F000
ENDCHAR
STARTCHAR 00F3
ENCODING 243
SWIDTH 600 0
DWIDTH 20 0
BBX 17 25 2 0
BITMAP
00F800
00F000
01E000
01C000
038000
000000
000000
03E000
1FF800
3FFE00
3E3E00
7C1F00
7C1F00
F80F80
F80F80
F80F80
F80F80
F80F80
F80F80
7C1F80
7C1F00
7E3F00
3FFE00
1FFC00
03F000
ENDCHAR
STARTCHAR 00F4
ENCODING 244
SWIDTH 600 0
DWIDTH 20 0
BBX 17 24 2 0
BITMAP
01C000
03E000
077000
0E3800
000000
000000
03E000
1FF800
3FFE00
3E3E00
7C1F00
7C1F00
F80F80
F80F80
F80F80
F80F80
F80F80
F80F80
7C1F80
7C1F00
7E3F00
3FFE00
1FFC00
03F000
ENDCHAR
STARTCHAR 00F5
ENCODING 245
SWIDTH 600 0
DWIDTH 20 0
BBX 17 24 2 0
BITMAP
0F0C00
1FFC00
1FFC00
187800
000000
000000
03E000
1FF800
3FFE00
3E3E00
7C1F00
7C1F00
F80F80
F80F80
F80F80
F80F80
F80F80
F80F80
7C1F80
7C1F00
7E3F00
3FFE00
1FFC00
03F000
ENDCHAR
STARTCHAR 00F6
ENCODING 246
SWIDTH 600 0
DWIDTH 20 0
BBX 17 23 2 0
BITMAP
1C1C00
1C1C00
1C1C00
000000
000000
03E000
1FF800
3FFE00
3E3E00
7C1F00
7C1F00
F80F80
F80F80
F80F80
F80F80
F80F80
F80F80
7C1F80
7C1F00
7E3F00
3FFE00
1FFC00
03F000
ENDCHAR
STARTCHAR 00F7
ENCODING 247
SWIDTH 540 0
DWIDTH 18 0
BBX 16 16 1 3
BITMAP
03C0
03C0
03C0
03C0
0000
0000
FFFF
FFFF
FFFF
FFFF
0000
0000
03C0
03C0
03C0
03C0
ENDCHAR
STARTCHAR 00F8
ENCODING 248
SWIDTH 600 0
DWIDTH 20 0
BBX 17 20 2 -1
BITMAP
000200
07E300
1FFF80
3FFF00
3E3E00
7C3F00
783F00
F87F80
F8FF80
F9EF80
FBCF80
FF8F80
FF0F80
7E1F00
7E1F00
7E3E00
7FFE00
FFF800
6FE000
200000
ENDCHAR
STARTCHAR 00F9
ENCODING 249
SWIDTH 600 0
DWIDTH 20 0
BBX 17 25 2 0
BITMAP
07C000
03C000
01E000
00E000
007000
000000
000000
F80F80
F80F80
F80F80
F80F80
F80F80
F80F80
F80F80
F80F80
F80F80
F80F80
F80F80
F80F80
F80F80
F81F80
FC3F80
7FFF80
3FF780
0FC780
ENDCHAR
STARTCHAR 00FA
ENCODING 250
SWIDTH 600 0
DWIDTH 20 0
BBX 17 25 2 0
BITMAP
00F800
00F000
01E000
01C000
038000
000000
000000
F80F80
F80F80
F80F80
F80F80
F80F80
F80F80
F80F80
F80F80
F80F80
F80F80
F80F80
F80F80
F80F80
F81F80
FC3F80
7FFF80
3FF780
0FC780
ENDCHAR
STARTCHAR 00FB
ENCODING 251
SWIDTH 600 0
DWIDTH 20 0
BBX 17 24 2 0
BITMAP
01C000
03E000
077000
0E3800
000000
000000
F80F80
F80F80
F80F80
F80F80
F80F80
F80F80
F80F80
F80F80
F80F80
F80F80
F80F80
F80F80
F80F80
F81F80
FC3F80
7FFF80
3FF780
0FC780
ENDCHAR
STARTCHAR 00FC
ENCODING 252
SWIDTH 600 0
DWIDTH 20 0
BBX 17 23 2 0
BITMAP
1C1C00
1C1C00
1C1C00
000000
000000
F80F80
F80F80
F80F80
F80F80
F80F80
F80F80
F80F80
F80F80
F80F80
F80F80
F80F80
F80F80
F80F80
F81F80
FC3F80
7FFF80
3FF780
0FC780
ENDCHAR
STARTCHAR 00FD
ENCODING 253
SWIDTH 570 0
DWIDTH 19 0
BBX 17 32 1 -7
BITMAP
00F800
00F000
01E000
01C000
038000
000000
000000
F80F80
F80F80
780F00
7C1F00
7C1F00
3C1E00
3E3E00
3E3E00
1E3C00
1E3C00
0F7C00
0F7800
0F7800
077800
07F000
07F000
03F000
03E000
03E000
03C000
07C000
0FC000
7F8000
7F0000
7E0000
ENDCHAR
STARTCHAR 00FE
ENCODING 254
SWIDTH 600 0
DWIDTH 20 0
BBX 16 31 3 -7
BITMAP
F800
F800
F800
F800
F800
F800
F9F0
FBF8
FFFC
FE7E
FC3E
F81F
F81F
F81F
F81F
F81F
F81F
F81F
F81F
FC3E
FE7E
FFFC
FBF8
F9F0
F800
F800
F800
F800
F800
F800
F800
ENDCHAR
STARTCHAR 00FF
ENCODING 255
SWIDTH 570 0
DWIDTH 19 0
BBX 17 30 1 -7
BITMAP
1C1C00
1C1C00
1C1C00
000000
000000
F80F80
F80F80
780F00
7C1F00
7C1F00
3C1E00
3E3E00
3E3E00
1E3C00
1E3C00
0F7C00
0F7800
0F7800
077800
07F000
07F000
03F000
03E000
03E000
03C000
07C000
0FC000
7F8000
7F0000
7E0000
ENDCHAR
STARTCHAR 0100
ENCODING 256
SWIDTH 690 0
DWIDTH 23 0
BBX 23 29 0 0
BITMAP
01FF80
01FF80
01FF80
000000
000000
00FE00
00FE00
01FF00
01FF00
01EF00
03EF80
03EF80
03C780
07C7C0
07C7C0
07C3C0
0F83E0
0F83E0
0F83E0
1F01F0
1FFFF0
1FFFF0
3FFFF8
3FFFF8
3E00F8
7C007C
7C007C
FC007C
F8003E
ENDCHAR
STARTCHAR 0101
ENCODING 257
SWIDTH 540 0
DWIDTH 18 0
BBX 16 23 1 0
BITMAP
1FF8
1FF8
1FF8
0000
0000
0FF0
1FF8
3FFC
787E
303E
003E
007E
0FFE
3FFE
7FBE
FC3E
F83E
F83E
F87E
FCFE
7FFE
7FDE
1F1F
ENDCHAR
STARTCHAR 0102
ENCODING 258
SWIDTH 690 0
DWIDTH 23 0
BBX 23 30 0 0
BITMAP
018180
01C380
00FF00
007E00
000000
000000
00FE00
00FE00
01FF00
01FF00
01EF00
03EF80
03EF80
03C780
07C7C0
07C7C0
07C3C0
0F83E0
0F83E0
0F83E0
1F01F0
1FFFF0
1FFFF0
3FFFF8
3FFFF8
3E00F8
7C007C
7C007C
FC007C
F8003E
ENDCHAR
STARTCHAR 0103
ENCODING 259
SWIDTH 540 0
DWIDTH 18 0
BBX 16 24 1 0
BITMAP
1818
1C38
0FF0
07E0
0000
0000
0FF0
1FF8
3FFC
787E
303E
003E
007E
0FFE
3FFE
7FBE
FC3E
F83E
F83E
F87E
FCFE
7FFE
7FDE
1F1F
ENDCHAR
STARTCHAR 0104
ENCODING 260
SWIDTH 690 0
DWIDTH 23 0
BBX 25 31 0 -7
BITMAP
00FE0000
00FE0000
01FF0000
01FF0000
01EF0000
03EF8000
03EF8000
03C78000
07C7C000
07C7C000
07C3C000
0F83E000
0F83E000
0F83E000
1F01F000
1FFFF000
3FFFF000
3FFFF800
3FFFF800
7E00F800
7C007C00
7C007C00
FC007C00
F8003E00
00007000
00007000
00007000
00007000
00007800
00003F80
00001F80
ENDCHAR
STARTCHAR 0105
ENCODING 261
SWIDTH 540 0
DWIDTH 18 0
BBX 18 25 1 -7
BITMAP
0FF000
1FF800
3FFC00
787E00
303E00
003E00
007E00
0FFE00
3FFE00
7FBE00
FC3E00
F83E00
F83E00
F87E00
FCFE00
7FFE00
7FDE00
1F1F00
003800
003800
003800
003800
003C00
001FC0
000FC0
ENDCHAR
STARTCHAR 0106
ENCODING 262
SWIDTH 720 0
DWIDTH 24 0
BBX 21 31 1 0
BITMAP
003E00
003C00
007800
007000
00E000
000000
000000
00FE00
07FF80
0FFFC0
1FFFE0
3F87F0
7E01F0
7C01F8
7C00E0
F80000
F80000
F80000
F80000
F80000
F80000
F80000
F800E0
7C00F8
7C01F8
7E03F0
3F07F0
1FFFE0
0FFFC0
07FF80
01FE00
ENDCHAR
STARTCHAR 0107
ENCODING 263
SWIDTH 540 0
DWIDTH 18 0
BBX 15 25 2 0
BITMAP
01F0
01E0
03C0
0380
0700
0000
0000
07E0
1FF8
3FFC
7C7C
7C3E
F838
F800
F800
F800
F800
F800
F800
F838
7C3E
7C7C
3FFC
1FF8
07E0
ENDCHAR
STARTCHAR 0108
ENCODING 264
SWIDTH 720 0
DWIDTH 24 0
BBX 21 30 1 0
BITMAP
003800
007C00
00EE00
01C700
000000
000000
00FE00
07FF80
0FFFC0
1FFFE0
3F87F0
7E01F0
7C01F8
7C00E0
F80000
F80000
F80000
F80000
F80000
F80000
F80000
F800E0
7C00F8
7C01F8
7E03F0
3F07F0
1FFFE0
0FFFC0
07FF80
01FE00
ENDCHAR
STARTCHAR 0109
ENCODING 265
SWIDTH 540 0
DWIDTH 18 0
BBX 15 24 2 0
BITMAP
01C0
03E0
0770
0E38
0000
0000
07E0
1FF8
3FFC
7C7C
7C3E
F838
F800
F800
F800
F800
F800
F800
F838
7C3E
7C7C
3FFC
1FF8
07E0
ENDCHAR
STARTCHAR 010A
ENCODING 266
SWIDTH 720 0
DWIDTH 24 0
BBX 21 31 1 0
BITMAP
00F800
00F800
00F800
00F800
00F800
000000
000000
00FE00
07FF80
0FFFC0
1FFFE0
3F87F0
7E01F0
7C01F8
7C00E0
F80000
F80000
F80000
F80000
F80000
F80000
F80000
F800E0
7C00F8
7C01F8
7E03F0
3F07F0
1FFFE0
0FFFC0
07FF80
01FE00
ENDCHAR
STARTCHAR 010B
ENCODING 267
SWIDTH 540 0
DWIDTH 18 0
BBX 15 25 2 0
BITMAP
07C0
07C0
07C0
07C0
07C0
0000
0000
07E0
1FF8
3FFC
7C7C
7C3E
F838
F800
F800
F800
F800
F800
F800
F838
7C3E
7C7C
3FFC
1FF8
07E0
ENDCHAR
STARTCHAR 010C
ENCODING 268
SWIDTH 720 0
DWIDTH 24 0
BBX 21 30 1 0
BITMAP
038E00
01DC00
00F800
00F800
000000
000000
00FE00
07FF80
0FFFC0
1FFFE0
3F87F0
7E01F0
7C01F8
7C00E0
F80000
F80000
F80000
F80000
F80000
F80000
F80000
F800E0
7C00F8
7C01F8
7E03F0
3F07F0
1FFFE0
0FFFC0
07FF80
01FE00
ENDCHAR
STARTCHAR 010D
ENCODING 269
SWIDTH 540 0
DWIDTH 18 0
BBX 15 24 2 0
BITMAP
1C70
0EE0
07C0
07C0
0000
0000
07E0
1FF8
3FFC
7C7C
7C3E
F838
F800
F800
F800
F800
F800
F800
F838
7C3E
7C7C
3FFC
1FF8
07E0
ENDCHAR
STARTCHAR 010E
ENCODING 270
SWIDTH 690 0
DWIDTH 23 0
BBX 20 30 2 0
BITMAP
0E3800
077000
03E000
03E000
000000
000000
FFF800
FFFF00
FFFF80
FFFFC0
F80FC0
F807E0
F803E0
F803E0
F801F0
F801F0
F801F0
F801F0
F801F0
F801F0
F801F0
F801F0
F803F0
F803E0
F803E0
F80FC0
FFFFC0
FFFF80
FFFF00
FFF800
ENDCHAR
STARTCHAR 010F
ENCODING 271
SWIDTH 720 0
DWIDTH 24 0
BBX 23 24 2 0
BITMAP
000F9E
000F9E
000F9E
000F9E
000F86
000F86
078F8C
1FEF9C
3FFF88
7E3F80
7C1F80
F80F80
F80F80
F80F80
F80F80
F80F80
F80F80
F80F80
F81F80
7C1F80
7E3F80
3FFF80
1FF780
07C780
ENDCHAR
STARTCHAR 0110
ENCODING 272
SWIDTH 720 0
DWIDTH 24 0
BBX 22 24 0 0
BITMAP
3FFE00
3FFFC0
3FFFE0
3FFFF0
3E03F0
3E01F8
3E00F8
3E00F8
3E007C
3E007C
3E007C
FFF07C
FFF07C
FFF07C
3E007C
3E007C
3E00FC
3E00F8
3E01F8
3E03F0
3FFFF0
3FFFE0
3FFFC0
3FFE00
ENDCHAR
STARTCHAR 0111
ENCODING 273
SWIDTH 630 0
DWIDTH 21 0
BBX 19 24 2 0
BITMAP
000F80
000F80
01FFE0
01FFE0
01FFE0
000F80
078F80
1FEF80
3FFF80
7E3F80
7C1F80
F80F80
F80F80
F80F80
F80F80
F80F80
F80F80
F80F80
F81F80
7C1F80
7E3F80
3FFF80
1FF780
07C780
ENDCHAR
STARTCHAR 0112
ENCODING 274
SWIDTH 660 0
DWIDTH 22 0
BBX 18 29 2 0
BITMAP
0FFC00
0FFC00
0FFC00
000000
000000
FFFFC0
FFFFC0
FFFFC0
FFFFC0
F80000
F80000
F80000
F80000
F80000
FFFF80
FFFF80
FFFF80
FFFF80
F80000
F80000
F80000
F80000
F80000
F80000
F80000
FFFFC0
FFFFC0
FFFFC0
FFFFC0
ENDCHAR
STARTCHAR 0113
ENCODING 275
SWIDTH 540 0
DWIDTH 18 0
BBX 16 23 1 0
BITMAP
1FF8
1FF8
1FF8
0000
0000
07E0
1FF8
3FFC
7E3E
7C3E
F81E
F81F
FFFF
FFFF
FFFF
F800
F800
F800
7C1C
7E3F
3FFE
1FFC
07F0
ENDCHAR
STARTCHAR 0114
ENCODING 276
SWIDTH 660 0
DWIDTH 22 0
BBX 18 30 2 0
BITMAP
0C0C00
0E1C00
07F800
03F000
000000
000000
FFFFC0
FFFFC0
FFFFC0
FFFFC0
F80000
F80000
F80000
F80000
F80000
FFFF80
FFFF80
FFFF80
FFFF80
F80000
F80000
F80000
F80000
F80000
F80000
F80000
FFFFC0
FFFFC0
FFFFC0
FFFFC0
ENDCHAR
STARTCHAR 0115
ENCODING 277
SWIDTH 540 0
DWIDTH 18 0
BBX 16 24 1 0
BITMAP
1818
1C38
0FF0
07E0
0000
0000
07E0
1FF8
3FFC
7E3E
7C3E
F81E
F81F
FFFF
FFFF
FFFF
F800
F800
F800
7C1C
7E3F
3FFE
1FFC
07F0
ENDCHAR
STARTCHAR 0116
ENCODING 278
SWIDTH 660 0
DWIDTH 22 0
BBX 18 31 2 0
BITMAP
01F000
01F000
01F000
01F000
01F000
000000
000000
FFFFC0
FFFFC0
FFFFC0
FFFFC0
F80000
F80000
F80000
F80000
F80000
FFFF80
FFFF80
FFFF80
FFFF80
F80000
F80000
F80000
F80000
F80000
F80000
F80000
FFFFC0
FFFFC0
FFFFC0
FFFFC0
ENDCHAR
STARTCHAR 0117
ENCODING 279
SWIDTH 540 0
DWIDTH 18 0
BBX 16 25 1 0
BITMAP
03E0
03E0
03E0
03E0
03E0
0000
0000
07E0
1FF8
3FFC
7E3E
7C3E
F81E
F81F
FFFF
FFFF
FFFF
F800
F800
F800
7C1C
7E3F
3FFE
1FFC
07F0
ENDCHAR
STARTCHAR 0118
ENCODING 280
SWIDTH 660 0
DWIDTH 22 0
BBX 18 31 2 -7
BITMAP
FFFFC0
FFFFC0
FFFFC0
FFFFC0
F80000
F80000
F80000
F80000
F80000
FFFF80
FFFF80
FFFF80
FFFF80
F80000
F80000
F80000
F80000
F80000
F80000
F80000
FFFFC0
FFFFC0
FFFFC0
FFFFC0
003800
003800
003800
003800
003C00
001FC0
000FC0
ENDCHAR
STARTCHAR 0119
ENCODING 281
SWIDTH 540 0
DWIDTH 18 0
BBX 16 25 1 -7
BITMAP
07E0
1FF8
3FFC
7E3E
7C3E
F81E
F81F
FFFF
FFFF
FFFF
F800
F800
F800
7C1C
7E3F
3FFE
1FFC
07F0
0380
0380
0380
0380
03C0
01FC
00FC
ENDCHAR
STARTCHAR 011A
ENCODING 282
SWIDTH 660 0
DWIDTH 22 0
BBX 18 30 2 0
BITMAP
071C00
03B800
01F000
01F000
000000
000000
FFFFC0
FFFFC0
FFFFC0
FFFFC0
F80000
F80000
F80000
F80000
F80000
FFFF80
FFFF80
FFFF80
FFFF80
F80000
F80000
F80000
F80000
F80000
F80000
F80000
FFFFC0
FFFFC0
FFFFC0
FFFFC0
ENDCHAR
STARTCHAR 011B
ENCODING 283
SWIDTH 540 0
DWIDTH 18 0
BBX 16 24 1 0
BITMAP
0E38
0770
03E0
03E0
0000
0000
07E0
1FF8
3FFC
7E3E
7C3E
F81E
F81F
FFFF
FFFF
FFFF
F800
F800
F800
7C1C
7E3F
3FFE
1FFC
07F0
ENDCHAR
STARTCHAR 011C
ENCODING 284
SWIDTH 780 0
DWIDTH 26 0
BBX 23 30 1 0
BITMAP
003800
007C00
00EE00
01C700
000000
000000
00FF80
03FFE0
0FFFF0
1FFFF8
3F81FC
3F00FE
7E007E
7C0038
F80000
F80000
F80000
F80FFE
F80FFE
F80FFE
F80FFE
FC003E
7C003E
7E003E
3F007E
3F81FE
1FFFFE
0FFFF8
03FFF0
00FF00
ENDCHAR
STARTCHAR 011D
ENCODING 285
SWIDTH 600 0
DWIDTH 20 0
BBX 17 31 2 -7
BITMAP
01C000
03E000
077000
0E3800
000000
000000
07C780
1FF780
3FFF80
7E3F80
7C1F80
F81F80
F80F80
F80F80
F80F80
F80F80
F80F80
F80F80
F81F80
7C1F80
7E3F80
3FFF80
1FEF80
07CF80
000F80
000F80
700F80
7C1F00
3FFF00
3FFE00
07F800
ENDCHAR
STARTCHAR 011E
ENCODING 286
SWIDTH 780 0
DWIDTH 26 0
BBX 23 30 1 0
BITMAP
018180
01C380
00FF00
007E00
000000
000000
00FF80
03FFE0
0FFFF0
1FFFF8
3F81FC
3F00FE
7E007E
7C0038
F80000
F80000
F80000
F80FFE
F80FFE
F80FFE
F80FFE
FC003E
7C003E
7E003E
3F007E
3F81FE
1FFFFE
0FFFF8
03FFF0
00FF00
ENDCHAR
STARTCHAR 011F
ENCODING 287
SWIDTH 600 0
DWIDTH 20 0
BBX 17 31 2 -7
BITMAP
0C0C00
0E1C00
07F800
03F000
000000
000000
07C780
1FF780
3FFF80
7E3F80
7C1F80
F81F80
F80F80
F80F80
F80F80
F80F80
F80F80
F80F80
F81F80
7C1F80
7E3F80
3FFF80
1FEF80
07CF80
000F80
000F80
700F80
7C1F00
3FFF00
3FFE00
07F800
ENDCHAR
STARTCHAR 0120
ENCODING 288
SWIDTH 780 0
DWIDTH 26 0
BBX 23 31 1 0
BITMAP
007C00
007C00
007C00
007C00
007C00
000000
000000
00FF80
03FFE0
0FFFF0
1FFFF8
3F81FC
3F00FE
7E007E
7C0038
F80000
F80000
F80000
F80FFE
F80FFE
F80FFE
F80FFE
FC003E
7C003E
7E003E
3F007E
3F81FE
1FFFFE
0FFFF8
03FFF0
00FF00
ENDCHAR
STARTCHAR 0121
ENCODING 289
SWIDTH 600 0
DWIDTH 20 0
BBX 17 32 2 -7
BITMAP
03E000
03E000
03E000
03E000
03E000
000000
000000
07C780
1FF780
3FFF80
7E3F80
7C1F80
F81F80
F80F80
F80F80
F80F80
F80F80
F80F80
F80F80
F81F80
7C1F80
7E3F80
3FFF80
1FEF80
07CF80
000F80
000F80
700F80
7C1F00
3FFF00
3FFE00
07F800
ENDCHAR
STARTCHAR 0122
ENCODING 290
SWIDTH 780 0
DWIDTH 26 0
BBX 23 30 1 -6
BITMAP
00FF80
03FFE0
0FFFF0
1FFFF8
3F81FC
3E00FE
7C007E
7C0038
F80000
F80000
F80000
F80FFE
F80FFE
F80FFE
F80FFE
FC003E
7C003E
7E003E
3F007E
3F81FE
1FFFFE
0FFFFC
03FFF0
00FF80
007E00
007F00
000700
000700
01FE00
01FC00
ENDCHAR
STARTCHAR 0123
ENCODING 291
SWIDTH 630 0
DWIDTH 21 0
BBX 17 34 2 -7
BITMAP
00C000
03C000
078000
070000
07C000
07C000
07C000
000000
000000
07C780
1FF780
3FFF80
7E3F80
7C1F80
FC1F80
F80F80
F80F80
F80F80
F80F80
F80F80
F80F80
F81F80
7C1F80
7E3F80
3FFF80
1FEF80
07CF80
000F80
000F80
700F80
7C1F00
3FFF00
3FFE00
07F800
ENDCHAR
STARTCHAR 0124
ENCODING 292
SWIDTH 690 0
DWIDTH 23 0
BBX 19 30 2 0
BITMAP
00E000
01F000
03B800
071C00
000000
000000
F803E0
F803E0
F803E0
F803E0
F803E0
F803E0
F803E0
F803E0
F803E0
FFFFE0
FFFFE0
FFFFE0
FFFFE0
F803E0
F803E0
F803E0
F803E0
F803E0
F803E0
F803E0
F803E0
F803E0
F803E0
F803E0
ENDCHAR
STARTCHAR 0125
ENCODING 293
SWIDTH 600 0
DWIDTH 20 0
BBX 17 30 2 0
BITMAP
01C000
03E000
077000
0E3800
000000
000000
F80000
F80000
F80000
F80000
F80000
F80000
F8F800
FBFE00
FFFF00
FE1F80
FC0F80
F80F80
F80F80
F80F80
F80F80
F80F80
F80F80
F80F80
F80F80
F80F80
F80F80
F80F80
F80F80
F80F80
ENDCHAR
STARTCHAR 0126
ENCODING 294
SWIDTH 690 0
DWIDTH 23 0
BBX 23 24 0 0
BITMAP
3E00F8
3E00F8
3E00F8
FFFFFE
FFFFFE
FFFFFE
3E00F8
3E00F8
3E00F8
3FFFF8
3FFFF8
3FFFF8
3FFFF8
3E00F8
3E00F8
3E00F8
3E00F8
3E00F8
3E00F8
3E00F8
3E00F8
3E00F8
3E00F8
3E00F8
ENDCHAR
STARTCHAR 0127
ENCODING 295
SWIDTH 600 0
DWIDTH 20 0
BBX 19 24 0 0
BITMAP
3E0000
3E0000
FFF000
FFF000
FFF000
3E0000
3E3F00
3EFF80
3FFFC0
3F87E0
3F03E0
3E03E0
3E03E0
3E03E0
3E03E0
3E03E0
3E03E0
3E03E0
3E03E0
3E03E0
3E03E0
3E03E0
3E03E0
3E03E0
ENDCHAR
STARTCHAR 0128
ENCODING 296
SWIDTH 270 0
DWIDTH 9 0
BBX 11 30 -1 0
BITMAP
7860
FFE0
FFE0
C3C0
0000
0000
1F00
1F00
1F00
1F00
1F00
1F00
1F00
1F00
1F00
1F00
1F00
1F00
1F00
1F00
1F00
1F00
1F00
1F00
1F00
1F00
1F00
1F00
1F00
1F00
ENDCHAR
STARTCHAR 0129
ENCODING 297
SWIDTH 270 0
DWIDTH 9 0
BBX 11 24 -1 0
BITMAP
7860
FFE0
FFE0
C3C0
0000
0000
1F00
1F00
1F00
1F00
1F00
1F00
1F00
1F00
1F00
1F00
1F00
1F00
1F00
1F00
1F00
1F00
1F00
1F00
ENDCHAR
STARTCHAR 012A
ENCODING 298
SWIDTH 270 0
DWIDTH 9 0
BBX 10 29 0 0
BITMAP
FFC0
FFC0
FFC0
0000
0000
3E00
3E00
3E00
3E00
3E00
3E00
3E00
3E00
3E00
3E00
3E00
3E00
3E00
3E00
3E00
3E00
3E00
3E00
3E00
3E00
3E00
3E00
3E00
3E00
ENDCHAR
STARTCHAR 012B
ENCODING 299
SWIDTH 270 0
DWIDTH 9 0
BBX 10 23 0 0
BITMAP
FFC0
FFC0
FFC0
0000
0000
3E00
3E00
3E00
3E00
3E00
3E00
3E00
3E00
3E00
3E00
3E00
3E00
3E00
3E00
3E00
3E00
3E00
3E00
ENDCHAR
STARTCHAR 012C
ENCODING 300
SWIDTH 270 0
DWIDTH 9 0
BBX 10 30 0 0
BITMAP
C0C0
E1C0
7F80
3F00
0000
0000
3E00
3E00
3E00
3E00
3E00
3E00
3E00
3E00
3E00
3E00
3E00
3E00
3E00
3E00
3E00
3E00
3E00
3E00
3E00
3E00
3E00
3E00
3E00
3E00
ENDCHAR
STARTCHAR 012D
ENCODING 301
SWIDTH 270 0
DWIDTH 9 0
BBX 10 24 0 0
BITMAP
C0C0
E1C0
7F80
3F00
0000
0000
3E00
3E00
3E00
3E00
3E00
3E00
3E00
3E00
3E00
3E00
3E00
3E00
3E00
3E00
3E00
3E00
3E00
3E00
ENDCHAR
STARTCHAR 012E
ENCODING 302
SWIDTH 270 0
DWIDTH 9 0
BBX 8 31 1 -7
BITMAP
7C
7C
7C
7C
7C
7C
7C
7C
7C
7C
7C
7C
7C
7C
7C
7C
7C
7C
7C
7C
7C
7C
7C
7C
60
E0
E0
E0
F0
7F
3F
ENDCHAR
STARTCHAR 012F
ENCODING 303
SWIDTH 270 0
DWIDTH 9 0
BBX 8 31 1 -7
BITMAP
7C
7C
7C
00
00
00
7C
7C
7C
7C
7C
7C
7C
7C
7C
7C
7C
7C
7C
7C
7C
7C
7C
7C
60
E0
E0
E0
F0
7F
3F
ENDCHAR
STARTCHAR 0130
ENCODING 304
SWIDTH 270 0
DWIDTH 9 0
BBX 5 31 2 0
BITMAP
F8
F8
F8
F8
F8
00
00
F8
F8
F8
F8
F8
F8
F8
F8
F8
F8
F8
F8
F8
F8
F8
F8
F8
F8
F8
F8
F8
F8
F8
F8
ENDCHAR
STARTCHAR 0131
ENCODING 305
SWIDTH 270 0
DWIDTH 9 0
BBX 5 18 2 0
BITMAP
F8
F8
F8
F8
F8
F8
F8
F8
F8
F8
F8
F8
F8
F8
F8
F8
F8
F8
ENDCHAR
STARTCHAR 0132
ENCODING 306
SWIDTH 780 0
DWIDTH 26 0
BBX 22 24 2 0
BITMAP
F8007C
F8007C
F8007C
F8007C
F8007C
F8007C
F8007C
F8007C
F8007C
F8007C
F8007C
F8007C
F8007C
F8007C
F8007C
F8007C
F9F07C
F9F07C
F9F07C
F9F8F8
F8FFF8
F8FFF0
F87FE0
F81F80
ENDCHAR
STARTCHAR 0133
ENCODING 307
SWIDTH 540 0
DWIDTH 18 0
BBX 14 31 2 -7
BITMAP
F87C
F87C
F87C
0000
0000
0000
F87C
F87C
F87C
F87C
F87C
F87C
F87C
F87C
F87C
F87C
F87C
F87C
F87C
F87C
F87C
F87C
F87C
F87C
007C
007C
007C
00FC
07F8
07F8
07E0
ENDCHAR
STARTCHAR 0134
ENCODING 308
SWIDTH 540 0
DWIDTH 18 0
BBX 17 30 1 0
BITMAP
001C00
003E00
007700
00E380
000000
000000
003E00
003E00
003E00
003E00
003E00
003E00
003E00
003E00
003E00
003E00
003E00
003E00
003E00
003E00
003E00
003E00
F83E00
F83E00
F83E00
FC7C00
7FFC00
7FF800
3FF000
0FC000
ENDCHAR
STARTCHAR 0135
ENCODING 309
SWIDTH 270 0
DWIDTH 9 0
BBX 11 31 -2 -7
BITMAP
0700
0F80
1DC0
38E0
0000
0000
0F80
0F80
0F80
0F80
0F80
0F80
0F80
0F80
0F80
0F80
0F80
0F80
0F80
0F80
0F80
0F80
0F80
0F80
0F80
0F80
0F80
1F80
FF00
FF00
FC00
ENDCHAR
STARTCHAR 0136
ENCODING 310
SWIDTH 720 0
DWIDTH 24 0
BBX 21 30 2 -6
BITMAP
F803F8
F807F0
F80FE0
F81FC0
F83F80
F87F00
F87E00
F8FC00
F9F800
FBF000
FFF800
FFF800
FFFC00
FF7E00
FE3E00
FC3F00
F81F80
F80F80
F80FC0
F807E0
F803E0
F803F0
F801F8
F801F8
00F000
00FC00
001C00
001C00
07F800
07F000
ENDCHAR
STARTCHAR 0137
ENCODING 311
SWIDTH 540 0
DWIDTH 18 0
BBX 15 30 2 -6
BITMAP
F800
F800
F800
F800
F800
F800
F83E
F87C
F878
F8F8
F9F0
FBE0
FBC0
FFC0
FFE0
FFE0
FDF0
FCF0
F8F8
F8F8
F87C
F87C
F83E
F83E
0780
07E0
00E0
00E0
3FC0
3F80
ENDCHAR
STARTCHAR 0138
ENCODING 312
SWIDTH 540 0
DWIDTH 18 0
BBX 16 18 2 0
BITMAP
F83F
F87E
F8FC
F8F8
F9F0
FBE0
FBC0
FFE0
FFE0
FFF0
FFF0
FCF8
F8F8
F87C
F87C
F87E
F83E
F83F
ENDCHAR
STARTCHAR 0139
ENCODING 313
SWIDTH 600 0
DWIDTH 20 0
BBX 17 31 2 0
BITMAP
01F000
01E000
03C000
038000
070000
000000
000000
F80000
F80000
F80000
F80000
F80000
F80000
F80000
F80000
F80000
F80000
F80000
F80000
F80000
F80000
F80000
F80000
F80000
F80000
F80000
F80000
FFFF80
FFFF80
FFFF80
FFFF80
ENDCHAR
STARTCHAR 013A
ENCODING 314
SWIDTH 270 0
DWIDTH 9 0
BBX 7 31 1 0
BITMAP
3E
3C
78
70
E0
00
00
7C
7C
7C
7C
7C
7C
7C
7C
7C
7C
7C
7C
7C
7C
7C
7C
7C
7C
7C
7C
7C
7C
7C
7C
ENDCHAR
STARTCHAR 013B
ENCODING 315
SWIDTH 600 0
DWIDTH 20 0
BBX 17 30 2 -6
BITMAP
F80000
F80000
F80000
F80000
F80000
F80000
F80000
F80000
F80000
F80000
F80000
F80000
F80000
F80000
F80000
F80000
F80000
F80000
F80000
F80000
FFFF80
FFFF80
FFFF80
FFFF80
01E000
01F800
003800
003800
0FF000
0FE000
ENDCHAR
STARTCHAR 013C
ENCODING 316
SWIDTH 270 0
DWIDTH 9 0
BBX 9 30 -1 -6
BITMAP
1F00
1F00
1F00
1F00
1F00
1F00
1F00
1F00
1F00
1F00
1F00
1F00
1F00
1F00
1F00
1F00
1F00
1F00
1F00
1F00
1F00
1F00
1F00
1F00
1E00
1F80
0380
0380
FF00
FE00
ENDCHAR
STARTCHAR 013D
ENCODING 317
SWIDTH 600 0
DWIDTH 20 0
BBX 17 24 2 0
BITMAP
F81F00
F81F00
F81F00
F81F00
F81F00
F80300
F80300
F80E00
F81C00
F80800
F80000
F80000
F80000
F80000
F80000
F80000
F80000
F80000
F80000
F80000
FFFF80
FFFF80
FFFF80
FFFF80
ENDCHAR
STARTCHAR 013E
ENCODING 318
SWIDTH 390 0
DWIDTH 13 0
BBX 11 24 2 0
BITMAP
F9E0
F9E0
F9E0
F9E0
F860
F860
F8C0
F9C0
F880
F800
F800
F800
F800
F800
F800
F800
F800
F800
F800
F800
F800
F800
F800
F800
ENDCHAR
STARTCHAR 013F
ENCODING 319
SWIDTH 600 0
DWIDTH 20 0
BBX 17 24 2 0
BITMAP
F80000
F80000
F80000
F80000
F80000
F80000
F80000
F83E00
F83E00
F83E00
F83E00
F83E00
F80000
F80000
F80000
F80000
F80000
F80000
F80000
F80000
FFFF80
FFFF80
FFFF80
FFFF80
ENDCHAR
STARTCHAR 0140
ENCODING 320
SWIDTH 480 0
DWIDTH 16 0
BBX 12 24 2 0
BITMAP
F800
F800
F800
F800
F800
F800
F800
F800
F9F0
F9F0
F9F0
F9F0
F9F0
F800
F800
F800
F800
F800
F800
F800
F800
F800
F800
F800
ENDCHAR
STARTCHAR 0141
ENCODING 321
SWIDTH 600 0
DWIDTH 20 0
BBX 20 24 -1 0
BITMAP
1F0000
1F0000
1F0000
1F0000
1F0800
1F1800
1F7000
1FE000
1FC000
1F8000
1F0000
1F0000
3F0000
7F0000
FF0000
DF0000
1F0000
1F0000
1F0000
1F0000
1FFFF0
1FFFF0
1FFFF0
1FFFF0
ENDCHAR
STARTCHAR 0142
ENCODING 322
SWIDTH 270 0
DWIDTH 9 0
BBX 9 24 0 0
BITMAP
3E00
3E00
3E00
3E00
3E00
3E00
3E00
3E80
3F80
3F00
3E00
3E00
3E00
7E00
FE00
FE00
3E00
3E00
3E00
3E00
3E00
3E00
3E00
3E00
ENDCHAR
STARTCHAR 0143
ENCODING 323
SWIDTH 690 0
DWIDTH 23 0
BBX 19 31 2 0
BITMAP
003E00
003C00
007800
007000
00E000
000000
000000
FC01E0
FC01E0
FE01E0
FE01E0
FF01E0
FF01E0
FF81E0
F781E0
F7C1E0
F3C1E0
F3E1E0
F1E1E0
F1F1E0
F0F1E0
F0F9E0
F079E0
F07DE0
F03DE0
F03FE0
F01FE0
F01FE0
F00FE0
F00FE0
F007E0
ENDCHAR
STARTCHAR 0144
ENCODING 324
SWIDTH 600 0
DWIDTH 20 0
BBX 17 25 2 0
BITMAP
00F800
00F000
01E000
01C000
038000
000000
000000
F1F800
F7FE00
FFFF00
FE1F80
FC0F80
F80F80
F80F80
F80F80
F80F80
F80F80
F80F80
F80F80
F80F80
F80F80
F80F80
F80F80
F80F80
F80F80
ENDCHAR
STARTCHAR 0145
ENCODING 325
SWIDTH 690 0
DWIDTH 23 0
BBX 19 30 2 -6
BITMAP
FC01E0
FC01E0
FE01E0
FE01E0
FF01E0
FF01E0
FF81E0
F781E0
F7C1E0
F3C1E0
F3E1E0
F1E1E0
F1F1E0
F0F1E0
F0F9E0
F079E0
F07DE0
F03DE0
F03FE0
F01FE0
F01FE0
F00FE0
F00FE0
F007E0
01E000
01F800
003800
003800
0FF000
0FE000
ENDCHAR
STARTCHAR 0146
ENCODING 326
SWIDTH 600 0
DWIDTH 20 0
BBX 17 24 2 -6
BITMAP
F1F800
F7FE00
FFFF00
FE1F80
FC0F80
F80F80
F80F80
F80F80
F80F80
F80F80
F80F80
F80F80
F80F80
F80F80
F80F80
F80F80
F80F80
F80F80
03C000
03F000
007000
007000
1FE000
1FC000
ENDCHAR
STARTCHAR 0147
ENCODING 327
SWIDTH 690 0
DWIDTH 23 0
BBX 19 30 2 0
BITMAP
071C00
03B800
01F000
01F000
000000
000000
FC01E0
FC01E0
FE01E0
FE01E0
FF01E0
FF01E0
FF81E0
F781E0
F7C1E0
F3C1E0
F3E1E0
F1E1E0
F1F1E0
F0F1E0
F0F9E0
F079E0
F07DE0
F03DE0
F03FE0
F01FE0
F01FE0
F00FE0
F00FE0
F007E0
ENDCHAR
STARTCHAR 0148
ENCODING 328
SWIDTH 600 0
DWIDTH 20 0
BBX 17 24 2 0
BITMAP
0E3800
077000
03E000
03E000
000000
000000
F1F800
F7FE00
FFFF00
FE1F80
FC0F80
F80F80
F80F80
F80F80
F80F80
F80F80
F80F80
F80F80
F80F80
F80F80
F80F80
F80F80
F80F80
F80F80
ENDCHAR
STARTCHAR 0149
ENCODING 329
SWIDTH 690 0
DWIDTH 23 0
BBX 23 24 -1 0
BITMAP
F80000
F80000
F80000
F80000
F80000
180000
1BC7E0
73DFF8
E3FFFC
43F87E
03F03E
03E03E
03E03E
03E03E
03E03E
03E03E
03E03E
03E03E
03E03E
03E03E
03E03E
03E03E
03E03E
03E03E
ENDCHAR
STARTCHAR 014A
ENCODING 330
SWIDTH 720 0
DWIDTH 24 0
BBX 21 24 2 0
BITMAP
F83F00
F9FFC0
FBFFE0
FFFFE0
FF87F0
FE01F0
FC01F0
F801F8
F800F8
F800F8
F800F8
F800F8
F800F8
F800F8
F800F8
F800F8
F800F8
F800F8
F801F8
F821F0
F83FF0
F83FE0
F87FC0
F83F80
ENDCHAR
STARTCHAR 014B
ENCODING 331
SWIDTH 600 0
DWIDTH 20 0
BBX 17 25 2 -7
BITMAP
F1F800
F7FE00
FFFF00
FE1F80
FC0F80
F80F80
F80F80
F80F80
F80F80
F80F80
F80F80
F80F80
F80F80
F80F80
F80F80
F80F80
F80F80
F80F80
000F80
000F80
000F80
007F80
00FF00
00FF00
007C00
ENDCHAR
STARTCHAR 014C
ENCODING 332
SWIDTH 750 0
DWIDTH 25 0
BBX 23 29 1 0
BITMAP
01FF80
01FF80
01FF80
000000
000000
00FE00
07FFC0
0FFFE0
1FFFF0
3F83F8
7E00FC
7C007C
7C007C
F8003E
F8003E
F8003E
F8003E
F8003E
F8003E
F8003E
F8003E
7C007C
7C007C
7E00FC
3F83F8
1FFFF0
0FFFE0
07FFC0
00FE00
ENDCHAR
STARTCHAR 014D
ENCODING 333
SWIDTH 600 0
DWIDTH 20 0
BBX 17 23 2 0
BITMAP
0FFC00
0FFC00
0FFC00
000000
000000
03E000
1FF800
3FFE00
3E3E00
7C1F00
7C1F00
F80F80
F80F80
F80F80
F80F80
F80F80
F80F80
7C1F80
7C1F00
7E3F00
3FFE00
1FFC00
03F000
ENDCHAR
STARTCHAR 014E
ENCODING 334
SWIDTH 750 0
DWIDTH 25 0
BBX 23 30 1 0
BITMAP
018180
01C380
00FF00
007E00
000000
000000
00FE00
07FFC0
0FFFE0
1FFFF0
3F83F8
7E00FC
7C007C
7C007C
F8003E
F8003E
F8003E
F8003E
F8003E
F8003E
F8003E
F8003E
7C007C
7C007C
7E00FC
3F83F8
1FFFF0
0FFFE0
07FFC0
00FE00
ENDCHAR
STARTCHAR 014F
ENCODING 335
SWIDTH 600 0
DWIDTH 20 0
BBX 17 24 2 0
BITMAP
0C0C00
0E1C00
07F800
03F000
000000
000000
03E000
1FF800
3FFE00
3E3E00
7C1F00
7C1F00
F80F80
F80F80
F80F80
F80F80
F80F80
F80F80
7C1F80
7C1F00
7E3F00
3FFE00
1FFC00
03F000
ENDCHAR
STARTCHAR 0150
ENCODING 336
SWIDTH 750 0
DWIDTH 25 0
BBX 23 31 1 0
BITMAP
00FBE0
00F3C0
01E780
01C700
038E00
000000
000000
00FE00
07FFC0
0FFFE0
1FFFF0
3F83F8
7E00FC
7C007C
7C007C
F8003E
F8003E
F8003E
F8003E
F8003E
F8003E
F8003E
F8003E
7C007C
7C007C
7E00FC
3F83F8
1FFFF0
0FFFE0
07FFC0
00FE00
ENDCHAR
STARTCHAR 0151
ENCODING 337
SWIDTH 600 0
DWIDTH 20 0
BBX 17 25 2 0
BITMAP
03EF80
03CF00
079E00
071C00
0E3800
000000
000000
03E000
1FF800
3FFE00
3E3E00
7C1F00
7C1F00
F80F80
F80F80
F80F80
F80F80
F80F80
F80F80
7C1F80
7C1F00
7E3F00
3FFE00
1FFC00
03F000
ENDCHAR
STARTCHAR 0152
ENCODING 338
SWIDTH 1050 0
DWIDTH 35 0
BBX 31 24 2 0
BITMAP
03F1FFFE
0FFDFFFE
1FFFFFFE
3FFFFFFE
3F0FF000
7E07F000
7C03F000
FC03F000
F801F000
F801FFFC
F801FFFC
F801FFFC
F801FFFC
F801F000
F801F000
F801F000
FC03F000
7C03F000
7E07F000
3F0FF000
3FFFFFFE
1FFFFFFE
0FFFFFFE
03F9FFFE
ENDCHAR
STARTCHAR 0153
ENCODING 339
SWIDTH 930 0
DWIDTH 31 0
BBX 28 18 2 0
BITMAP
03F03E00
0FFCFF80
3FFFFFC0
3E1FE3E0
7C0FE3E0
7C0FC1E0
F807C1F0
F807FFF0
F807FFF0
F807FFF0
F807C000
F807C000
7C0FC000
7C0FE1C0
3E1FE3F0
1FFFFFE0
0FFEFFC0
03F03F00
ENDCHAR
STARTCHAR 0154
ENCODING 340
SWIDTH 720 0
DWIDTH 24 0
BBX 22 31 2 0
BITMAP
007C00
007800
00F000
00E000
01C000
000000
000000
FFFE00
FFFFC0
FFFFE0
FFFFE0
F803F0
F801F0
F801F0
F801F0
F801F0
F803E0
FFFFE0
FFFFC0
FFFF80
FFFC00
F87E00
F83F00
F81F80
F80FC0
F807C0
F807E0
F803F0
F801F0
F801F8
F800FC
ENDCHAR
STARTCHAR 0155
ENCODING 341
SWIDTH 390 0
DWIDTH 13 0
BBX 11 25 2 0
BITMAP
0F00
1E00
1E00
3C00
3800
0000
0000
F3C0
F7E0
FFC0
FFC0
FC00
FC00
F800
F800
F800
F800
F800
F800
F800
F800
F800
F800
F800
F800
ENDCHAR
STARTCHAR 0156
ENCODING 342
SWIDTH 720 0
DWIDTH 24 0
BBX 22 30 2 -6
BITMAP
FFFE00
FFFFC0
FFFFE0
FFFFE0
F803F0
F801F0
F801F0
F801F0
F801F0
F803E0
FFFFE0
FFFFC0
FFFF80
FFFC00
F87E00
F83F00
F81F80
F80FC0
F807C0
F807E0
F803F0
F801F0
F801F8
F800FC
00F000
00FC00
001C00
001C00
07F800
07F000
ENDCHAR
STARTCHAR 0157
ENCODING 343
SWIDTH 390 0
DWIDTH 13 0
BBX 12 24 1 -6
BITMAP
79E0
7BF0
7FE0
7FE0
7E00
7E00
7C00
7C00
7C00
7C00
7C00
7C00
7C00
7C00
7C00
7C00
7C00
7C00
1E00
1F80
0380
0380
FF00
FE00
ENDCHAR
STARTCHAR 0158
ENCODING 344
SWIDTH 720 0
DWIDTH 24 0
BBX 22 30 2 0
BITMAP
071C00
03B800
01F000
01F000
000000
000000
FFFE00
FFFFC0
FFFFE0
FFFFE0
F803F0
F801F0
F801F0
F801F0
F801F0
F803E0
FFFFE0
FFFFC0
FFFF80
FFFC00
F87E00
F83F00
F81F80
F80FC0
F807C0
F807E0
F803F0
F801F0
F801F8
F800FC
ENDCHAR
STARTCHAR 0159
ENCODING 345
SWIDTH 390 0
DWIDTH 13 0
BBX 11 24 2 0
BITMAP
71C0
3B80
1F00
1F00
0000
0000
F3C0
F7E0
FFC0
FFC0
FC00
FC00
F800
F800
F800
F800
F800
F800
F800
F800
F800
F800
F800
F800
ENDCHAR
STARTCHAR 015A
ENCODING 346
SWIDTH 660 0
DWIDTH 22 0
BBX 19 31 1 0
BITMAP
007800
00F000
00F000
01E000
01C000
000000
000000
03F800
0FFE00
3FFF00
3FFF80
7E0F80
7C07C0
7C07C0
7C0000
7E0000
3F8000
3FF800
1FFE00
07FF80
00FFC0
001FC0
0007E0
F803E0
F803E0
7C07E0
7E0FE0
3FFFC0
3FFF80
0FFF00
03FC00
ENDCHAR
STARTCHAR 015B
ENCODING 347
SWIDTH 540 0
DWIDTH 18 0
BBX 16 25 1 0
BITMAP
00F0
01E0
01E0
03C0
0380
0000
0000
07F0
1FFC
3FFE
7E3F
7C0C
7C00
7F00
7FE0
3FF8
1FFE
03FE
007F
001F
381F
FC3F
7FFE
3FFC
0FF0
ENDCHAR
STARTCHAR 015C
ENCODING 348
SWIDTH 660 0
DWIDTH 22 0
BBX 19 30 1 0
BITMAP
00E000
01F000
03B800
071C00
000000
000000
03F800
0FFE00
3FFF00
3FFF80
7E0F80
7C07C0
7C07C0
7C0000
7E0000
3F8000
3FF800
1FFE00
07FF80
00FFC0
001FC0
0007E0
F803E0
F803E0
7C07E0
7E0FE0
3FFFC0
3FFF80
0FFF00
03FC00
ENDCHAR
STARTCHAR 015D
ENCODING 349
SWIDTH 540 0
DWIDTH 18 0
BBX 16 24 1 0
BITMAP
01C0
03E0
0770
0E38
0000
0000
07F0
1FFC
3FFE
7E3F
7C0C
7C00
7F00
7FE0
3FF8
1FFE
03FE
007F
001F
381F
FC3F
7FFE
3FFC
0FF0
ENDCHAR
STARTCHAR 015E
ENCODING 350
SWIDTH 660 0
DWIDTH 22 0
BBX 19 30 1 -6
BITMAP
03F800
0FFE00
3FFF00
3FFF80
7E0F80
7C07C0
7C07C0
7C0000
7E0000
3F8000
3FF800
1FFE00
07FF80
00FFC0
001FC0
0007E0
F803E0
F803E0
7C07E0
7E0FE0
3FFFC0
3FFF80
0FFF00
03FC00
01F000
03FC00
001C00
001C00
07F800
07F000
ENDCHAR
STARTCHAR 015F
ENCODING 351
SWIDTH 540 0
DWIDTH 18 0
BBX 16 24 1 -6
BITMAP
07F0
1FFC
3FFE
7E3F
7C0C
7C00
7F00
7FE0
3FF8
1FFE
03FE
007F
001F
381F
FC3F
7FFE
3FFC
0FF0
03E0
07F8
0038
0038
0FF0
0FE0
ENDCHAR
STARTCHAR 0160
ENCODING 352
SWIDTH 660 0
DWIDTH 22 0
BBX 19 30 1 0
BITMAP
071C00
03B800
01F000
01F000
000000
000000
03F800
0FFE00
3FFF00
3FFF80
7E0F80
7C07C0
7C07C0
7C0000
7E0000
3F8000
3FF800
1FFE00
07FF80
00FFC0
001FC0
0007E0
F803E0
F803E0
7C07E0
7E0FE0
3FFFC0
3FFF80
0FFF00
03FC00
ENDCHAR
STARTCHAR 0161
ENCODING 353
SWIDTH 540 0
DWIDTH 18 0
BBX 16 24 1 0
BITMAP
0E38
0770
03E0
03E0
0000
0000
07F0
1FFC
3FFE
7E3F
7C0C
7C00
7F00
7FE0
3FF8
1FFE
03FE
007F
001F
381F
FC3F
7FFE
3FFC
0FF0
ENDCHAR
STARTCHAR 0162
ENCODING 354
SWIDTH 630 0
DWIDTH 21 0
BBX 19 35 1 -11
BITMAP
FFFFE0
FFFFE0
FFFFE0
FFFFE0
01F000
01F000
01F000
01F000
01F000
01F000
01F000
01F000
01F000
01F000
01F000
01F000
01F000
01F000
01F000
01F000
01F000
01F000
01F000
01F000
000000
000000
01F000
01F000
01F000
01F000
01F000
003000
00E000
01C000
008000
ENDCHAR
STARTCHAR 0163
ENCODING 355
SWIDTH 330 0
DWIDTH 11 0
BBX 10 34 0 -10
BITMAP
0200
0E00
1E00
3E00
3E00
3E00
FFC0
FFC0
FFC0
3E00
3E00
3E00
3E00
3E00
3E00
3E00
3E00
3E00
3E00
3E00
3E00
3FC0
1FC0
0FC0
0000
0000
0F00
0F00
0F00
0F00
0300
0600
0E00
0400
ENDCHAR
STARTCHAR 0164
ENCODING 356
SWIDTH 630 0
DWIDTH 21 0
BBX 19 30 1 0
BITMAP
071C00
03B800
01F000
01F000
000000
000000
FFFFE0
FFFFE0
FFFFE0
FFFFE0
01F000
01F000
01F000
01F000
01F000
01F000
01F000
01F000
01F000
01F000
01F000
01F000
01F000
01F000
01F000
01F000
01F000
01F000
01F000
01F000
ENDCHAR
STARTCHAR 0165
ENCODING 357
SWIDTH 480 0
DWIDTH 16 0
BBX 16 24 0 0
BITMAP
020F
0E0F
1E0F
3E0F
3E03
3E03
FFC6
FFCE
FFC4
3E00
3E00
3E00
3E00
3E00
3E00
3E00
3E00
3E00
3E00
3E00
3E00
3FC0
1FC0
0FC0
ENDCHAR
STARTCHAR 0166
ENCODING 358
SWIDTH 630 0
DWIDTH 21 0
BBX 19 24 1 0
BITMAP
FFFFE0
FFFFE0
FFFFE0
FFFFE0
01F000
01F000
01F000
01F000
01F000
01F000
01F000
01F000
3FFF80
3FFF80
3FFF80
01F000
01F000
01F000
01F000
01F000
01F000
01F000
01F000
01F000
ENDCHAR
STARTCHAR 0167
ENCODING 359
SWIDTH 330 0
DWIDTH 11 0
BBX 10 24 0 0
BITMAP
0200
0E00
1E00
3E00
3E00
3E00
FFC0
FFC0
FFC0
3E00
3E00
3E00
3E00
FFC0
FFC0
FFC0
3E00
3E00
3E00
3E00
3E00
3FC0
1FC0
0FC0
ENDCHAR
STARTCHAR 0168
ENCODING 360
SWIDTH 690 0
DWIDTH 23 0
BBX 19 30 2 0
BITMAP
078600
0FFE00
0FFE00
0C3C00
000000
000000
F803E0
F803E0
F803E0
F803E0
F803E0
F803E0
F803E0
F803E0
F803E0
F803E0
F803E0
F803E0
F803E0
F803E0
F803E0
F803E0
F803E0
F803E0
FC07E0
7E0FC0
7FFFC0
3FFF80
1FFF00
07FC00
ENDCHAR
STARTCHAR 0169
ENCODING 361
SWIDTH 600 0
DWIDTH 20 0
BBX 17 24 2 0
BITMAP
0F0C00
1FFC00
1FFC00
187800
000000
000000
F80F80
F80F80
F80F80
F80F80
F80F80
F80F80
F80F80
F80F80
F80F80
F80F80
F80F80
F80F80
F80F80
F81F80
FC3F80
7FFF80
3FF780
0FC780
ENDCHAR
STARTCHAR 016A
ENCODING 362
SWIDTH 690 0
DWIDTH 23 0
BBX 19 29 2 0
BITMAP
07FE00
07FE00
07FE00
000000
000000
F803E0
F803E0
F803E0
F803E0
F803E0
F803E0
F803E0
F803E0
F803E0
F803E0
F803E0
F803E0
F803E0
F803E0
F803E0
F803E0
F803E0
F803E0
FC07E0
7E0FC0
7FFFC0
3FFF80
1FFF00
07FC00
ENDCHAR
STARTCHAR 016B
ENCODING 363
SWIDTH 600 0
DWIDTH 20 0
BBX 17 23 2 0
BITMAP
0FFC00
0FFC00
0FFC00
000000
000000
F80F80
F80F80
F80F80
F80F80
F80F80
F80F80
F80F80
F80F80
F80F80
F80F80
F80F80
F80F80
F80F80
F81F80
FC3F80
7FFF80
3FF780
0FC780
ENDCHAR
STARTCHAR 016C
ENCODING 364
SWIDTH 690 0
DWIDTH 23 0
BBX 19 30 2 0
BITMAP
060600
070E00
03FC00
01F800
000000
000000
F803E0
F803E0
F803E0
F803E0
F803E0
F803E0
F803E0
F803E0
F803E0
F803E0
F803E0
F803E0
F803E0
F803E0
F803E0
F803E0
F803E0
F803E0
FC07E0
7E0FC0
7FFFC0
3FFF80
1FFF00
07FC00
ENDCHAR
STARTCHAR 016D
ENCODING 365
SWIDTH 600 0
DWIDTH 20 0
BBX 17 24 2 0
BITMAP
0C0C00
0E1C00
07F800
03F000
000000
000000
F80F80
F80F80
F80F80
F80F80
F80F80
F80F80
F80F80
F80F80
F80F80
F80F80
F80F80
F80F80
F80F80
F81F80
FC3F80
7FFF80
3FF780
0FC780
ENDCHAR
STARTCHAR 016E
ENCODING 366
SWIDTH 690 0
DWIDTH 23 0
BBX 19 31 2 0
BITMAP
00F000
01F800
019800
019800
01F800
00F000
000000
F803E0
F803E0
F803E0
F803E0
F803E0
F803E0
F803E0
F803E0
F803E0
F803E0
F803E0
F803E0
F803E0
F803E0
F803E0
F803E0
F803E0
F803E0
FC07E0
7E0FC0
7FFFC0
3FFF80
1FFF00
07FC00
ENDCHAR
STARTCHAR 016F
ENCODING 367
SWIDTH 600 0
DWIDTH 20 0
BBX 17 26 2 0
BITMAP
01E000
03F000
033000
033000
03F000
01E000
000000
000000
F80F80
F80F80
F80F80
F80F80
F80F80
F80F80
F80F80
F80F80
F80F80
F80F80
F80F80
F80F80
F80F80
F81F80
FC3F80
7FFF80
3FF780
0FC780
ENDCHAR
STARTCHAR 0170
ENCODING 368
SWIDTH 690 0
DWIDTH 23 0
BBX 19 31 2 0
BITMAP
03EF80
03CF00
079E00
071C00
0E3800
000000
000000
F803E0
F803E0
F803E0
F803E0
F803E0
F803E0
F803E0
F803E0
F803E0
F803E0
F803E0
F803E0
F803E0
F803E0
F803E0
F803E0
F803E0
F803E0
FC07E0
7E0FC0
7FFFC0
3FFF80
1FFF00
07FC00
ENDCHAR
STARTCHAR 0171
ENCODING 369
SWIDTH 600 0
DWIDTH 20 0
BBX 17 25 2 0
BITMAP
07DF00
079E00
0F3C00
0E3800
1C7000
000000
000000
F80F80
F80F80
F80F80
F80F80
F80F80
F80F80
F80F80
F80F80
F80F80
F80F80
F80F80
F80F80
F80F80
F81F80
FC3F80
7FFF80
3FF780
0FC780
ENDCHAR
STARTCHAR 0172
ENCODING 370
SWIDTH 690 0
DWIDTH 23 0
BBX 19 31 2 -7
BITMAP
F803E0
F803E0
F803E0
F803E0
F803E0
F803E0
F803E0
F803E0
F803E0
F803E0
F803E0
F803E0
F803E0
F803E0
F803E0
F803E0
F803E0
F803E0
FC07E0
7E0FC0
7FFFC0
3FFF80
1FFF00
07FC00
01C000
01C000
01C000
01C000
01E000
00FC00
007C00
ENDCHAR
STARTCHAR 0173
ENCODING 371
SWIDTH 600 0
DWIDTH 20 0
BBX 19 25 2 -7
BITMAP
F80F80
F80F80
F80F80
F80F80
F80F80
F80F80
F80F80
F80F80
F80F80
F80F80
F80F80
F80F80
F80F80
F81F80
FC3F80
7FFF80
3FF780
0FC780
000600
000E00
000E00
000E00
000F00
0007E0
0003E0
ENDCHAR
STARTCHAR 0174
ENCODING 372
SWIDTH 930 0
DWIDTH 31 0
BBX 31 30 0 0
BITMAP
00038000
0007C000
000EE000
001C7000
00000000
00000000
F807C03E
F807C03E
7C0FE07E
7C0FE07C
7C0FE07C
7C0EE07C
7C1EF07C
3C1EF07C
3E1EF0F8
3E1C70F8
3E3C78F8
3E3C78F8
1E3C78F0
1F3839F0
1F7839F0
1F783DF0
1F783DF0
0F701DE0
0FF01DE0
0FF01FE0
0FF01FE0
0FE00FE0
07E00FC0
07E00FC0
ENDCHAR
STARTCHAR 0175
ENCODING 373
SWIDTH 750 0
DWIDTH 25 0
BBX 25 24 0 0
BITMAP
001C0000
003E0000
00770000
00E38000
00000000
00000000
F01C0780
F81C0F80
783E0F00
783E0F00
783E0F00
3C761E00
3C771E00
3C771E00
1C771C00
1EE3BC00
1EE3BC00
0EE3B800
0EE3B800
0FC1F800
07C1F000
07C1F000
0780F000
0380E000
ENDCHAR
STARTCHAR 0176
ENCODING 374
SWIDTH 690 0
DWIDTH 23 0
BBX 21 30 1 0
BITMAP
007000
00F800
01DC00
038E00
000000
000000
F801F8
FC01F8
7E03F0
3E03E0
3F07E0
1F07C0
1F8FC0
0F8F80
07DF00
07FF00
03FE00
01FE00
01FC00
00F800
00F800
00F800
00F800
00F800
00F800
00F800
00F800
00F800
00F800
00F800
ENDCHAR
STARTCHAR 0177
ENCODING 375
SWIDTH 570 0
DWIDTH 19 0
BBX 17 31 1 -7
BITMAP
01C000
03E000
077000
0E3800
000000
000000
F80F80
F80F80
780F00
7C1F00
7C1F00
3C1E00
3E3E00
3E3E00
1E3C00
1E3C00
0F7C00
0F7800
0F7800
077800
07F000
07F000
03F000
03E000
03E000
03C000
07C000
0FC000
7F8000
7F0000
7E0000
ENDCHAR
STARTCHAR 0178
ENCODING 376
SWIDTH 690 0
DWIDTH 23 0
BBX 21 29 1 0
BITMAP
070700
070700
070700
000000
000000
F801F8
FC01F8
7E03F0
3E03E0
3F07E0
1F07C0
1F8FC0
0F8F80
07DF00
07FF00
03FE00
01FE00
01FC00
00F800
00F800
00F800
00F800
00F800
00F800
00F800
00F800
00F800
00F800
00F800
ENDCHAR
STARTCHAR 0179
ENCODING 377
SWIDTH 660 0
DWIDTH 22 0
BBX 19 31 1 0
BITMAP
007C00
007800
00F000
00E000
01C000
000000
000000
7FFFE0
7FFFE0
7FFFE0
7FFFE0
0007C0
000F80
001F00
003F00
003E00
007C00
00F800
01F800
03F000
03E000
07C000
0FC000
1F8000
1F0000
3E0000
7E0000
FFFFE0
FFFFE0
FFFFE0
FFFFE0
ENDCHAR
STARTCHAR 017A
ENCODING 378
SWIDTH 510 0
DWIDTH 17 0
BBX 15 25 1 0
BITMAP
01F0
01E0
03C0
0380
0700
0000
0000
7FFC
7FFC
7FFC
007C
00F8
01F0
03E0
03E0
07C0
0F80
1F00
1F00
3E00
7C00
F800
FFFE
FFFE
FFFE
ENDCHAR
STARTCHAR 017B
ENCODING 379
SWIDTH 660 0
DWIDTH 22 0
BBX 19 31 1 0
BITMAP
01F000
01F000
01F000
01F000
01F000
000000
000000
7FFFE0
7FFFE0
7FFFE0
7FFFE0
0007C0
000F80
001F00
003F00
003E00
007C00
00F800
01F800
03F000
03E000
07C000
0FC000
1F8000
1F0000
3E0000
7E0000
FFFFE0
FFFFE0
FFFFE0
FFFFE0
ENDCHAR
STARTCHAR 017C
ENCODING 380
SWIDTH 510 0
DWIDTH 17 0
BBX 15 25 1 0
BITMAP
07C0
07C0
07C0
07C0
07C0
0000
0000
7FFC
7FFC
7FFC
007C
00F8
01F0
03E0
03E0
07C0
0F80
1F00
1F00
3E00
7C00
F800
FFFE
FFFE
FFFE
ENDCHAR
STARTCHAR 017D
ENCODING 381
SWIDTH 660 0
DWIDTH 22 0
BBX 19 30 1 0
BITMAP
038E00
01DC00
00F800
00F800
000000
000000
7FFFE0
7FFFE0
7FFFE0
7FFFE0
0007C0
000F80
001F00
003F00
003E00
007C00
00F800
01F800
03F000
03E000
07C000
0FC000
1F8000
1F0000
3E0000
7E0000
FFFFE0
FFFFE0
FFFFE0
FFFFE0
ENDCHAR
STARTCHAR 017E
ENCODING 382
SWIDTH 510 0
DWIDTH 17 0
BBX 15 24 1 0
BITMAP
1C70
0EE0
07C0
07C0
0000
0000
7FFC
7FFC
7FFC
007C
00F8
01F0
03E0
03E0
07C0
0F80
1F00
1F00
3E00
7C00
F800
FFFE
FFFE
FFFE
ENDCHAR
STARTCHAR 017F
ENCODING 383
SWIDTH 270 0
DWIDTH 9 0
BBX 9 24 2 0
BITMAP
1F80
7F80
FF80
F800
F800
F800
F800
F800
F800
F800
F800
F800
F800
F800
F800
F800
F800
F800
F800
F800
F800
F800
F800
F800
ENDCHAR
STARTCHAR 018F
ENCODING 399
SWIDTH 720 0
DWIDTH 24 0
BBX 22 24 1 0
BITMAP
01FC00
07FF80
1FFFC0
1FFFE0
3F83F0
7E01F8
7E00F8
0C00F8
00007C
00007C
FFFFFC
FFFFFC
FFFFFC
FFFFFC
F8007C
F8007C
7C00F8
7C00F8
7E01F8
3F87F0
1FFFE0
0FFFC0
07FF80
01FE00
ENDCHAR
STARTCHAR 0192
ENCODING 402
SWIDTH 540 0
DWIDTH 18 0
BBX 18 31 0 -7
BITMAP
001F80
003FC0
007FC0
007F80
007C80
00FC00
00F800
03FF00
03FF00
07FE00
07FE00
00F800
01F000
01F000
01F000
01F000
01F000
01F000
03E000
03E000
03E000
03E000
03E000
03E000
07C000
07C000
47C000
7FC000
FFC000
FF8000
7F0000
ENDCHAR
STARTCHAR 01A0
ENCODING 416
SWIDTH 840 0
DWIDTH 28 0
BBX 27 24 1 0
BITMAP
00FE03E0
07FFC3E0
0FFFE3E0
1FFFF3E0
3F83FBE0
7E00FC60
7C007C60
7C007CC0
F8003F80
F8003F00
F8003E00
F8003E00
F8003E00
F8003E00
F8003E00
F8007E00
7C007C00
7C007C00
7E00FC00
3F83F800
1FFFF000
0FFFE000
07FFC000
00FE0000
ENDCHAR
STARTCHAR 01A1
ENCODING 417
SWIDTH 690 0
DWIDTH 23 0
BBX 21 18 2 0
BITMAP
03F078
0FFC78
3FFE78
3E3F78
7C1F78
7C1F98
F80F98
F80FB0
F80FE0
F80FC0
F80F80
F80F80
7C1F00
7C1F00
7E3E00
3FFC00
1FF800
03E000
ENDCHAR
STARTCHAR 01AF
ENCODING 431
SWIDTH 810 0
DWIDTH 27 0
BBX 26 24 1 0
BITMAP
F803E7C0
F803E7C0
F803E7C0
F803E7C0
F803E7C0
F803E0C0
F803E0C0
F803E180
F803E780
F803FF00
F803F800
F803E000
F803E000
F803E000
F803E000
F803E000
F803E000
F803E000
FC07E000
7E0FC000
7FFFC000
3FFF8000
1FFF0000
03FC0000
ENDCHAR
STARTCHAR 01B0
ENCODING 432
SWIDTH 720 0
DWIDTH 24 0
BBX 22 18 2 0
BITMAP
F81F3C
F81F3C
F81F3C
F81F3C
F81F3C
F81F0C
F81F0C
F81F18
F81F38
F81FF0
F81FC0
F81F00
F81F00
F83F00
FC7F00
7FFF00
7FDF00
1F1F00
ENDCHAR
STARTCHAR 01CD
ENCODING 461
SWIDTH 690 0
DWIDTH 23 0
BBX 23 30 0 0
BITMAP
01C700
00EE00
007C00
007C00
000000
000000
00FE00
00FE00
01FF00
01FF00
01EF00
03EF80
03EF80
03C780
07C7C0
07C7C0
07C3C0
0F83E0
0F83E0
0F83E0
1F01F0
1FFFF0
1FFFF0
3FFFF8
3FFFF8
3E00F8
7C007C
7C007C
FC007C
F8003E
ENDCHAR
STARTCHAR 01CE
ENCODING 462
SWIDTH 540 0
DWIDTH 18 0
BBX 16 24 1 0
BITMAP
0E38
0770
03E0
03E0
0000
0000
0FF0
1FF8
3FFC
787E
303E
003E
007E
0FFE
3FFE
7FBE
FC3E
F83E
F83E
F87E
FCFE
7FFE
7FDE
1F1F
ENDCHAR
STARTCHAR 01CF
ENCODING 463
SWIDTH 270 0
DWIDTH 9 0
BBX 9 30 0 0
BITMAP
E380
7700
3E00
3E00
0000
0000
3E00
3E00
3E00
3E00
3E00
3E00
3E00
3E00
3E00
3E00
3E00
3E00
3E00
3E00
3E00
3E00
3E00
3E00
3E00
3E00
3E00
3E00
3E00
3E00
ENDCHAR
STARTCHAR 01D0
ENCODING 464
SWIDTH 270 0
DWIDTH 9 0
BBX 9 24 0 0
BITMAP
E380
7700
3E00
3E00
0000
0000
3E00
3E00
3E00
3E00
3E00
3E00
3E00
3E00
3E00
3E00
3E00
3E00
3E00
3E00
3E00
3E00
3E00
3E00
ENDCHAR
STARTCHAR 01D1
ENCODING 465
SWIDTH 750 0
DWIDTH 25 0
BBX 23 30 1 0
BITMAP
01C700
00EE00
007C00
007C00
000000
000000
00FE00
07FFC0
0FFFE0
1FFFF0
3F83F8
7E00FC
7C007C
7C007C
F8003E
F8003E
F8003E
F8003E
F8003E
F8003E
F8003E
F8003E
7C007C
7C007C
7E00FC
3F83F8
1FFFF0
0FFFE0
07FFC0
00FE00
ENDCHAR
STARTCHAR 01D2
ENCODING 466
SWIDTH 600 0
DWIDTH 20 0
BBX 17 24 2 0
BITMAP
0E3800
077000
03E000
03E000
000000
000000
03E000
1FF800
3FFE00
3E3E00
7C1F00
7C1F00
F80F80
F80F80
F80F80
F80F80
F80F80
F80F80
7C1F80
7C1F00
7E3F00
3FFE00
1FFC00
03F000
ENDCHAR
STARTCHAR 01D3
ENCODING 467
SWIDTH 690 0
DWIDTH 23 0
BBX 19 30 2 0
BITMAP
071C00
03B800
01F000
01F000
000000
000000
F803E0
F803E0
F803E0
F803E0
F803E0
F803E0
F803E0
F803E0
F803E0
F803E0
F803E0
F803E0
F803E0
F803E0
F803E0
F803E0
F803E0
F803E0
FC07E0
7E0FC0
7FFFC0
3FFF80
1FFF00
07FC00
ENDCHAR
STARTCHAR 01D4
ENCODING 468
SWIDTH 600 0
DWIDTH 20 0
BBX 17 24 2 0
BITMAP
0E3800
077000
03E000
03E000
000000
000000
F80F80
F80F80
F80F80
F80F80
F80F80
F80F80
F80F80
F80F80
F80F80
F80F80
F80F80
F80F80
F80F80
F81F80
FC3F80
7FFF80
3FF780
0FC780
ENDCHAR
STARTCHAR 01D5
ENCODING 469
SWIDTH 690 0
DWIDTH 23 0
BBX 19 30 2 0
BITMAP
03FC00
03FC00
000000
030C00
030C00
000000
F803E0
F803E0
F803E0
F803E0
F803E0
F803E0
F803E0
F803E0
F803E0
F803E0
F803E0
F803E0
F803E0
F803E0
F803E0
F803E0
F803E0
F803E0
FC07E0
7E0FC0
7FFFC0
3FFF80
1FFF00
07FC00
ENDCHAR
STARTCHAR 01D6
ENCODING 470
SWIDTH 600 0
DWIDTH 20 0
BBX 17 31 2 0
BITMAP
0FFC00
0FFC00
0FFC00
000000
000000
000000
000000
000000
1C1C00
1C1C00
1C1C00
000000
000000
F80F80
F80F80
F80F80
F80F80
F80F80
F80F80
F80F80
F80F80
F80F80
F80F80
F80F80
F80F80
F80F80
F81F80
FC3F80
7FFF80
3FF780
0FC780
ENDCHAR
STARTCHAR 01D7
ENCODING 471
SWIDTH 690 0
DWIDTH 23 0
BBX 19 30 2 0
BITMAP
003800
007000
00E000
030C00
030C00
000000
F803E0
F803E0
F803E0
F803E0
F803E0
F803E0
F803E0
F803E0
F803E0
F803E0
F803E0
F803E0
F803E0
F803E0
F803E0
F803E0
F803E0
F803E0
FC07E0
7E0FC0
7FFFC0
3FFF80
1FFF00
07FC00
ENDCHAR
STARTCHAR 01D8
ENCODING 472
SWIDTH 600 0
DWIDTH 20 0
BBX 17 30 2 0
BITMAP
00F800
00F000
01E000
01C000
038000
000000
000000
1C1C00
1C1C00
1C1C00
000000
000000
F80F80
F80F80
F80F80
F80F80
F80F80
F80F80
F80F80
F80F80
F80F80
F80F80
F80F80
F80F80
F80F80
F81F80
FC3F80
7FFF80
3FF780
0FC780
ENDCHAR
STARTCHAR 01D9
ENCODING 473
SWIDTH 690 0
DWIDTH 23 0
BBX 19 30 2 0
BITMAP
039C00
01F800
00F000
030C00
030C00
000000
F803E0
F803E0
F803E0
F803E0
F803E0
F803E0
F803E0
F803E0
F803E0
F803E0
F803E0
F803E0
F803E0
F803E0
F803E0
F803E0
F803E0
F803E0
FC07E0
7E0FC0
7FFFC0
3FFF80
1FFF00
07FC00
ENDCHAR
STARTCHAR 01DA
ENCODING 474
SWIDTH 600 0
DWIDTH 20 0
BBX 17 30 2 0
BITMAP
0E3800
077000
03E000
03E000
000000
000000
000000
1C1C00
1C1C00
1C1C00
000000
000000
F80F80
F80F80
F80F80
F80F80
F80F80
F80F80
F80F80
F80F80
F80F80
F80F80
F80F80
F80F80
F80F80
F81F80
FC3F80
7FFF80
3FF780
0FC780
ENDCHAR
STARTCHAR 01DB
ENCODING 475
SWIDTH 690 0
DWIDTH 23 0
BBX 19 30 2 0
BITMAP
01C000
00E000
007000
030C00
030C00
000000
F803E0
F803E0
F803E0
F803E0
F803E0
F803E0
F803E0
F803E0
F803E0
F803E0
F803E0
F803E0
F803E0
F803E0
F803E0
F803E0
F803E0
F803E0
FC07E0
7E0FC0
7FFFC0
3FFF80
1FFF00
07FC00
ENDCHAR
STARTCHAR 01DC
ENCODING 476
SWIDTH 600 0
DWIDTH 20 0
BBX 17 30 2 0
BITMAP
0F8000
078000
03C000
01C000
00E000
000000
000000
1C1C00
1C1C00
1C1C00
000000
000000
F80F80
F80F80
F80F80
F80F80
F80F80
F80F80
F80F80
F80F80
F80F80
F80F80
F80F80
F80F80
F80F80
F81F80
FC3F80
7FFF80
3FF780
0FC780
ENDCHAR
STARTCHAR 01FA
ENCODING 506
SWIDTH 690 0
DWIDTH 23 0
BBX 23 33 0 0
BITMAP
001F00
001E00
003C00
003800
007000
003C00
007E00
006600
006600
00FE00
00FE00
01FF00
01FF00
01EF00
03EF80
03EF80
03C780
07C7C0
07C7C0
07C3C0
0F83E0
0F83E0
0F83E0
1F01F0
1FFFF0
1FFFF0
3FFFF8
3FFFF8
3E00F8
7C007C
7C007C
FC007C
F8003E
ENDCHAR
STARTCHAR 01FB
ENCODING 507
SWIDTH 540 0
DWIDTH 18 0
BBX 16 31 1 0
BITMAP
00F8
00F0
01E0
01C0
0380
0000
03C0
07E0
0660
0660
07E0
03C0
0000
0FF0
1FF8
3FFC
787E
303E
003E
007E
0FFE
3FFE
7FBE
FC3E
F83E
F83E
F87E
FCFE
7FFE
7FDE
1F1F
ENDCHAR
STARTCHAR 01FC
ENCODING 508
SWIDTH 1050 0
DWIDTH 35 0
BBX 33 31 -1 0
BITMAP
00007C0000
0000780000
0000F00000
0000E00000
0001C00000
0000000000
0000000000
001FFFFF80
003FFFFF80
003FFFFF80
007EFFFF80
007CF80000
00FCF80000
00F8F80000
00F8F80000
01F8F80000
01F0FFFF00
03F0FFFF00
03E0FFFF00
07E0FFFF00
07C0F80000
0FFFF80000
0FFFF80000
1FFFF80000
1FFFF80000
1F00F80000
3E00F80000
3E00FFFF80
7E00FFFF80
7C00FFFF80
FC00FFFF80
ENDCHAR
STARTCHAR 01FD
ENCODING 509
SWIDTH 870 0
DWIDTH 29 0
BBX 25 25 2 0
BITMAP
000F8000
000F0000
001E0000
001C0000
00380000
00000000
00000000
07F1F000
1FFFFC00
3FFFFE00
787F1F00
303F0F00
003E0F80
00FE0F80
0FFFFF80
3FFFFF80
7FBFFF80
FC3E0000
F83E0000
F83E0000
F87F0E00
FC7F1F80
7FFFFF00
7FE7FE00
1F81F800
ENDCHAR
STARTCHAR 01FE
ENCODING 510
SWIDTH 780 0
DWIDTH 26 0
BBX 24 32 1 -1
BITMAP
001F00
001E00
003C00
003800
007000
000000
000004
00FF06
03FFCF
07FFFE
0FFFFC
1FC3F8
3F00FC
3E01FC
3E03FC
7C07BE
7C0F3E
7C1E3E
7C1C3E
7C383E
7C783E
7CF03E
7DE03E
7FC07C
3F807C
3F00FC
3FC3F8
3FFFF0
7FFFE0
F7FFC0
60FE00
200000
ENDCHAR
STARTCHAR 01FF
ENCODING 511
SWIDTH 600 0
DWIDTH 20 0
BBX 17 26 2 -1
BITMAP
00F800
00F000
01E000
01C000
038000
000000
000200
07E300
1FFF80
3FFF00
3E3E00
7C3F00
783F00
F87F80
F8FF80
F9EF80
FBCF80
FF8F80
FF0F80
7E1F00
7E1F00
7E3E00
7FFE00
FFF800
6FE000
200000
ENDCHAR
STARTCHAR 0259
ENCODING 601
SWIDTH 540 0
DWIDTH 18 0
BBX 16 18 1 0
BITMAP
0FE0
1FF8
7FFC
7C7E
F83E
381F
001F
001F
FFFF
FFFF
FFFF
F81F
F81E
7C3E
7C7E
3FFC
1FF8
07E0
ENDCHAR
STARTCHAR 02C6
ENCODING 710
SWIDTH 330 0
DWIDTH 11 0
BBX 9 4 1 20
BITMAP
1C00
3E00
7700
E380
ENDCHAR
STARTCHAR 02C7
ENCODING 711
SWIDTH 330 0
DWIDTH 11 0
BBX 9 4 1 20
BITMAP
E380
7700
3E00
3E00
ENDCHAR
STARTCHAR 02C9
ENCODING 713
SWIDTH 330 0
DWIDTH 11 0
BBX 10 3 0 21
BITMAP
FFC0
FFC0
FFC0
ENDCHAR
STARTCHAR 02D8
ENCODING 728
SWIDTH 330 0
DWIDTH 11 0
BBX 10 4 0 20
BITMAP
C0C0
E1C0
7F80
3F00
ENDCHAR
STARTCHAR 02D9
ENCODING 729
SWIDTH 330 0
DWIDTH 11 0
BBX 5 5 3 19
BITMAP
F8
F8
F8
F8
F8
ENDCHAR
STARTCHAR 02DA
ENCODING 730
SWIDTH 330 0
DWIDTH 11 0
BBX 6 6 2 18
BITMAP
78
FC
CC
CC
FC
78
ENDCHAR
STARTCHAR 02DB
ENCODING 731
SWIDTH 330 0
DWIDTH 11 0
BBX 8 7 2 -7
BITMAP
E0
E0
E0
E0
F0
7F
3F
ENDCHAR
STARTCHAR 02DC
ENCODING 732
SWIDTH 330 0
DWIDTH 11 0
BBX 11 4 0 20
BITMAP
7860
FFE0
FFE0
C3C0
ENDCHAR
STARTCHAR 02DD
ENCODING 733
SWIDTH 330 0
DWIDTH 11 0
BBX 13 5 2 19
BITMAP
3EF8
3CF0
79E0
71C0
E380
ENDCHAR
STARTCHAR 0300
ENCODING 768
SWIDTH 0 0
DWIDTH 0 0
BBX 7 5 -9 26
BITMAP
F8
78
3C
1C
0E
ENDCHAR
STARTCHAR 0301
ENCODING 769
SWIDTH 0 0
DWIDTH 0 0
BBX 7 5 -7 26
BITMAP
3E
3C
78
70
E0
ENDCHAR
STARTCHAR 0303
ENCODING 771
SWIDTH 0 0
DWIDTH 0 0
BBX 11 4 -15 26
BITMAP
3860
7E60
CFC0
C380
ENDCHAR
STARTCHAR 0309
ENCODING 777
SWIDTH 0 0
DWIDTH 0 0
BBX 7 5 -7 25
BITMAP
F8
FE
0E
3C
30
ENDCHAR
STARTCHAR 0323
ENCODING 803
SWIDTH 0 0
DWIDTH 0 0
BBX 5 5 -16 -7
BITMAP
F8
F8
F8
F8
F8
ENDCHAR
STARTCHAR 037E
ENCODING 894
SWIDTH 330 0
DWIDTH 11 0
BBX 5 23 3 -5
BITMAP
F8
F8
F8
F8
F8
00
00
00
00
00
00
00
00
F8
F8
F8
F8
F8
18
18
70
E0
40
ENDCHAR
STARTCHAR 0384
ENCODING 900
SWIDTH 330 0
DWIDTH 11 0
BBX 7 5 2 19
BITMAP
3E
3C
78
70
E0
ENDCHAR
STARTCHAR 0385
ENCODING 901
SWIDTH 450 0
DWIDTH 15 0
BBX 14 5 0 19
BITMAP
03E0
07C0
E79C
E71C
EF1C
ENDCHAR
STARTCHAR 0386
ENCODING 902
SWIDTH 690 0
DWIDTH 23 0
BBX 24 24 -1 0
BITMAP
3F7F00
3E7F00
7CFF80
F0FF80
00F780
01F7C0
01F7C0
01E3C0
03E3E0
03E3E0
03E1E0
07C1F0
07C1F0
07C1F0
0F80F8
0FFFF8
0FFFF8
1FFFFC
1FFFFC
1F007C
3E003E
3E003E
7E003E
7C001F
ENDCHAR
STARTCHAR 0387
ENCODING 903
SWIDTH 330 0
DWIDTH 11 0
BBX 5 5 3 13
BITMAP
F8
F8
F8
F8
F8
ENDCHAR
STARTCHAR 0388
ENCODING 904
SWIDTH 840 0
DWIDTH 28 0
BBX 27 24 -1 0
BITMAP
3F3FFFE0
3E3FFFE0
7C3FFFE0
F03FFFE0
003E0000
003E0000
003E0000
003E0000
003E0000
003FFFC0
003FFFC0
003FFFC0
003FFFC0
003E0000
003E0000
003E0000
003E0000
003E0000
003E0000
003E0000
003FFFE0
003FFFE0
003FFFE0
003FFFE0
ENDCHAR
STARTCHAR 0389
ENCODING 905
SWIDTH 900 0
DWIDTH 30 0
BBX 29 24 -1 0
BITMAP
3F3E00F8
3E3E00F8
7C3E00F8
F03E00F8
003E00F8
003E00F8
003E00F8
003E00F8
003E00F8
003FFFF8
003FFFF8
003FFFF8
003FFFF8
003E00F8
003E00F8
003E00F8
003E00F8
003E00F8
003E00F8
003E00F8
003E00F8
003E00F8
003E00F8
003E00F8
ENDCHAR
STARTCHAR 038A
ENCODING 906
SWIDTH 480 0
DWIDTH 16 0
BBX 15 24 -1 0
BITMAP
3F3E
3E3E
7C3E
F03E
003E
003E
003E
003E
003E
003E
003E
003E
003E
003E
003E
003E
003E
003E
003E
003E
003E
003E
003E
003E
ENDCHAR
STARTCHAR 038C
ENCODING 908
SWIDTH 810 0
DWIDTH 27 0
BBX 27 24 -1 0
BITMAP
3F0FE000
3E7FFC00
7CFFFE00
F1FFFF00
03F83F80
07E00F80
07C007C0
07C007C0
0F8003E0
0F8003E0
0F8003E0
0F8003E0
0F8003E0
0F8003E0
0F8003E0
0F8003E0
07C007C0
07C007C0
07E00FC0
03F83F80
01FFFF00
00FFFE00
007FFC00
000FF000
ENDCHAR
STARTCHAR 038E
ENCODING 910
SWIDTH 930 0
DWIDTH 31 0
BBX 31 24 -1 0
BITMAP
3F3E007E
3E3F007E
7C1F80FC
F00F80F8
000FC1F8
0007C1F0
0007E3F0
0003E3E0
0001F7C0
0001FFC0
0000FF80
00007F80
00007F00
00003E00
00003E00
00003E00
00003E00
00003E00
00003E00
00003E00
00003E00
00003E00
00003E00
00003E00
ENDCHAR
STARTCHAR 038F
ENCODING 911
SWIDTH 840 0
DWIDTH 28 0
BBX 28 24 -1 0
BITMAP
3F0FF000
3E7FFE00
7CFFFF00
F1FFFF80
03F81FC0
07F00FE0
07E007E0
0FC003F0
0FC003F0
0F8001F0
0F8001F0
0F8001F0
0F8001F0
0F8001F0
078001E0
07C003E0
03C003C0
03E007C0
01F00F80
00F81F00
0FFC3FF0
0FFC3FF0
0FFC3FF0
0FFC3FF0
ENDCHAR
STARTCHAR 0390
ENCODING 912
SWIDTH 270 0
DWIDTH 9 0
BBX 14 25 -2 0
BITMAP
03E0
07C0
E79C
E71C
EF1C
0000
0000
0F80
0F80
0F80
0F80
0F80
0F80
0F80
0F80
0F80
0F80
0F80
0F80
0F80
0F80
0F80
0F80
0F80
0F80
ENDCHAR
STARTCHAR 0391
ENCODING 913
SWIDTH 690 0
DWIDTH 23 0
BBX 23 24 0 0
BITMAP
00FE00
00FE00
01FF00
01FF00
01EF00
03EF80
03EF80
03C780
07C7C0
07C7C0
07C3C0
0F83E0
0F83E0
0F83E0
1F01F0
1FFFF0
1FFFF0
3FFFF8
3FFFF8
3E00F8
7C007C
7C007C
FC007C
F8003E
ENDCHAR
STARTCHAR 0392
ENCODING 914
SWIDTH 690 0
DWIDTH 23 0
BBX 20 24 2 0
BITMAP
FFFE00
FFFF80
FFFFC0
FFFFC0
F807E0
F803E0
F803E0
F803E0
F803E0
F807C0
FFFF80
FFFF00
FFFF80
FFFFE0
F807E0
F801F0
F801F0
F801F0
F801F0
F803F0
FFFFE0
FFFFE0
FFFFC0
FFFF00
ENDCHAR
STARTCHAR 0393
ENCODING 915
SWIDTH 600 0
DWIDTH 20 0
BBX 17 24 2 0
BITMAP
FFFF80
FFFF80
FFFF80
FFFF80
F80000
F80000
F80000
F80000
F80000
F80000
F80000
F80000
F80000
F80000
F80000
F80000
F80000
F80000
F80000
F80000
F80000
F80000
F80000
F80000
ENDCHAR
STARTCHAR 0394
ENCODING 916
SWIDTH 720 0
DWIDTH 24 0
BBX 24 24 0 0
BITMAP
007E00
007E00
007E00
00FF00
00FF00
01FF80
01FF80
01EF80
03E7C0
03E7C0
07C3E0
07C3E0
07C3E0
0F81F0
0F81F0
1F81F8
1F00F8
1F00F8
3E007C
3E007C
7FFFFE
7FFFFE
7FFFFE
FFFFFF
ENDCHAR
STARTCHAR 0395
ENCODING 917
SWIDTH 660 0
DWIDTH 22 0
BBX 18 24 2 0
BITMAP
FFFFC0
FFFFC0
FFFFC0
FFFFC0
F80000
F80000
F80000
F80000
F80000
FFFF80
FFFF80
FFFF80
FFFF80
F80000
F80000
F80000
F80000
F80000
F80000
F80000
FFFFC0
FFFFC0
FFFFC0
FFFFC0
ENDCHAR
STARTCHAR 0396
ENCODING 918
SWIDTH 660 0
DWIDTH 22 0
BBX 19 24 1 0
BITMAP
7FFFE0
7FFFE0
7FFFE0
7FFFE0
0007C0
000F80
001F00
003F00
003E00
007C00
00F800
01F800
03F000
03E000
07C000
0FC000
1F8000
1F0000
3E0000
7E0000
FFFFE0
FFFFE0
FFFFE0
FFFFE0
ENDCHAR
STARTCHAR 0397
ENCODING 919
SWIDTH 690 0
DWIDTH 23 0
BBX 19 24 2 0
BITMAP
F803E0
F803E0
F803E0
F803E0
F803E0
F803E0
F803E0
F803E0
F803E0
FFFFE0
FFFFE0
FFFFE0
FFFFE0
F803E0
F803E0
F803E0
F803E0
F803E0
F803E0
F803E0
F803E0
F803E0
F803E0
F803E0
ENDCHAR
STARTCHAR 0398
ENCODING 920
SWIDTH 750 0
DWIDTH 25 0
BBX 23 24 1 0
BITMAP
00FE00
07FFC0
0FFFE0
1FFFF0
3F83F8
7E00F8
7C007C
7C007C
F8003E
F8003E
F8FE3E
F8FE3E
F8FE3E
F8FE3E
F8003E
F8003E
7C007C
7C007C
7E00FC
3F83F8
1FFFF0
0FFFE0
07FFC0
00FF00
ENDCHAR
STARTCHAR 0399
ENCODING 921
SWIDTH 270 0
DWIDTH 9 0
BBX 5 24 2 0
BITMAP
F8
F8
F8
F8
F8
F8
F8
F8
F8
F8
F8
F8
F8
F8
F8
F8
F8
F8
F8
F8
F8
F8
F8
F8
ENDCHAR
STARTCHAR 039A
ENCODING 922
SWIDTH 720 0
DWIDTH 24 0
BBX 21 24 2 0
BITMAP
F803F8
F807F0
F80FE0
F81FC0
F83F80
F87F00
F87E00
F8FC00
F9F800
FBF000
FFF800
FFF800
FFFC00
FF7E00
FE3E00
FC3F00
F81F80
F80F80
F80FC0
F807E0
F803E0
F803F0
F801F8
F801F8
ENDCHAR
STARTCHAR 039B
ENCODING 923
SWIDTH 660 0
DWIDTH 22 0
BBX 21 24 0 0
BITMAP
01FC00
01FC00
03FE00
03FE00
03FE00
07DE00
07DF00
07DF00
07DF00
0F8F80
0F8F80
0F8F80
1F07C0
1F07C0
1F07C0
3F07C0
3E03E0
3E03E0
3E03E0
7E01F0
7C01F0
7C01F0
FC01F8
F800F8
ENDCHAR
STARTCHAR 039C
ENCODING 924
SWIDTH 870 0
DWIDTH 29 0
BBX 23 24 3 0
BITMAP
FE00FE
FE00FE
FE00FE
FF01FE
FF01FE
FF01DE
F701DE
F783DE
F783DE
F3839E
F3839E
F3C79E
F1C71E
F1C71E
F1EF1E
F0EF1E
F0EE1E
F0EE1E
F0FE1E
F07C1E
F07C1E
F07C1E
F0381E
F0381E
ENDCHAR
STARTCHAR 039D
ENCODING 925
SWIDTH 690 0
DWIDTH 23 0
BBX 19 24 2 0
BITMAP
FC01E0
FC01E0
FE01E0
FE01E0
FF01E0
FF01E0
FF81E0
F781E0
F7C1E0
F3C1E0
F3E1E0
F1E1E0
F1F1E0
F0F1E0
F0F9E0
F079E0
F07DE0
F03DE0
F03FE0
F01FE0
F01FE0
F00FE0
F00FE0
F007E0
ENDCHAR
STARTCHAR 039E
ENCODING 926
SWIDTH 630 0
DWIDTH 21 0
BBX 17 24 2 0
BITMAP
FFFF80
FFFF80
FFFF80
FFFF80
000000
000000
000000
000000
000000
7FFF00
7FFF00
7FFF00
7FFF00
000000
000000
000000
000000
000000
000000
000000
FFFF80
FFFF80
FFFF80
FFFF80
ENDCHAR
STARTCHAR 039F
ENCODING 927
SWIDTH 750 0
DWIDTH 25 0
BBX 23 24 1 0
BITMAP
00FE00
07FFC0
0FFFE0
1FFFF0
3F83F8
7E00FC
7C007C
7C007C
F8003E
F8003E
F8003E
F8003E
F8003E
F8003E
F8003E
F8003E
7C007C
7C007C
7E00FC
3F83F8
1FFFF0
0FFFE0
07FFC0
00FE00
ENDCHAR
STARTCHAR 03A0
ENCODING 928
SWIDTH 720 0
DWIDTH 24 0
BBX 20 24 2 0
BITMAP
FFFFF0
FFFFF0
FFFFF0
FFFFF0
F801F0
F801F0
F801F0
F801F0
F801F0
F801F0
F801F0
F801F0
F801F0
F801F0
F801F0
F801F0
F801F0
F801F0
F801F0
F801F0
F801F0
F801F0
F801F0
F801F0
ENDCHAR
STARTCHAR 03A1
ENCODING 929
SWIDTH 630 0
DWIDTH 21 0
BBX 18 24 2 0
BITMAP
FFFC00
FFFE00
FFFF00
FFFF80
F81FC0
F80FC0
F807C0
F807C0
F807C0
F80FC0
F81FC0
FFFF80
FFFF00
FFFE00
FFF800
F80000
F80000
F80000
F80000
F80000
F80000
F80000
F80000
F80000
ENDCHAR
STARTCHAR 03A3
ENCODING 931
SWIDTH 600 0
DWIDTH 20 0
BBX 18 24 1 0
BITMAP
FFFFC0
FFFFC0
FFFFC0
FFFFC0
FC0000
7E0000
3F0000
1F8000
0FC000
07E000
03F000
01F800
03F000
07E000
0FE000
0FC000
1F8000
3F0000
7E0000
FC0000
FFFFC0
FFFFC0
FFFFC0
FFFFC0
ENDCHAR
STARTCHAR 03A4
ENCODING 932
SWIDTH 630 0
DWIDTH 21 0
BBX 19 24 1 0
BITMAP
FFFFE0
FFFFE0
FFFFE0
FFFFE0
01F000
01F000
01F000
01F000
01F000
01F000
01F000
01F000
01F000
01F000
01F000
01F000
01F000
01F000
01F000
01F000
01F000
01F000
01F000
01F000
ENDCHAR
STARTCHAR 03A5
ENCODING 933
SWIDTH 690 0
DWIDTH 23 0
BBX 21 24 1 0
BITMAP
F801F8
FC01F8
7E03F0
3E03E0
3F07E0
1F07C0
1F8FC0
0F8F80
07DF00
07FF00
03FE00
01FE00
01FC00
00F800
00F800
00F800
00F800
00F800
00F800
00F800
00F800
00F800
00F800
00F800
ENDCHAR
STARTCHAR 03A6
ENCODING 934
SWIDTH 810 0
DWIDTH 27 0
BBX 25 24 1 0
BITMAP
003E0000
003E0000
01FFC000
0FFFF800
1FFFFC00
3FFFFE00
7F3E7F00
7C3E3F00
FC3E1F80
F83E0F80
F83E0F80
F83E0F80
F83E0F80
F83E0F80
FC3E1F80
7C3E3F00
7F3E7F00
3FFFFE00
1FFFFC00
0FFFF000
01FFC000
003E0000
003E0000
003E0000
ENDCHAR
STARTCHAR 03A7
ENCODING 935
SWIDTH 660 0
DWIDTH 22 0
BBX 20 24 1 0
BITMAP
7C03E0
7E07E0
3E07C0
1F0F80
1F9F80
0F9F00
0FFF00
07FE00
03FE00
03FC00
01F800
01F800
03FC00
03FC00
07FE00
07FE00
0F9F00
1F9F80
1F0F80
3F0FC0
3E07C0
7C03E0
FC03F0
F801F0
ENDCHAR
STARTCHAR 03A8
ENCODING 936
SWIDTH 810 0
DWIDTH 27 0
BBX 25 24 1 0
BITMAP
F83E0F80
F83E0F80
F83E0F80
F83E0F80
F83E0F80
F83E0F80
F83E0F80
F83E0F80
F83E0F80
F83E0F80
FC3E1F80
7C3E1F00
7E3E3F00
3FFFFE00
3FFFFE00
0FFFF800
03FFE000
003E0000
003E0000
003E0000
003E0000
003E0000
003E0000
003E0000
ENDCHAR
STARTCHAR 03A9
ENCODING 937
SWIDTH 780 0
DWIDTH 26 0
BBX 24 24 1 0
BITMAP
00FF00
07FFE0
0FFFF0
1FFFF8
3F81FC
7F00FE
7E007E
FC003F
FC003F
F8001F
F8001F
F8001F
F8001F
F8001F
78001E
7C003E
3C003C
3E007C
1F00F8
0F81F0
FFC3FF
FFC3FF
FFC3FF
FFC3FF
ENDCHAR
STARTCHAR 03AA
ENCODING 938
SWIDTH 270 0
DWIDTH 9 0
BBX 11 29 -1 0
BITMAP
E0E0
E0E0
E0E0
0000
0000
1F00
1F00
1F00
1F00
1F00
1F00
1F00
1F00
1F00
1F00
1F00
1F00
1F00
1F00
1F00
1F00
1F00
1F00
1F00
1F00
1F00
1F00
1F00
1F00
ENDCHAR
STARTCHAR 03AB
ENCODING 939
SWIDTH 690 0
DWIDTH 23 0
BBX 21 29 1 0
BITMAP
070700
070700
070700
000000
000000
F801F8
FC01F8
7E03F0
3E03E0
3F07E0
1F07C0
1F8FC0
0F8F80
07DF00
07FF00
03FE00
01FE00
01FC00
00F800
00F800
00F800
00F800
00F800
00F800
00F800
00F800
00F800
00F800
00F800
ENDCHAR
STARTCHAR 03AC
ENCODING 940
SWIDTH 600 0
DWIDTH 20 0
BBX 17 25 2 0
BITMAP
00F800
00F000
01E000
01C000
038000
000000
000000
0F8780
1FE700
3FFF00
7E7F00
7C3F00
F81E00
F81E00
F81E00
F81E00
F81E00
F81E00
F81E00
781E00
7C3F00
7E7F00
3FFF00
1FE700
0F8780
ENDCHAR
STARTCHAR 03AD
ENCODING 941
SWIDTH 480 0
DWIDTH 16 0
BBX 14 25 2 0
BITMAP
07C0
0780
0F00
0E00
1C00
0000
0000
0FE0
3FF8
7FF0
7C20
7C00
7E00
3FC0
1FC0
3FC0
7C00
F800
F800
F800
F830
FC78
7FFC
3FF8
0FE0
ENDCHAR
STARTCHAR 03AE
ENCODING 942
SWIDTH 600 0
DWIDTH 20 0
BBX 17 32 2 -7
BITMAP
00F800
00F000
01E000
01C000
038000
000000
000000
F1F800
F7FE00
FFFF00
FE1F80
FC0F80
F80F80
F80F80
F80F80
F80F80
F80F80
F80F80
F80F80
F80F80
F80F80
F80F80
F80F80
F80F80
F80F80
000F80
000F80
000F80
000F80
000F80
000F80
000F80
ENDCHAR
STARTCHAR 03AF
ENCODING 943
SWIDTH 270 0
DWIDTH 9 0
BBX 7 25 2 0
BITMAP
3E
3C
78
70
E0
00
00
F8
F8
F8
F8
F8
F8
F8
F8
F8
F8
F8
F8
F8
F8
F8
F8
F8
F8
ENDCHAR
STARTCHAR 03B0
ENCODING 944
SWIDTH 570 0
DWIDTH 19 0
BBX 16 25 1 0
BITMAP
01F0
03E0
73CE
738E
778E
0000
0000
F81F
F81F
F81F
F81F
F81F
F81F
F81F
F81F
F81F
F81F
F81F
F81F
F81F
7C3E
7C3E
3FFC
1FF8
07E0
ENDCHAR
STARTCHAR 03B1
ENCODING 945
SWIDTH 600 0
DWIDTH 20 0
BBX 17 18 2 0
BITMAP
0F8780
1FE700
3FFF00
7E7F00
7C3F00
F81E00
F81E00
F81E00
F81E00
F81E00
F81E00
F81E00
781E00
7C3F00
7E7F00
3FFF00
1FE700
0F8780
ENDCHAR
STARTCHAR 03B2
ENCODING 946
SWIDTH 600 0
DWIDTH 20 0
BBX 16 31 3 -7
BITMAP
07E0
1FF8
3FFC
7E3E
7C1E
F81E
F81E
F83E
F87C
F9F8
F9F0
F9FC
F87E
F83E
F81F
F81F
F81F
F81F
FC1F
FC1F
FE3E
FFFE
FBFC
F8F8
F800
F800
F800
F800
F800
F800
F800
ENDCHAR
STARTCHAR 03B3
ENCODING 947
SWIDTH 570 0
DWIDTH 19 0
BBX 19 25 0 -7
BITMAP
F803E0
F803E0
7C07C0
7C07C0
7C07C0
3E0F80
3E0F80
1E0F00
1F1F00
1F1F00
0F3E00
0FBE00
07BC00
07BC00
03F800
03F800
03F800
01F000
01F000
01F000
01F000
01F000
01F000
01F000
01F000
ENDCHAR
STARTCHAR 03B4
ENCODING 948
SWIDTH 600 0
DWIDTH 20 0
BBX 17 24 2 0
BITMAP
3FFF00
3FFF00
3FFF00
1F8000
0FC000
03E000
07F000
1FFC00
3FFE00
7E3E00
7C1F00
FC1F00
F80F80
F80F80
F80F80
F80F80
F80F80
F80F80
781F00
7C1F00
3E3E00
3FFE00
0FFC00
07F000
ENDCHAR
STARTCHAR 03B5
ENCODING 949
SWIDTH 480 0
DWIDTH 16 0
BBX 14 18 2 0
BITMAP
0FE0
3FF8
7FF0
7C20
7C00
7E00
3FC0
1FC0
3FC0
7C00
F800
F800
F800
F830
FC78
7FFC
3FF8
0FE0
ENDCHAR
STARTCHAR 03B6
ENCODING 950
SWIDTH 450 0
DWIDTH 15 0
BBX 12 31 2 -7
BITMAP
3FF0
3FF0
3FF0
01E0
03C0
0780
0F00
1F00
1E00
3E00
3C00
7C00
7C00
F800
F800
F800
F800
F800
F800
FC00
7F80
7FE0
3FE0
1FF0
03F0
01F0
01F0
01F0
03E0
03C0
0700
ENDCHAR
STARTCHAR 03B7
ENCODING 951
SWIDTH 600 0
DWIDTH 20 0
BBX 17 25 2 -7
BITMAP
F1F800
F7FE00
FFFF00
FE1F80
FC0F80
F80F80
F80F80
F80F80
F80F80
F80F80
F80F80
F80F80
F80F80
F80F80
F80F80
F80F80
F80F80
F80F80
000F80
000F80
000F80
000F80
000F80
000F80
000F80
ENDCHAR
STARTCHAR 03B8
ENCODING 952
SWIDTH 540 0
DWIDTH 18 0
BBX 15 24 2 0
BITMAP
07C0
1FF0
3FF8
3C78
7C7C
783C
F83C
F83E
F83E
F83E
FFFE
FFFE
FFFE
F83E
F83E
F83E
F83E
F83C
787C
7C7C
7C78
3FF8
1FF0
07C0
ENDCHAR
STARTCHAR 03B9
ENCODING 953
SWIDTH 270 0
DWIDTH 9 0
BBX 5 18 2 0
BITMAP
F8
F8
F8
F8
F8
F8
F8
F8
F8
F8
F8
F8
F8
F8
F8
F8
F8
F8
ENDCHAR
STARTCHAR 03BA
ENCODING 954
SWIDTH 540 0
DWIDTH 18 0
BBX 16 18 2 0
BITMAP
F87E
F8FC
F9F8
F9F0
FBE0
FBC0
FFC0
FF80
FF80
FFC0
FFE0
FBE0
F9F0
F8F8
F8FC
F87C
F87E
F83F
ENDCHAR
STARTCHAR 03BB
ENCODING 955
SWIDTH 570 0
DWIDTH 19 0
BBX 19 24 0 0
BITMAP
07C000
07C000
03C000
03E000
03E000
01F000
01F000
03F800
03F800
03F800
07BC00
07BC00
0FBE00
0FBE00
1F1F00
1F1F00
1E0F00
3E0F80
3E0F80
7C07C0
7C07C0
7C07C0
F803E0
F803E0
ENDCHAR
STARTCHAR 03BC
ENCODING 956
SWIDTH 600 0
DWIDTH 20 0
BBX 17 25 2 -7
BITMAP
F80F80
F80F80
F80F80
F80F80
F80F80
F80F80
F80F80
F80F80
F80F80
F80F80
F80F80
F80F80
F80F80
FC1F80
FE3F80
FFFF80
FFFF80
F9E780
F80000
F80000
F80000
F80000
F80000
F80000
F80000
ENDCHAR
STARTCHAR 03BD
ENCODING 957
SWIDTH 570 0
DWIDTH 19 0
BBX 17 18 1 0
BITMAP
F80F80
F80F80
F80F80
780F00
7C1F00
3C1E00
3C1E00
3E3E00
1E3C00
1E3C00
0E3C00
0F7800
0F7800
07F000
07F000
07F000
03E000
03E000
ENDCHAR
STARTCHAR 03BE
ENCODING 958
SWIDTH 450 0
DWIDTH 15 0
BBX 13 31 2 -7
BITMAP
0FE0
1FE0
3FE0
7E00
7C00
7C00
7C00
3E00
3FE0
0FE0
0FE0
1F00
3E00
7C00
7C00
F800
F800
F800
F800
FC00
7F00
7FC0
3FF0
0FF0
01F8
00F8
00F8
01F8
03F0
07E0
0780
ENDCHAR
STARTCHAR 03BF
ENCODING 959
SWIDTH 600 0
DWIDTH 20 0
BBX 17 18 2 0
BITMAP
03E000
1FF800
3FFE00
3E3E00
7C1F00
7C1F00
F80F80
F80F80
F80F80
F80F80
F80F80
F80F80
7C1F80
7C1F00
7E3F00
3FFE00
1FFC00
03F000
ENDCHAR
STARTCHAR 03C0
ENCODING 960
SWIDTH 750 0
DWIDTH 25 0
BBX 23 18 1 0
BITMAP
FFFFFE
FFFFFE
FFFFFE
0F83E0
0F83E0
0F83E0
0F83E0
0F83E0
0F83E0
0F83E0
0F83E0
0F83E0
0F83E0
0F83E0
0F83E0
0F83E0
0F83E0
0F83E0
ENDCHAR
STARTCHAR 03C1
ENCODING 961
SWIDTH 600 0
DWIDTH 20 0
BBX 17 25 2 -7
BITMAP
07E000
1FF800
3FFC00
7E3E00
7C1F00
7C1F00
F80F80
F80F80
F80F80
F80F80
F80F80
F80F80
F81F00
FC1F00
FE3E00
FFFE00
FFFC00
F9F000
F80000
F80000
F80000
F80000
F80000
F80000
F80000
ENDCHAR
STARTCHAR 03C2
ENCODING 962
SWIDTH 510 0
DWIDTH 17 0
BBX 14 25 2 -7
BITMAP
01F8
07FC
1FF8
3F00
3E00
7C00
7C00
F800
F800
F800
F800
F800
F800
7C00
7F00
3FC0
1FF0
07F8
00FC
007C
007C
00FC
07F8
0FF0
0FC0
ENDCHAR
STARTCHAR 03C3
ENCODING 963
SWIDTH 690 0
DWIDTH 23 0
BBX 20 18 2 0
BITMAP
03FFF0
1FFFF0
3FFFF0
3E3F00
7C1F00
7C1F80
F80F80
F80F80
F80F80
F80F80
F80F80
F80F80
7C1F00
7C1F00
7E3E00
3FFC00
1FF800
07E000
ENDCHAR
STARTCHAR 03C4
ENCODING 964
SWIDTH 450 0
DWIDTH 15 0
BBX 13 18 1 0
BITMAP
FFF8
FFF8
FFF8
0F80
0F80
0F80
0F80
0F80
0F80
0F80
0F80
0F80
0F80
0F80
0F80
0F80
0F80
0F80
ENDCHAR
STARTCHAR 03C5
ENCODING 965
SWIDTH 570 0
DWIDTH 19 0
BBX 16 18 1 0
BITMAP
F81F
F81F
F81F
F81F
F81F
F81F
F81F
F81F
F81F
F81F
F81F
F81F
F81F
7C3E
7C3E
3FFC
1FF8
07E0
ENDCHAR
STARTCHAR 03C6
ENCODING 966
SWIDTH 750 0
DWIDTH 25 0
BBX 23 25 2 -7
BITMAP
078F80
1FBFE0
3F3FF8
7F7CF8
7E7C7C
FC7C3C
F87C3E
F87C3E
F87C3E
F87C3E
F87C3E
F87C7E
7C7C7C
7E7CFC
3F7DF8
1FFFF0
0FFFC0
01FF00
007C00
007C00
007C00
007C00
007C00
007C00
007C00
ENDCHAR
STARTCHAR 03C7
ENCODING 967
SWIDTH 570 0
DWIDTH 19 0
BBX 17 25 1 -7
BITMAP
7C1F00
7C1F00
3E3E00
3E3E00
1E3E00
1F7C00
1F7C00
0F7800
0FF800
07F000
07F000
03E000
03E000
07F000
07F000
0FF800
0FF800
1F7C00
1F7C00
3E3E00
3E3E00
7C1F00
7C1F00
FC1F80
F80F80
ENDCHAR
STARTCHAR 03C8
ENCODING 968
SWIDTH 750 0
DWIDTH 25 0
BBX 21 25 2 -7
BITMAP
F8F8F8
F8F8F8
F8F8F8
F8F8F8
F8F8F8
F8F8F8
F8F8F8
F8F8F8
F8F8F8
F8F8F8
F8F8F8
F8F8F8
F8F8F8
7CF9F0
7EFBF0
3FFFE0
1FFFC0
07FF00
00F800
00F800
00F800
00F800
00F800
00F800
00F800
ENDCHAR
STARTCHAR 03C9
ENCODING 969
SWIDTH 870 0
DWIDTH 29 0
BBX 27 18 2 0
BITMAP
1F001F00
3E000F80
3E000F80
7C0007C0
7C1F07C0
7C1F07C0
F81F03E0
F81F03E0
F81F03E0
F81F03E0
F81F03E0
F81F03E0
F81F03E0
7C1F07C0
7E3F8FC0
3FFBFF80
1FF1FF00
07E0FC00
ENDCHAR
STARTCHAR 03CA
ENCODING 970
SWIDTH 270 0
DWIDTH 9 0
BBX 11 23 -1 0
BITMAP
E0E0
E0E0
E0E0
0000
0000
1F00
1F00
1F00
1F00
1F00
1F00
1F00
1F00
1F00
1F00
1F00
1F00
1F00
1F00
1F00
1F00
1F00
1F00
ENDCHAR
STARTCHAR 03CB
ENCODING 971
SWIDTH 570 0
DWIDTH 19 0
BBX 16 23 1 0
BITMAP
1C1C
1C1C
1C1C
0000
0000
F81F
F81F
F81F
F81F
F81F
F81F
F81F
F81F
F81F
F81F
F81F
F81F
F81F
7C3E
7C3E
3FFC
1FF8
07E0
ENDCHAR
STARTCHAR 03CC
ENCODING 972
SWIDTH 600 0
DWIDTH 20 0
BBX 17 25 2 0
BITMAP
00F800
00F000
01E000
01C000
038000
000000
000000
03E000
1FF800
3FFE00
3E3E00
7C1F00
7C1F00
F80F80
F80F80
F80F80
F80F80
F80F80
F80F80
7C1F80
7C1F00
7E3F00
3FFE00
1FFC00
03F000
ENDCHAR
STARTCHAR 03CD
ENCODING 973
SWIDTH 570 0
DWIDTH 19 0
BBX 16 25 1 0
BITMAP
00F8
00F0
01E0
01C0
0380
0000
0000
F81F
F81F
F81F
F81F
F81F
F81F
F81F
F81F
F81F
F81F
F81F
F81F
F81F
7C3E
7C3E
3FFC
1FF8
07E0
ENDCHAR
STARTCHAR 03CE
ENCODING 974
SWIDTH 870 0
DWIDTH 29 0
BBX 27 25 2 0
BITMAP
003E0000
003C0000
00780000
00700000
00E00000
00000000
00000000
1F001F00
3E000F80
3E000F80
7C0007C0
7C1F07C0
7C1F07C0
F81F03E0
F81F03E0
F81F03E0
F81F03E0
F81F03E0
F81F03E0
F81F03E0
7C1F07C0
7E3F8FC0
3FFBFF80
1FF1FF00
07E0FC00
ENDCHAR
STARTCHAR 0401
ENCODING 1025
SWIDTH 660 0
DWIDTH 22 0
BBX 18 29 2 0
BITMAP
0E0E00
0E0E00
0E0E00
000000
000000
FFFFC0
FFFFC0
FFFFC0
FFFFC0
F80000
F80000
F80000
F80000
F80000
FFFF80
FFFF80
FFFF80
FFFF80
F80000
F80000
F80000
F80000
F80000
F80000
F80000
FFFFC0
FFFFC0
FFFFC0
FFFFC0
ENDCHAR
STARTCHAR 0402
ENCODING 1026
SWIDTH 870 0
DWIDTH 29 0
BBX 27 24 1 0
BITMAP
FFFFE000
FFFFE000
FFFFE000
FFFFE000
01F00000
01F00000
01F00000
01F00000
01F1FC00
01FFFF00
01FFFF80
01FFFFC0
01FE0FC0
01F807E0
01F003E0
01F003E0
01F003E0
01F003E0
01F007E0
01F00FC0
01F07FC0
01F0FF80
01F0FF00
01F0FC00
ENDCHAR
STARTCHAR 0403
ENCODING 1027
SWIDTH 600 0
DWIDTH 20 0
BBX 17 31 2 0
BITMAP
00F800
00F000
01E000
01C000
038000
000000
000000
FFFF80
FFFF80
FFFF80
FFFF80
F80000
F80000
F80000
F80000
F80000
F80000
F80000
F80000
F80000
F80000
F80000
F80000
F80000
F80000
F80000
F80000
F80000
F80000
F80000
F80000
ENDCHAR
STARTCHAR 0404
ENCODING 1028
SWIDTH 690 0
DWIDTH 23 0
BBX 21 24 1 0
BITMAP
00FC00
07FF80
0FFFC0
1FFFE0
3F07F0
7E01F0
7C01F8
7C00E0
F80000
F80000
FFF800
FFF800
FFF800
FFF800
F80000
F800E0
7C00F8
7C01F8
7E03F0
3F07F0
1FFFE0
0FFFC0
07FF80
00FC00
ENDCHAR
STARTCHAR 0405
ENCODING 1029
SWIDTH 660 0
DWIDTH 22 0
BBX 19 24 1 0
BITMAP
03F800
0FFE00
3FFF00
3FFF80
7E0F80
7C07C0
7C07C0
7C0000
7E0000
3F8000
3FF800
1FFE00
07FF80
00FFC0
001FC0
0007E0
F803E0
F803E0
7C07E0
7E0FE0
3FFFC0
3FFF80
0FFF00
03FC00
ENDCHAR
STARTCHAR 0406
ENCODING 1030
SWIDTH 270 0
DWIDTH 9 0
BBX 5 24 2 0
BITMAP
F8
F8
F8
F8
F8
F8
F8
F8
F8
F8
F8
F8
F8
F8
F8
F8
F8
F8
F8
F8
F8
F8
F8
F8
ENDCHAR
STARTCHAR 0407
ENCODING 1031
SWIDTH 270 0
DWIDTH 9 0
BBX 11 29 -1 0
BITMAP
E0E0
E0E0
E0E0
0000
0000
1F00
1F00
1F00
1F00
1F00
1F00
1F00
1F00
1F00
1F00
1F00
1F00
1F00
1F00
1F00
1F00
1F00
1F00
1F00
1F00
1F00
1F00
1F00
1F00
ENDCHAR
STARTCHAR 0408
ENCODING 1032
SWIDTH 540 0
DWIDTH 18 0
BBX 15 24 1 0
BITMAP
003E
003E
003E
003E
003E
003E
003E
003E
003E
003E
003E
003E
003E
003E
003E
003E
F83E
F83E
F83E
FC7C
7FFC
7FF8
3FF0
0FC0
ENDCHAR
STARTCHAR 0409
ENCODING 1033
SWIDTH 1080 0
DWIDTH 36 0
BBX 34 24 1 0
BITMAP
1FFFE00000
1FFFE00000
1FFFE00000
1FFFE00000
1F03E00000
1F03E00000
1F03E00000
1F03E00000
1F03E00000
1F03FFF800
1F03FFFE00
1F03FFFF00
1F03FFFF80
1F03E01F80
1F03E00FC0
1F03E007C0
1F03E007C0
1F03E007C0
1F03E00FC0
1F03E01FC0
FF03FFFF80
FE03FFFF00
FE03FFFE00
F803FFF800
ENDCHAR
STARTCHAR 040A
ENCODING 1034
SWIDTH 1050 0
DWIDTH 35 0
BBX 32 24 2 0
BITMAP
F80F8000
F80F8000
F80F8000
F80F8000
F80F8000
F80F8000
F80F8000
F80F8000
F80F8000
FFFFFFE0
FFFFFFF8
FFFFFFFC
FFFFFFFE
F80F807E
F80F803F
F80F801F
F80F801F
F80F801F
F80F803F
F80F807F
F80FFFFE
F80FFFFC
F80FFFF8
F80FFFE0
ENDCHAR
STARTCHAR 040B
ENCODING 1035
SWIDTH 870 0
DWIDTH 29 0
BBX 26 24 1 0
BITMAP
FFFFE000
FFFFE000
FFFFE000
FFFFE000
01F00000
01F00000
01F00000
01F00000
01F3F800
01FFFE00
01FFFF00
01FFFF80
01FC1F80
01F00FC0
01F007C0
01F007C0
01F007C0
01F007C0
01F007C0
01F007C0
01F007C0
01F007C0
01F007C0
01F007C0
ENDCHAR
STARTCHAR 040C
ENCODING 1036
SWIDTH 600 0
DWIDTH 20 0
BBX 18 31 2 0
BITMAP
00F800
00F000
01E000
01C000
038000
000000
000000
F807C0
F80FC0
F81FC0
F83E00
F83C00
F87800
F87800
F8F800
F8F000
F9F000
FFE000
FFC000
FFF000
F9F800
F8F800
F8FC00
F87C00
F83E00
F83E00
F83F00
F81F00
F81F80
F80F80
F80FC0
ENDCHAR
STARTCHAR 040E
ENCODING 1038
SWIDTH 630 0
DWIDTH 21 0
BBX 21 30 0 0
BITMAP
030300
038700
01FE00
00FC00
000000
000000
F800F8
FC01F8
7C01F0
3E01F0
3E03E0
1F03E0
1F07C0
0F87C0
0F8F80
07CF80
03DF00
03DF00
01FE00
01FE00
00FC00
00FC00
00F800
00F800
01F000
01F000
1FE000
1FE000
1FC000
1F8000
ENDCHAR
STARTCHAR 040F
ENCODING 1039
SWIDTH 720 0
DWIDTH 24 0
BBX 20 31 2 -7
BITMAP
F801F0
F801F0
F801F0
F801F0
F801F0
F801F0
F801F0
F801F0
F801F0
F801F0
F801F0
F801F0
F801F0
F801F0
F801F0
F801F0
F801F0
F801F0
F801F0
F801F0
FFFFF0
FFFFF0
FFFFF0
FFFFF0
00F000
00F000
00F000
00F000
00F000
00F000
00F000
ENDCHAR
STARTCHAR 0410
ENCODING 1040
SWIDTH 690 0
DWIDTH 23 0
BBX 23 24 0 0
BITMAP
00FE00
00FE00
01FF00
01FF00
01EF00
03EF80
03EF80
03C780
07C7C0
07C7C0
07C3C0
0F83E0
0F83E0
0F83E0
1F01F0
1FFFF0
1FFFF0
3FFFF8
3FFFF8
3E00F8
7C007C
7C007C
FC007C
F8003E
ENDCHAR
STARTCHAR 0411
ENCODING 1041
SWIDTH 720 0
DWIDTH 24 0
BBX 21 24 2 0
BITMAP
FFFFE0
FFFFE0
FFFFE0
FFFFE0
F80000
F80000
F80000
F80000
F80000
FFFF00
FFFFC0
FFFFE0
FFFFF0
F803F0
F801F8
F800F8
F800F8
F800F8
F801F8
F803F0
FFFFF0
FFFFE0
FFFFC0
FFFF00
ENDCHAR
STARTCHAR 0412
ENCODING 1042
SWIDTH 690 0
DWIDTH 23 0
BBX 20 24 2 0
BITMAP
FFFE00
FFFF80
FFFFC0
FFFFC0
F807E0
F803E0
F803E0
F803E0
F803E0
F807C0
FFFF80
FFFF00
FFFF80
FFFFE0
F807E0
F801F0
F801F0
F801F0
F801F0
F803F0
FFFFE0
FFFFE0
FFFFC0
FFFF00
ENDCHAR
STARTCHAR 0413
ENCODING 1043
SWIDTH 570 0
DWIDTH 19 0
BBX 17 24 2 0
BITMAP
FFFF80
FFFF80
FFFF80
FFFF80
F80000
F80000
F80000
F80000
F80000
F80000
F80000
F80000
F80000
F80000
F80000
F80000
F80000
F80000
F80000
F80000
F80000
F80000
F80000
F80000
ENDCHAR
STARTCHAR 0414
ENCODING 1044
SWIDTH 720 0
DWIDTH 24 0
BBX 23 29 0 -5
BITMAP
0FFFF8
0FFFF8
0FFFF8
0FFFF8
0F80F8
0F80F8
0F80F8
0F80F8
0F80F8
0F80F8
0F80F8
0F80F8
0F80F8
0F80F8
1F00F8
1F00F8
1F00F8
1F00F8
1F00F8
3E00F8
FFFFFE
FFFFFE
FFFFFE
FFFFFE
F0001E
F0001E
F0001E
F0001E
F0001E
ENDCHAR
STARTCHAR 0415
ENCODING 1045
SWIDTH 660 0
DWIDTH 22 0
BBX 18 24 2 0
BITMAP
FFFFC0
FFFFC0
FFFFC0
FFFFC0
F80000
F80000
F80000
F80000
F80000
FFFF80
FFFF80
FFFF80
FFFF80
F80000
F80000
F80000
F80000
F80000
F80000
F80000
FFFFC0
FFFFC0
FFFFC0
FFFFC0
ENDCHAR
STARTCHAR 0416
ENCODING 1046
SWIDTH 870 0
DWIDTH 29 0
BBX 29 24 0 0
BITMAP
F00F8078
FC0F81F8
FE0F83F8
1F0F87C0
0F0F8780
0F0F8780
078F8F00
078F8F00
03CF9E00
03EFBE00
01FFFC00
01FFF800
03FFFE00
07EFBF00
07CF9F00
0F8F8F80
1F8F8FC0
1F0F87C0
1F0F87C0
3E0F83E0
3E0F83E0
7E0F83F0
7C0F81F0
FC0F81F8
ENDCHAR
STARTCHAR 0417
ENCODING 1047
SWIDTH 630 0
DWIDTH 21 0
BBX 19 24 1 0
BITMAP
07F800
1FFE00
3FFF80
7FFF80
7E1FC0
FC07C0
3807C0
0007C0
000F80
001F00
00FE00
00FF00
00FF80
000FC0
0007E0
0003E0
0003E0
3803E0
FC07E0
7E0FE0
7FFFC0
3FFF80
1FFF00
07FC00
ENDCHAR
STARTCHAR 0418
ENCODING 1048
SWIDTH 690 0
DWIDTH 23 0
BBX 19 24 2 0
BITMAP
F001E0
F003E0
F007E0
F007E0
F00FE0
F01FE0
F01FE0
F03DE0
F03DE0
F079E0
F0F9E0
F0F1E0
F1E1E0
F3E1E0
F3C1E0
F781E0
F781E0
FF01E0
FF01E0
FE01E0
FC01E0
FC01E0
F801E0
F001E0
ENDCHAR
STARTCHAR 0419
ENCODING 1049
SWIDTH 690 0
DWIDTH 23 0
BBX 19 30 2 0
BITMAP
060600
070E00
03FC00
01F800
000000
000000
F001E0
F003E0
F007E0
F007E0
F00FE0
F01FE0
F01FE0
F03DE0
F03DE0
F079E0
F0F9E0
F0F1E0
F1E1E0
F3E1E0
F3C1E0
F781E0
F781E0
FF01E0
FF01E0
FE01E0
FC01E0
FC01E0
F801E0
F001E0
ENDCHAR
STARTCHAR 041A
ENCODING 1050
SWIDTH 600 0
DWIDTH 20 0
BBX 18 24 2 0
BITMAP
F807C0
F80FC0
F81FC0
F83E00
F83C00
F87800
F87800
F8F800
F8F000
F9F000
FFE000
FFC000
FFF000
F9F800
F8F800
F8FC00
F87C00
F83E00
F83E00
F83F00
F81F00
F81F80
F80F80
F80FC0
ENDCHAR
STARTCHAR 041B
ENCODING 1051
SWIDTH 690 0
DWIDTH 23 0
BBX 20 24 1 0
BITMAP
0FFFF0
0FFFF0
0FFFF0
0FFFF0
0F81F0
0F81F0
0F81F0
0F81F0
0F81F0
0F81F0
0F81F0
0F81F0
0F81F0
0F81F0
0F81F0
0F81F0
0F81F0
0F81F0
0F81F0
0F81F0
FF81F0
FF01F0
FF01F0
FC01F0
ENDCHAR
STARTCHAR 041C
ENCODING 1052
SWIDTH 870 0
DWIDTH 29 0
BBX 23 24 3 0
BITMAP
FE00FE
FE00FE
FE00FE
FF01FE
FF01FE
FF01DE
F701DE
F783DE
F783DE
F3839E
F3839E
F3C79E
F1C71E
F1C71E
F1EF1E
F0EF1E
F0EE1E
F0EE1E
F0FE1E
F07C1E
F07C1E
F07C1E
F0381E
F0381E
ENDCHAR
STARTCHAR 041D
ENCODING 1053
SWIDTH 690 0
DWIDTH 23 0
BBX 19 24 2 0
BITMAP
F803E0
F803E0
F803E0
F803E0
F803E0
F803E0
F803E0
F803E0
F803E0
FFFFE0
FFFFE0
FFFFE0
FFFFE0
F803E0
F803E0
F803E0
F803E0
F803E0
F803E0
F803E0
F803E0
F803E0
F803E0
F803E0
ENDCHAR
STARTCHAR 041E
ENCODING 1054
SWIDTH 750 0
DWIDTH 25 0
BBX 23 24 1 0
BITMAP
00FE00
07FFC0
0FFFE0
1FFFF0
3F83F8
7E00FC
7C007C
7C007C
F8003E
F8003E
F8003E
F8003E
F8003E
F8003E
F8003E
F8003E
7C007C
7C007C
7E00FC
3F83F8
1FFFF0
0FFFE0
07FFC0
00FE00
ENDCHAR
STARTCHAR 041F
ENCODING 1055
SWIDTH 720 0
DWIDTH 24 0
BBX 20 24 2 0
BITMAP
FFFFF0
FFFFF0
FFFFF0
FFFFF0
F801F0
F801F0
F801F0
F801F0
F801F0
F801F0
F801F0
F801F0
F801F0
F801F0
F801F0
F801F0
F801F0
F801F0
F801F0
F801F0
F801F0
F801F0
F801F0
F801F0
ENDCHAR
STARTCHAR 0420
ENCODING 1056
SWIDTH 630 0
DWIDTH 21 0
BBX 18 24 2 0
BITMAP
FFFC00
FFFE00
FFFF00
FFFF80
F81FC0
F80FC0
F807C0
F807C0
F807C0
F80FC0
F81FC0
FFFF80
FFFF00
FFFE00
FFF800
F80000
F80000
F80000
F80000
F80000
F80000
F80000
F80000
F80000
ENDCHAR
STARTCHAR 0421
ENCODING 1057
SWIDTH 720 0
DWIDTH 24 0
BBX 21 24 1 0
BITMAP
00FE00
07FF80
0FFFC0
1FFFE0
3F87F0
7E01F0
7C01F8
7C00E0
F80000
F80000
F80000
F80000
F80000
F80000
F80000
F800E0
7C00F8
7C01F8
7E03F0
3F07F0
1FFFE0
0FFFC0
07FF80
01FE00
ENDCHAR
STARTCHAR 0422
ENCODING 1058
SWIDTH 630 0
DWIDTH 21 0
BBX 19 24 1 0
BITMAP
FFFFE0
FFFFE0
FFFFE0
FFFFE0
01F000
01F000
01F000
01F000
01F000
01F000
01F000
01F000
01F000
01F000
01F000
01F000
01F000
01F000
01F000
01F000
01F000
01F000
01F000
01F000
ENDCHAR
STARTCHAR 0423
ENCODING 1059
SWIDTH 630 0
DWIDTH 21 0
BBX 21 24 0 0
BITMAP
F800F8
FC01F8
7C01F0
3E01F0
3E03E0
1F03E0
1F07C0
0F87C0
0F8F80
07CF80
03DF00
03DF00
01FE00
01FE00
00FC00
00FC00
00F800
00F800
01F000
01F000
1FE000
1FE000
1FC000
1F8000
ENDCHAR
STARTCHAR 0424
ENCODING 1060
SWIDTH 810 0
DWIDTH 27 0
BBX 25 24 1 0
BITMAP
003E0000
003E0000
03FFE000
0FFFF800
1FFFFC00
3FFFFE00
7E3E3F00
7C3E1F00
FC3E1F80
F83E0F80
F83E0F80
F83E0F80
F83E0F80
F83E0F80
F83E0F80
7C3E1F00
7E3E7F00
3FFFFE00
1FFFFC00
0FFFF800
03FFE000
003E0000
003E0000
003E0000
ENDCHAR
STARTCHAR 0425
ENCODING 1061
SWIDTH 660 0
DWIDTH 22 0
BBX 20 24 1 0
BITMAP
7C03E0
7E07E0
3E07C0
1F0F80
1F9F80
0F9F00
0FFF00
07FE00
03FE00
03FC00
01F800
01F800
03FC00
03FC00
07FE00
07FE00
0F9F00
1F9F80
1F0F80
3F0FC0
3E07C0
7C03E0
FC03F0
F801F0
ENDCHAR
STARTCHAR 0426
ENCODING 1062
SWIDTH 720 0
DWIDTH 24 0
BBX 21 29 2 -5
BITMAP
F803E0
F803E0
F803E0
F803E0
F803E0
F803E0
F803E0
F803E0
F803E0
F803E0
F803E0
F803E0
F803E0
F803E0
F803E0
F803E0
F803E0
F803E0
F803E0
F803E0
FFFFF8
FFFFF8
FFFFF8
FFFFF8
000078
000078
000078
000078
000078
ENDCHAR
STARTCHAR 0427
ENCODING 1063
SWIDTH 690 0
DWIDTH 23 0
BBX 19 24 2 0
BITMAP
F803E0
F803E0
F803E0
F803E0
F803E0
F803E0
F803E0
F803E0
F803E0
F803E0
FC03E0
FE0FE0
7FFFE0
3FFFE0
1FFFE0
07F3E0
0003E0
0003E0
0003E0
0003E0
0003E0
0003E0
0003E0
0003E0
ENDCHAR
STARTCHAR 0428
ENCODING 1064
SWIDTH 990 0
DWIDTH 33 0
BBX 29 24 2 0
BITMAP
F80F80F8
F80F80F8
F80F80F8
F80F80F8
F80F80F8
F80F80F8
F80F80F8
F80F80F8
F80F80F8
F80F80F8
F80F80F8
F80F80F8
F80F80F8
F80F80F8
F80F80F8
F80F80F8
F80F80F8
F80F80F8
F80F80F8
F80F80F8
FFFFFFF8
FFFFFFF8
FFFFFFF8
FFFFFFF8
ENDCHAR
STARTCHAR 0429
ENCODING 1065
SWIDTH 1020 0
DWIDTH 34 0
BBX 31 29 2 -5
BITMAP
F80F80F8
F80F80F8
F80F80F8
F80F80F8
F80F80F8
F80F80F8
F80F80F8
F80F80F8
F80F80F8
F80F80F8
F80F80F8
F80F80F8
F80F80F8
F80F80F8
F80F80F8
F80F80F8
F80F80F8
F80F80F8
F80F80F8
F80F80F8
FFFFFFFE
FFFFFFFE
FFFFFFFE
FFFFFFFE
0000001E
0000001E
0000001E
0000001E
0000001E
ENDCHAR
STARTCHAR 042A
ENCODING 1066
SWIDTH 870 0
DWIDTH 29 0
BBX 27 24 1 0
BITMAP
FFF00000
FFF00000
FFF00000
FFF00000
01F00000
01F00000
01F00000
01F00000
01F00000
01FFFC00
01FFFF00
01FFFF80
01FFFFC0
01F00FC0
01F007E0
01F003E0
01F003E0
01F003E0
01F007E0
01F00FC0
01FFFFC0
01FFFF80
01FFFF00
01FFFC00
ENDCHAR
STARTCHAR 042B
ENCODING 1067
SWIDTH 960 0
DWIDTH 32 0
BBX 28 24 2 0
BITMAP
F80001F0
F80001F0
F80001F0
F80001F0
F80001F0
F80001F0
F80001F0
F80001F0
F80001F0
FFFE01F0
FFFF81F0
FFFFC1F0
FFFFE1F0
F807E1F0
F803F1F0
F801F1F0
F801F1F0
F801F1F0
F803F1F0
F807F1F0
FFFFE1F0
FFFFC1F0
FFFF81F0
FFFE01F0
ENDCHAR
STARTCHAR 042C
ENCODING 1068
SWIDTH 720 0
DWIDTH 24 0
BBX 21 24 2 0
BITMAP
F80000
F80000
F80000
F80000
F80000
F80000
F80000
F80000
F80000
FFFF00
FFFFC0
FFFFE0
FFFFF0
F803F0
F801F8
F800F8
F800F8
F800F8
F801F8
F803F0
FFFFF0
FFFFE0
FFFFC0
FFFF00
ENDCHAR
STARTCHAR 042D
ENCODING 1069
SWIDTH 690 0
DWIDTH 23 0
BBX 21 24 1 0
BITMAP
03F800
0FFF00
1FFF80
3FFFC0
7F07E0
FC03E0
FC01F0
3801F0
0000F8
0000F8
00FFF8
00FFF8
00FFF8
00FFF8
0000F8
3800F8
F801F0
FC01F0
7E03F0
7F07E0
3FFFC0
1FFF80
0FFF00
03FC00
ENDCHAR
STARTCHAR 042E
ENCODING 1070
SWIDTH 1020 0
DWIDTH 34 0
BBX 31 24 2 0
BITMAP
F800FF00
F803FFC0
F80FFFE0
F81FFFF0
F81F83F8
F83F00FC
F83E007C
F87E007C
F87C003E
FFFC003E
FFFC003E
FFFC003E
FFFC003E
F87C003E
F87C003E
F87C003E
F83E007C
F83E007C
F81F00FC
F81FC1F8
F80FFFF0
F807FFE0
F803FFC0
F800FF00
ENDCHAR
STARTCHAR 042F
ENCODING 1071
SWIDTH 720 0
DWIDTH 24 0
BBX 22 24 0 0
BITMAP
01FFFC
0FFFFC
1FFFFC
1FFFFC
3F007C
3E007C
3E007C
3E007C
3E007C
3F007C
1FFFFC
0FFFFC
07FFFC
00FFFC
01F87C
03F07C
07E07C
0FC07C
1F807C
1F807C
3F007C
3E007C
7E007C
FC007C
ENDCHAR
STARTCHAR 0430
ENCODING 1072
SWIDTH 540 0
DWIDTH 18 0
BBX 16 18 1 0
BITMAP
0FF0
1FF8
3FFC
787E
303E
003E
007E
0FFE
3FFE
7FBE
FC3E
F83E
F83E
F87E
FCFE
7FFE
7FDE
1F1F
ENDCHAR
STARTCHAR 0431
ENCODING 1073
SWIDTH 600 0
DWIDTH 20 0
BBX 17 25 2 0
BITMAP
000700
03FF00
1FFE00
3FFC00
3C0000
700000
700000
E3F000
EFF800
FFFE00
FE3E00
FC1F00
FC1F00
F80F80
F80F80
F80F80
F80F80
F80F80
F80F80
7C1F00
7C1F00
3E3E00
3FFC00
1FF800
07E000
ENDCHAR
STARTCHAR 0432
ENCODING 1074
SWIDTH 600 0
DWIDTH 20 0
BBX 17 18 2 0
BITMAP
FFF800
FFFE00
FFFF00
F83F00
F81F00
F81F00
F83E00
FFFE00
FFF800
FFFE00
F81F00
F80F80
F80F80
F80F80
F81F80
FFFF00
FFFF00
FFFC00
ENDCHAR
STARTCHAR 0433
ENCODING 1075
SWIDTH 420 0
DWIDTH 14 0
BBX 12 18 2 0
BITMAP
FFF0
FFF0
FFF0
F800
F800
F800
F800
F800
F800
F800
F800
F800
F800
F800
F800
F800
F800
F800
ENDCHAR
STARTCHAR 0434
ENCODING 1076
SWIDTH 630 0
DWIDTH 21 0
BBX 20 23 0 -5
BITMAP
07FFC0
07FFC0
07FFC0
0787C0
0787C0
0787C0
0787C0
0787C0
0F87C0
0F87C0
0F07C0
0F07C0
1F07C0
1F07C0
3E07C0
FFFFF0
FFFFF0
FFFFF0
E00070
E00070
E00070
E00070
E00070
ENDCHAR
STARTCHAR 0435
ENCODING 1077
SWIDTH 540 0
DWIDTH 18 0
BBX 16 18 1 0
BITMAP
07E0
1FF8
3FFC
7E3E
7C3E
F81E
F81F
FFFF
FFFF
FFFF
F800
F800
F800
7C1C
7E3F
3FFE
1FFC
07F0
ENDCHAR
STARTCHAR 0436
ENCODING 1078
SWIDTH 690 0
DWIDTH 23 0
BBX 23 18 0 0
BITMAP
787C3C
7C7C7C
7C7C7C
1E7CF0
0E7CE0
0E7CE0
0F7DE0
07FFC0
03FF80
0FFFE0
0F7DE0
1E7CF0
3E7CF8
3C7C78
3C7C78
7C7C7C
787C3C
F87C3E
ENDCHAR
STARTCHAR 0437
ENCODING 1079
SWIDTH 480 0
DWIDTH 16 0
BBX 15 18 0 0
BITMAP
07E0
1FF0
3FF8
7C7C
183C
003C
0078
01F0
01E0
01F8
007C
003E
303E
F83E
7C7E
7FFC
3FF8
0FE0
ENDCHAR
STARTCHAR 0438
ENCODING 1080
SWIDTH 600 0
DWIDTH 20 0
BBX 17 18 2 0
BITMAP
F80F80
F81F80
F81F80
F83F80
F87F80
F87F80
F8FF80
F8EF80
F9CF80
F9CF80
FB8F80
FB8F80
FF0F80
FF0F80
FE0F80
FC0F80
FC0F80
F80F80
ENDCHAR
STARTCHAR 0439
ENCODING 1081
SWIDTH 600 0
DWIDTH 20 0
BBX 17 24 2 0
BITMAP
0C0C00
0E1C00
07F800
03F000
000000
000000
F80F80
F81F80
F81F80
F83F80
F87F80
F87F80
F8FF80
F8EF80
F9CF80
F9CF80
FB8F80
FB8F80
FF0F80
FF0F80
FE0F80
FC0F80
FC0F80
F80F80
ENDCHAR
STARTCHAR 043A
ENCODING 1082
SWIDTH 510 0
DWIDTH 17 0
BBX 15 18 2 0
BITMAP
F83C
F87C
F8FC
F8F0
F9E0
F9E0
FBC0
FFC0
FF80
FFC0
FBE0
F9F0
F9F0
F8F8
F8F8
F87C
F87C
F87E
ENDCHAR
STARTCHAR 043B
ENCODING 1083
SWIDTH 630 0
DWIDTH 21 0
BBX 19 18 0 0
BITMAP
1FFFE0
1FFFE0
1FFFE0
1F03E0
1F03E0
1F03E0
1F03E0
1F03E0
1F03E0
1F03E0
1F03E0
1F03E0
1F03E0
1F03E0
1F03E0
FE03E0
FE03E0
FC03E0
ENDCHAR
STARTCHAR 043C
ENCODING 1084
SWIDTH 750 0
DWIDTH 25 0
BBX 21 18 2 0
BITMAP
F800F8
FC01F8
FC01F8
FC01F8
FE03F8
FE03F8
FF07F8
F70778
F78F78
F38F78
F3DE78
F3DE78
F1DC78
F1FC78
F0F878
F0F878
F07078
F07078
ENDCHAR
STARTCHAR 043D
ENCODING 1085
SWIDTH 600 0
DWIDTH 20 0
BBX 17 18 2 0
BITMAP
F80F80
F80F80
F80F80
F80F80
F80F80
F80F80
F80F80
FFFF80
FFFF80
FFFF80
F80F80
F80F80
F80F80
F80F80
F80F80
F80F80
F80F80
F80F80
ENDCHAR
STARTCHAR 043E
ENCODING 1086
SWIDTH 600 0
DWIDTH 20 0
BBX 17 18 2 0
BITMAP
03E000
1FF800
3FFE00
3E3E00
7C1F00
7C1F00
F80F80
F80F80
F80F80
F80F80
F80F80
F80F80
7C1F80
7C1F00
7E3F00
3FFE00
1FFC00
03F000
ENDCHAR
STARTCHAR 043F
ENCODING 1087
SWIDTH 600 0
DWIDTH 20 0
BBX 17 18 2 0
BITMAP
FFFF80
FFFF80
FFFF80
F80F80
F80F80
F80F80
F80F80
F80F80
F80F80
F80F80
F80F80
F80F80
F80F80
F80F80
F80F80
F80F80
F80F80
F80F80
ENDCHAR
STARTCHAR 0440
ENCODING 1088
SWIDTH 600 0
DWIDTH 20 0
BBX 17 25 2 -7
BITMAP
F1F000
F7FC00
FFFE00
FE3F00
FC1F00
F80F80
F80F80
F80F80
F80F80
F80F80
F80F80
F80F80
FC0F80
FC1F00
FE3F00
FFFE00
FBFC00
F8F000
F80000
F80000
F80000
F80000
F80000
F80000
F80000
ENDCHAR
STARTCHAR 0441
ENCODING 1089
SWIDTH 540 0
DWIDTH 18 0
BBX 15 18 2 0
BITMAP
07E0
1FF8
3FFC
7C7C
7C3E
F838
F800
F800
F800
F800
F800
F800
F838
7C3E
7C7C
3FFC
1FF8
07E0
ENDCHAR
STARTCHAR 0442
ENCODING 1090
SWIDTH 450 0
DWIDTH 15 0
BBX 15 18 0 0
BITMAP
FFFE
FFFE
FFFE
07C0
07C0
07C0
07C0
07C0
07C0
07C0
07C0
07C0
07C0
07C0
07C0
07C0
07C0
07C0
ENDCHAR
STARTCHAR 0443
ENCODING 1091
SWIDTH 570 0
DWIDTH 19 0
BBX 17 25 1 -7
BITMAP
F80F80
F80F80
780F00
7C1F00
7C1F00
3C1E00
3E3E00
3E3E00
1E3C00
1E3C00
0F7C00
0F7800
0F7800
077800
07F000
07F000
03F000
03E000
03E000
03C000
07C000
0FC000
7F8000
7F0000
7E0000
ENDCHAR
STARTCHAR 0444
ENCODING 1092
SWIDTH 810 0
DWIDTH 27 0
BBX 25 31 2 -7
BITMAP
003E0000
003E0000
003E0000
003E0000
003E0000
003E0000
0F3E7800
1FBEFC00
3FFFFE00
7EFF1F00
7C7F1F00
F83E0F80
F83E0F80
F83E0F80
F83E0F80
F83E0F80
F83E0F80
F83E0F80
F83E0F80
7C7F1F00
7CFF3F00
3FFFFE00
3FBEFC00
0F3E7800
003E0000
003E0000
003E0000
003E0000
003E0000
003E0000
003E0000
ENDCHAR
STARTCHAR 0445
ENCODING 1093
SWIDTH 540 0
DWIDTH 18 0
BBX 16 18 1 0
BITMAP
7C3E
7C3E
3E7C
3E78
1FF8
0FF0
0FF0
07E0
07E0
07E0
0FF0
0FF0
1FF8
3E7C
3E7C
7C3E
FC3F
F81F
ENDCHAR
STARTCHAR 0446
ENCODING 1094
SWIDTH 600 0
DWIDTH 20 0
BBX 17 23 2 -5
BITMAP
F83E00
F83E00
F83E00
F83E00
F83E00
F83E00
F83E00
F83E00
F83E00
F83E00
F83E00
F83E00
F83E00
F83E00
F83E00
FFFF80
FFFF80
FFFF80
000380
000380
000380
000380
000380
ENDCHAR
STARTCHAR 0447
ENCODING 1095
SWIDTH 570 0
DWIDTH 19 0
BBX 16 18 2 0
BITMAP
F81F
F81F
F81F
F81F
F81F
F81F
F81F
F81F
7C1F
7FFF
3FFF
0FDF
001F
001F
001F
001F
001F
001F
ENDCHAR
STARTCHAR 0448
ENCODING 1096
SWIDTH 810 0
DWIDTH 27 0
BBX 23 18 2 0
BITMAP
F87C3E
F87C3E
F87C3E
F87C3E
F87C3E
F87C3E
F87C3E
F87C3E
F87C3E
F87C3E
F87C3E
F87C3E
F87C3E
F87C3E
F87C3E
FFFFFE
FFFFFE
FFFFFE
ENDCHAR
STARTCHAR 0449
ENCODING 1097
SWIDTH 840 0
DWIDTH 28 0
BBX 25 23 2 -5
BITMAP
F87C3E00
F87C3E00
F87C3E00
F87C3E00
F87C3E00
F87C3E00
F87C3E00
F87C3E00
F87C3E00
F87C3E00
F87C3E00
F87C3E00
F87C3E00
F87C3E00
F87C3E00
FFFFFF80
FFFFFF80
FFFFFF80
00000380
00000380
00000380
00000380
00000380
ENDCHAR
STARTCHAR 044A
ENCODING 1098
SWIDTH 720 0
DWIDTH 24 0
BBX 21 18 2 0
BITMAP
FFC000
FFC000
FFC000
07C000
07C000
07C000
07C000
07FFC0
07FFF0
07FFF0
07C1F8
07C0F8
07C0F8
07C0F8
07C1F8
07FFF0
07FFF0
07FFC0
ENDCHAR
STARTCHAR 044B
ENCODING 1099
SWIDTH 840 0
DWIDTH 28 0
BBX 25 18 2 0
BITMAP
F8000F80
F8000F80
F8000F80
F8000F80
F8000F80
F8000F80
F8000F80
FFFE0F80
FFFF0F80
FFFF8F80
F80FCF80
F807CF80
F807CF80
F807CF80
F80FCF80
FFFF8F80
FFFF0F80
FFFC0F80
ENDCHAR
STARTCHAR 044C
ENCODING 1100
SWIDTH 600 0
DWIDTH 20 0
BBX 17 18 2 0
BITMAP
F80000
F80000
F80000
F80000
F80000
F80000
F80000
FFFC00
FFFE00
FFFF00
F81F80
F80F80
F80F80
F80F80
F81F80
FFFF00
FFFE00
FFFC00
ENDCHAR
STARTCHAR 044D
ENCODING 1101
SWIDTH 540 0
DWIDTH 18 0
BBX 16 18 1 0
BITMAP
0FE0
3FF8
7FFC
FC7E
383E
001F
001F
03FF
03FF
03FF
001F
001F
381F
F83E
7C7E
7FFC
3FF8
0FE0
ENDCHAR
STARTCHAR 044E
ENCODING 1102
SWIDTH 840 0
DWIDTH 28 0
BBX 25 18 2 0
BITMAP
F803F000
F80FFC00
F81FFE00
F83E3F00
F83E1F00
F87C0F80
F87C0F80
FFFC0F80
FFFC0F80
FFFC0F80
F87C0F80
F87C0F80
F87C0F80
F83E1F00
F83F1F00
F81FFE00
F80FFC00
F803F000
ENDCHAR
STARTCHAR 044F
ENCODING 1103
SWIDTH 570 0
DWIDTH 19 0
BBX 16 18 2 0
BITMAP
0FFF
3FFF
3FFF
7E1F
7C1F
7C1F
7C1F
7E1F
3FFF
1FFF
07FF
0F9F
1F1F
1F1F
3E1F
7E1F
7C1F
FC1F
ENDCHAR
STARTCHAR 0451
ENCODING 1105
SWIDTH 540 0
DWIDTH 18 0
BBX 16 23 1 0
BITMAP
1C1C
1C1C
1C1C
0000
0000
07E0
1FF8
3FFC
7E3E
7C3E
F81E
F81F
FFFF
FFFF
FFFF
F800
F800
F800
7C1C
7E3F
3FFE
1FFC
07F0
ENDCHAR
STARTCHAR 0452
ENCODING 1106
SWIDTH 600 0
DWIDTH 20 0
BBX 19 31 0 -7
BITMAP
3E0000
3E0000
FFF800
FFF800
3E0000
3E0000
3E3F00
3EFF80
3FFFC0
3F87E0
3F03E0
3E03E0
3E03E0
3E03E0
3E03E0
3E03E0
3E03E0
3E03E0
3E03E0
3E03E0
3E03E0
3E03E0
3E03E0
3E03E0
0003E0
0003E0
0003E0
0003E0
003FC0
003FC0
003F00
ENDCHAR
STARTCHAR 0453
ENCODING 1107
SWIDTH 420 0
DWIDTH 14 0
BBX 12 25 2 0
BITMAP
0F80
0F00
1E00
1C00
3800
0000
0000
FFF0
FFF0
FFF0
F800
F800
F800
F800
F800
F800
F800
F800
F800
F800
F800
F800
F800
F800
F800
ENDCHAR
STARTCHAR 0454
ENCODING 1108
SWIDTH 540 0
DWIDTH 18 0
BBX 16 18 1 0
BITMAP
07F0
1FFC
3FFE
7C3F
7C1C
F800
F800
FFC0
FFC0
FFC0
F800
F800
F81C
7C1F
7E3E
3FFE
1FFC
07F0
ENDCHAR
STARTCHAR 0455
ENCODING 1109
SWIDTH 540 0
DWIDTH 18 0
BBX 16 18 1 0
BITMAP
07F0
1FFC
3FFE
7E3F
7C0C
7C00
7F00
7FE0
3FF8
1FFE
03FE
007F
001F
381F
FC3F
7FFE
3FFC
0FF0
ENDCHAR
STARTCHAR 0456
ENCODING 1110
SWIDTH 270 0
DWIDTH 9 0
BBX 5 24 2 0
BITMAP
F8
F8
F8
00
00
00
F8
F8
F8
F8
F8
F8
F8
F8
F8
F8
F8
F8
F8
F8
F8
F8
F8
F8
ENDCHAR
STARTCHAR 0457
ENCODING 1111
SWIDTH 270 0
DWIDTH 9 0
BBX 11 23 -1 0
BITMAP
E0E0
E0E0
E0E0
0000
0000
1F00
1F00
1F00
1F00
1F00
1F00
1F00
1F00
1F00
1F00
1F00
1F00
1F00
1F00
1F00
1F00
1F00
1F00
ENDCHAR
STARTCHAR 0458
ENCODING 1112
SWIDTH 270 0
DWIDTH 9 0
BBX 9 31 -2 -7
BITMAP
0F80
0F80
0F80
0000
0000
0000
0F80
0F80
0F80
0F80
0F80
0F80
0F80
0F80
0F80
0F80
0F80
0F80
0F80
0F80
0F80
0F80
0F80
0F80
0F80
0F80
0F80
1F80
FF00
FF00
FC00
ENDCHAR
STARTCHAR 0459
ENCODING 1113
SWIDTH 960 0
DWIDTH 32 0
BBX 31 18 0 0
BITMAP
1FFFE000
1FFFE000
1FFFE000
1F03E000
1F03E000
1F03E000
1F03E000
1F03FFF0
1F03FFF8
1F03FFFC
1F03E07E
1F03E03E
1F03E03E
1F03E03E
1F03E07E
FE03FFFC
FE03FFF8
F803FFE0
ENDCHAR
STARTCHAR 045A
ENCODING 1114
SWIDTH 900 0
DWIDTH 30 0
BBX 27 18 2 0
BITMAP
F83E0000
F83E0000
F83E0000
F83E0000
F83E0000
F83E0000
F83E0000
FFFFFF00
FFFFFF80
FFFFFFC0
F83E07E0
F83E03E0
F83E03E0
F83E03E0
F83E07E0
F83FFFC0
F83FFFC0
F83FFF00
ENDCHAR
STARTCHAR 045B
ENCODING 1115
SWIDTH 600 0
DWIDTH 20 0
BBX 19 24 0 0
BITMAP
3E0000
3E0000
FFF800
FFF800
3E0000
3E0000
3E3F00
3EFF80
3FFFC0
3F87E0
3F03E0
3E03E0
3E03E0
3E03E0
3E03E0
3E03E0
3E03E0
3E03E0
3E03E0
3E03E0
3E03E0
3E03E0
3E03E0
3E03E0
ENDCHAR
STARTCHAR 045C
ENCODING 1116
SWIDTH 510 0
DWIDTH 17 0
BBX 15 25 2 0
BITMAP
03E0
03C0
0780
0700
0E00
0000
0000
F83C
F87C
F8FC
F8F0
F9E0
F9E0
FBC0
FFC0
FF80
FFC0
FBE0
F9F0
F9F0
F8F8
F8F8
F87C
F87C
F87E
ENDCHAR
STARTCHAR 045E
ENCODING 1118
SWIDTH 570 0
DWIDTH 19 0
BBX 17 31 1 -7
BITMAP
0C0C00
0E1C00
07F800
03F000
000000
000000
F80F80
F80F80
780F00
7C1F00
7C1F00
3C1E00
3E3E00
3E3E00
1E3C00
1E3C00
0F7C00
0F7800
0F7800
077800
07F000
07F000
03F000
03E000
03E000
03C000
07C000
0FC000
7F8000
7F0000
7E0000
ENDCHAR
STARTCHAR 045F
ENCODING 1119
SWIDTH 630 0
DWIDTH 21 0
BBX 17 23 2 -5
BITMAP
F80F80
F80F80
F80F80
F80F80
F80F80
F80F80
F80F80
F80F80
F80F80
F80F80
F80F80
F80F80
F80F80
F80F80
F80F80
FFFF80
FFFF80
FFFF80
01C000
01C000
01C000
01C000
01C000
ENDCHAR
STARTCHAR 0490
ENCODING 1168
SWIDTH 480 0
DWIDTH 16 0
BBX 13 29 2 0
BITMAP
0078
0078
0078
0078
0078
FFF8
FFF8
FFF8
FFF8
F800
F800
F800
F800
F800
F800
F800
F800
F800
F800
F800
F800
F800
F800
F800
F800
F800
F800
F800
F800
ENDCHAR
STARTCHAR 0491
ENCODING 1169
SWIDTH 450 0
DWIDTH 15 0
BBX 12 23 2 0
BITMAP
0070
0070
0070
0070
0070
FFF0
FFF0
FFF0
F800
F800
F800
F800
F800
F800
F800
F800
F800
F800
F800
F800
F800
F800
F800
ENDCHAR
STARTCHAR 0492
ENCODING 1170
SWIDTH 570 0
DWIDTH 19 0
BBX 20 24 -1 0
BITMAP
1FFFF0
1FFFF0
1FFFF0
1F0000
1F0000
1F0000
1F0000
1F0000
1F0000
1F0000
FFF800
FFF800
FFF800
1F0000
1F0000
1F0000
1F0000
1F0000
1F0000
1F0000
1F0000
1F0000
1F0000
1F0000
ENDCHAR
STARTCHAR 0493
ENCODING 1171
SWIDTH 420 0
DWIDTH 14 0
BBX 13 18 1 0
BITMAP
3FF8
3FF8
3FF8
3E00
3E00
3E00
3E00
FFC0
FFC0
FFC0
3E00
3E00
3E00
3E00
3E00
3E00
3E00
3E00
ENDCHAR
STARTCHAR 0496
ENCODING 1174
SWIDTH 900 0
DWIDTH 30 0
BBX 29 29 1 -5
BITMAP
F80F80F8
FC0F81F8
FE0F83F8
FF0F87F8
1F0F87E0
1F8F8FC0
0F8F8F80
0FCF9F80
07EFBF00
07FFFF00
01FFFC00
01FFFC00
03FFFE00
07EFBF00
0FCF9F80
0F8F8F80
1F8F8FC0
1F0F87C0
3F0F87C0
3E0F83E0
3E0F83F8
7C0F83F8
7C0F81F8
FC0F81F8
000000F8
000000F8
000000F8
000000F8
000000F8
ENDCHAR
STARTCHAR 0497
ENCODING 1175
SWIDTH 690 0
DWIDTH 23 0
BBX 24 23 0 -5
BITMAP
787C1E
7C7C3E
7C7C7E
7E7C7C
3E7CFC
3E7CF8
1F7DF8
0FFFF0
03FFE0
0FFFF0
0FFDF0
1F7DF8
3F7CF8
3E7CF8
3E7C7C
7E7C7F
7C7C7F
FC7C3F
00001F
00001F
00001F
00001F
00001F
ENDCHAR
STARTCHAR 049A
ENCODING 1178
SWIDTH 600 0
DWIDTH 20 0
BBX 18 29 2 -5
BITMAP
F807C0
F81FC0
F83FC0
F87FC0
F87E00
F8FC00
F8F800
F9F800
FBF000
FFF000
FFC000
FFE000
FFF000
F9F800
F8F800
F87C00
F87C00
F83E00
F83E00
F83F00
F81FC0
F81FC0
F80FC0
F80FC0
0007C0
0007C0
0007C0
0007C0
0007C0
ENDCHAR
STARTCHAR 049B
ENCODING 1179
SWIDTH 510 0
DWIDTH 17 0
BBX 14 23 3 -5
BITMAP
F878
F8F8
F8F8
F9F8
F9F0
F9F0
FBF0
FFE0
FF00
FF80
FFC0
FBE0
FBE0
FBE0
F9F0
F9FC
F9FC
F8FC
007C
007C
007C
007C
007C
ENDCHAR
STARTCHAR 049C
ENCODING 1180
SWIDTH 600 0
DWIDTH 20 0
BBX 18 24 2 0
BITMAP
F807C0
F81FC0
F83FC0
FB7FC0
FB7E00
FB7C00
FBF800
FBF800
FBF000
FFF000
FFC000
FFE000
FFF000
FBF800
FBF800
FBFC00
FB7C00
FB7E00
FB3E00
FB3F00
FB1F00
F81F80
F80F80
F80FC0
ENDCHAR
STARTCHAR 049D
ENCODING 1181
SWIDTH 510 0
DWIDTH 17 0
BBX 14 18 3 0
BITMAP
F878
F8F8
FAF8
FBF8
FBF0
FBF0
FBF0
FFE0
FF00
FF80
FBC0
FBC0
FFE0
FBE0
FBF0
FBF8
F8F8
F8FC
ENDCHAR
STARTCHAR 04A2
ENCODING 1186
SWIDTH 720 0
DWIDTH 24 0
BBX 22 29 2 -5
BITMAP
F801F0
F801F0
F801F0
F801F0
F801F0
F801F0
F801F0
F801F0
F801F0
F801F0
FFFFF0
FFFFF0
FFFFF0
FFFFF0
F801F0
F801F0
F801F0
F801F0
F801F0
F801F0
F801FC
F801FC
F801FC
F801FC
00007C
00007C
00007C
00007C
00007C
ENDCHAR
STARTCHAR 04A3
ENCODING 1187
SWIDTH 600 0
DWIDTH 20 0
BBX 17 23 3 -5
BITMAP
F83E00
F83E00
F83E00
F83E00
F83E00
F83E00
F83E00
FFFE00
FFFE00
FFFE00
F83E00
F83E00
F83E00
F83E00
F83E00
F83F80
F83F80
F83F80
000F80
000F80
000F80
000F80
000F80
ENDCHAR
STARTCHAR 04AE
ENCODING 1198
SWIDTH 540 0
DWIDTH 18 0
BBX 19 24 0 0
BITMAP
FC07E0
7C07C0
7E0FC0
3E0F80
3F1F80
1F1F00
1FBF00
0FBE00
0FFE00
07FC00
07FC00
03F800
03F800
01F000
01F000
01F000
01F000
01F000
01F000
01F000
01F000
01F000
01F000
01F000
ENDCHAR
STARTCHAR 04AF
ENCODING 1199
SWIDTH 540 0
DWIDTH 18 0
BBX 19 25 0 -7
BITMAP
F807E0
7C07C0
7C07C0
7E0FC0
3E0F80
3E0F80
1F1F00
1F1F00
1FBF00
0FBE00
0FBE00
0FFE00
07FC00
07FC00
03F800
03F800
03F800
01F000
01F000
01F000
01F000
01F000
01F000
01F000
01F000
ENDCHAR
STARTCHAR 04B0
ENCODING 1200
SWIDTH 540 0
DWIDTH 18 0
BBX 19 24 0 0
BITMAP
FC07E0
7C07C0
7E0FC0
3E0F80
3F1F80
1F1F00
1FBF00
0FBE00
0FFE00
07FC00
7FFFC0
7FFFC0
7FFFC0
7FFFC0
01F000
01F000
01F000
01F000
01F000
01F000
01F000
01F000
01F000
01F000
ENDCHAR
STARTCHAR 04B1
ENCODING 1201
SWIDTH 540 0
DWIDTH 18 0
BBX 19 25 0 -7
BITMAP
F807E0
7C07C0
7C07C0
7E0FC0
3E0F80
3E0F80
1F1F00
1F1F00
1FBF00
0FBE00
0FBE00
0FFE00
07FC00
07FC00
03F800
03F800
03F800
01F000
3FFF80
3FFF80
3FFF80
01F000
01F000
01F000
01F000
ENDCHAR
STARTCHAR 04B2
ENCODING 1202
SWIDTH 660 0
DWIDTH 22 0
BBX 22 29 0 -5
BITMAP
7E01F8
3F03F0
1F03E0
1F87E0
0F8FC0
0FCFC0
07FF80
03FF00
03FF00
01FE00
01FC00
00FC00
01FC00
01FE00
03FF00
07FF00
07FF80
0FCF80
1F8FC0
1F87E0
3F03FC
3E03FC
7E01FC
FC01FC
00007C
00007C
00007C
00007C
00007C
ENDCHAR
STARTCHAR 04B3
ENCODING 1203
SWIDTH 540 0
DWIDTH 18 0
BBX 19 23 0 -5
BITMAP
FC0FC0
7E1F80
3F3F00
3F3F00
1FFE00
0FFC00
0FFC00
07F800
03F000
03F000
07F800
0FFC00
0FFC00
1FFE00
3F3F00
3F1FE0
7E1FE0
FC0FE0
0003E0
0003E0
0003E0
0003E0
0003E0
ENDCHAR
STARTCHAR 04B8
ENCODING 1208
SWIDTH 690 0
DWIDTH 23 0
BBX 19 24 2 0
BITMAP
F803E0
F803E0
F803E0
F803E0
F803E0
F8E3E0
F8E3E0
F8E3E0
F8E3E0
F8E3E0
FCE3E0
FEE7E0
7FFFE0
3FFFE0
1FFFE0
07F3E0
00E3E0
00E3E0
00E3E0
00E3E0
0003E0
0003E0
0003E0
0003E0
ENDCHAR
STARTCHAR 04B9
ENCODING 1209
SWIDTH 570 0
DWIDTH 19 0
BBX 14 18 3 0
BITMAP
F87C
F87C
F87C
F87C
FB7C
FB7C
FB7C
FB7C
7F7C
7FFC
3FFC
1FFC
037C
037C
037C
007C
007C
007C
ENDCHAR
STARTCHAR 04BA
ENCODING 1210
SWIDTH 690 0
DWIDTH 23 0
BBX 19 24 2 0
BITMAP
F80000
F80000
F80000
F80000
F80000
F80000
F80000
F80000
F9FC00
FFFF00
FFFF80
FFFFC0
FE0FE0
F807E0
F803E0
F803E0
F803E0
F803E0
F803E0
F803E0
F803E0
F803E0
F803E0
F803E0
ENDCHAR
STARTCHAR 04BB
ENCODING 1211
SWIDTH 600 0
DWIDTH 20 0
BBX 17 24 2 0
BITMAP
F80000
F80000
F80000
F80000
F80000
F80000
F8F800
FBFE00
FFFF00
FE1F80
FC0F80
F80F80
F80F80
F80F80
F80F80
F80F80
F80F80
F80F80
F80F80
F80F80
F80F80
F80F80
F80F80
F80F80
ENDCHAR
STARTCHAR 04D8
ENCODING 1240
SWIDTH 720 0
DWIDTH 24 0
BBX 22 24 1 0
BITMAP
01FC00
07FF80
1FFFC0
1FFFE0
3F83F0
7E01F8
7E00F8
0C00F8
00007C
00007C
FFFFFC
FFFFFC
FFFFFC
FFFFFC
F8007C
F8007C
7C00F8
7C00F8
7E01F8
3F87F0
1FFFE0
0FFFC0
07FF80
01FE00
ENDCHAR
STARTCHAR 04D9
ENCODING 1241
SWIDTH 540 0
DWIDTH 18 0
BBX 16 18 1 0
BITMAP
0FE0
1FF8
7FFC
7C7E
F83E
381F
001F
001F
FFFF
FFFF
FFFF
F81F
F81E
7C3E
7C7E
3FFC
1FF8
07E0
ENDCHAR
STARTCHAR 04E8
ENCODING 1256
SWIDTH 780 0
DWIDTH 26 0
BBX 24 24 1 0
BITMAP
00FF00
07FFC0
0FFFF0
1FFFF8
3F81FC
7E007C
7C003E
7C003E
F8001F
F8001F
FFFFFF
FFFFFF
FFFFFF
FFFFFF
F8001F
F8001F
7C003E
7C003E
3E007C
3F81FC
1FFFF8
0FFFF0
07FFE0
00FF00
ENDCHAR
STARTCHAR 04E9
ENCODING 1257
SWIDTH 600 0
DWIDTH 20 0
BBX 18 18 1 0
BITMAP
03F000
0FFC00
1FFE00
3E1F00
7C0F80
780780
F807C0
FFFFC0
FFFFC0
FFFFC0
F807C0
F807C0
7C0F80
7C0F80
3E1F00
3FFE00
0FFC00
03F000
ENDCHAR
STARTCHAR 05B0
ENCODING 1456
SWIDTH 330 0
DWIDTH 11 0
BBX 2 5 4 -7
BITMAP
C0
C0
00
C0
C0
ENDCHAR
STARTCHAR 05B1
ENCODING 1457
SWIDTH 330 0
DWIDTH 11 0
BBX 8 5 1 -7
BITMAP
DB
DB
00
63
63
ENDCHAR
STARTCHAR 05B2
ENCODING 1458
SWIDTH 330 0
DWIDTH 11 0
BBX 9 5 1 -7
BITMAP
F980
F980
0000
0180
0180
ENDCHAR
STARTCHAR 05B3
ENCODING 1459
SWIDTH 330 0
DWIDTH 11 0
BBX 10 5 0 -7
BITMAP
FCC0
FCC0
3000
30C0
00C0
ENDCHAR
STARTCHAR 05B4
ENCODING 1460
SWIDTH 330 0
DWIDTH 11 0
BBX 2 2 4 -5
BITMAP
C0
C0
ENDCHAR
STARTCHAR 05B5
ENCODING 1461
SWIDTH 330 0
DWIDTH 11 0
BBX 6 2 2 -5
BITMAP
CC
CC
ENDCHAR
STARTCHAR 05B6
ENCODING 1462
SWIDTH 330 0
DWIDTH 11 0
BBX 6 5 2 -7
BITMAP
CC
CC
00
30
30
ENDCHAR
STARTCHAR 05B7
ENCODING 1463
SWIDTH 330 0
DWIDTH 11 0
BBX 6 2 2 -5
BITMAP
FC
FC
ENDCHAR
STARTCHAR 05B8
ENCODING 1464
SWIDTH 330 0
DWIDTH 11 0
BBX 6 5 3 -7
BITMAP
FC
FC
30
30
30
ENDCHAR
STARTCHAR 05B9
ENCODING 1465
SWIDTH 330 0
DWIDTH 11 0
BBX 2 2 4 20
BITMAP
C0
C0
ENDCHAR
STARTCHAR 05BA
ENCODING 1466
SWIDTH 330 0
DWIDTH 11 0
BBX 2 2 4 20
BITMAP
C0
C0
ENDCHAR
STARTCHAR 05BB
ENCODING 1467
SWIDTH 330 0
DWIDTH 11 0
BBX 8 6 1 -7
BITMAP
C0
C0
18
18
03
03
ENDCHAR
STARTCHAR 05BC
ENCODING 1468
SWIDTH 330 0
DWIDTH 11 0
BBX 2 2 4 8
BITMAP
C0
C0
ENDCHAR
STARTCHAR 05BD
ENCODING 1469
SWIDTH 330 0
DWIDTH 11 0
BBX 2 6 5 -7
BITMAP
C0
C0
C0
C0
C0
C0
ENDCHAR
STARTCHAR 05BE
ENCODING 1470
SWIDTH 450 0
DWIDTH 15 0
BBX 11 3 2 15
BITMAP
FFE0
FFE0
FFE0
ENDCHAR
STARTCHAR 05BF
ENCODING 1471
SWIDTH 330 0
DWIDTH 11 0
BBX 6 2 2 20
BITMAP
FC
FC
ENDCHAR
STARTCHAR 05C0
ENCODING 1472
SWIDTH 270 0
DWIDTH 9 0
BBX 3 23 3 -3
BITMAP
E0
E0
E0
E0
E0
E0
E0
E0
E0
E0
E0
E0
E0
E0
E0
E0
E0
E0
E0
E0
E0
E0
E0
ENDCHAR
STARTCHAR 05C1
ENCODING 1473
SWIDTH 330 0
DWIDTH 11 0
BBX 2 2 12 20
BITMAP
C0
C0
ENDCHAR
STARTCHAR 05C2
ENCODING 1474
SWIDTH 330 0
DWIDTH 11 0
BBX 2 2 -3 20
BITMAP
C0
C0
ENDCHAR
STARTCHAR 05C3
ENCODING 1475
SWIDTH 330 0
DWIDTH 11 0
BBX 5 18 3 0
BITMAP
F8
F8
F8
F8
F8
00
00
00
00
00
00
00
00
F8
F8
F8
F8
F8
ENDCHAR
STARTCHAR 05D0
ENCODING 1488
SWIDTH 570 0
DWIDTH 19 0
BBX 18 18 1 0
BITMAP
FC0F80
7E0F80
3F0F80
3F0F80
1F8F00
0F9F00
1FDF00
3FFF00
7FFE00
7FFC00
7DF800
F8FC00
F8FC00
F87E00
F83F00
F83F00
F81F80
F80FC0
ENDCHAR
STARTCHAR 05D1
ENCODING 1489
SWIDTH 570 0
DWIDTH 19 0
BBX 17 18 1 0
BITMAP
7F8000
FFE000
FFF000
01F800
00F800
00FC00
007C00
007C00
007C00
007C00
007C00
007C00
007C00
007C00
FFFF80
FFFF80
FFFF80
FFFF80
ENDCHAR
STARTCHAR 05D2
ENCODING 1490
SWIDTH 450 0
DWIDTH 15 0
BBX 14 18 0 0
BITMAP
3F80
3FC0
3FE0
03F0
01F0
01F0
01F0
01F0
01F0
01F0
07F0
1FF0
3FF8
3EF8
7CF8
7CF8
F87C
F87C
ENDCHAR
STARTCHAR 05D3
ENCODING 1491
SWIDTH 540 0
DWIDTH 18 0
BBX 16 18 1 0
BITMAP
FFFF
FFFF
FFFF
FFFF
00F8
00F8
00F8
00F8
00F8
00F8
00F8
00F8
00F8
00F8
00F8
00F8
00F8
00F8
ENDCHAR
STARTCHAR 05D4
ENCODING 1492
SWIDTH 600 0
DWIDTH 20 0
BBX 16 18 2 0
BITMAP
FFC0
FFF8
FFFC
00FE
003E
003F
001F
001F
F81F
F81F
F81F
F81F
F81F
F81F
F81F
F81F
F81F
F81F
ENDCHAR
STARTCHAR 05D5
ENCODING 1493
SWIDTH 270 0
DWIDTH 9 0
BBX 5 18 2 0
BITMAP
F8
F8
F8
F8
F8
F8
F8
F8
F8
F8
F8
F8
F8
F8
F8
F8
F8
F8
ENDCHAR
STARTCHAR 05D6
ENCODING 1494
SWIDTH 420 0
DWIDTH 14 0
BBX 12 18 1 0
BITMAP
FFF0
FFF0
FFF0
FFC0
0780
0F00
0F00
1F00
1F00
1F00
1F00
1F00
1F00
1F00
1F00
1F00
1F00
1F00
ENDCHAR
STARTCHAR 05D7
ENCODING 1495
SWIDTH 600 0
DWIDTH 20 0
BBX 16 18 2 0
BITMAP
3FE0
FFF8
FFFC
F87E
F83E
F81F
F81F
F81F
F81F
F81F
F81F
F81F
F81F
F81F
F81F
F81F
F81F
F81F
ENDCHAR
STARTCHAR 05D8
ENCODING 1496
SWIDTH 630 0
DWIDTH 21 0
BBX 17 18 2 0
BITMAP
F87C00
F8FE00
F9FF00
F9FF00
F89F80
F80F80
F80F80
F80F80
F80F80
F80F80
F80F80
F80F80
780F80
7C1F00
7E3F00
3FFE00
1FFC00
07F000
ENDCHAR
STARTCHAR 05D9
ENCODING 1497
SWIDTH 270 0
DWIDTH 9 0
BBX 5 10 2 8
BITMAP
F8
F8
F8
F8
F8
F8
F8
F8
F8
F8
ENDCHAR
STARTCHAR 05DA
ENCODING 1498
SWIDTH 510 0
DWIDTH 17 0
BBX 14 25 1 -7
BITMAP
7F80
FFE0
FFF0
83F8
00F8
00FC
007C
007C
007C
007C
007C
007C
007C
007C
007C
007C
007C
007C
007C
007C
007C
007C
007C
007C
007C
ENDCHAR
STARTCHAR 05DB
ENCODING 1499
SWIDTH 480 0
DWIDTH 16 0
BBX 14 18 1 0
BITMAP
7F00
FFC0
7FE0
43F0
00F8
00F8
007C
007C
007C
007C
007C
007C
00F8
01F8
43F0
FFE0
FFC0
7F00
ENDCHAR
STARTCHAR 05DC
ENCODING 1500
SWIDTH 480 0
DWIDTH 16 0
BBX 13 24 1 0
BITMAP
F800
F800
F800
F800
F800
F800
FFF8
FFF8
FFF8
FFF8
00F8
00F8
00F8
00F8
00F8
01F0
03F0
03E0
07E0
07C0
07C0
07C0
07C0
07C0
ENDCHAR
STARTCHAR 05DD
ENCODING 1501
SWIDTH 600 0
DWIDTH 20 0
BBX 16 18 2 0
BITMAP
3FE0
FFF8
FFFC
F87E
F83E
F81F
F81F
F81F
F81F
F81F
F81F
F81F
F81F
F81F
FFFF
FFFF
FFFF
FFFF
ENDCHAR
STARTCHAR 05DE
ENCODING 1502
SWIDTH 630 0
DWIDTH 21 0
BBX 18 18 1 0
BITMAP
F87C00
78FE00
7DFF00
7FFF80
3F8F80
3F8780
3F07C0
1F07C0
1F07C0
1E07C0
1E07C0
3E07C0
3E07C0
3E07C0
3E7FC0
3C7FC0
7C7FC0
7C7FC0
ENDCHAR
STARTCHAR 05DF
ENCODING 1503
SWIDTH 270 0
DWIDTH 9 0
BBX 5 25 2 -7
BITMAP
F8
F8
F8
F8
F8
F8
F8
F8
F8
F8
F8
F8
F8
F8
F8
F8
F8
F8
F8
F8
F8
F8
F8
F8
F8
ENDCHAR
STARTCHAR 05E0
ENCODING 1504
SWIDTH 390 0
DWIDTH 13 0
BBX 10 18 1 0
BITMAP
FC00
FF00
FF80
0F80
07C0
07C0
07C0
07C0
07C0
07C0
07C0
07C0
07C0
07C0
FFC0
FFC0
FFC0
FFC0
ENDCHAR
STARTCHAR 05E1
ENCODING 1505
SWIDTH 600 0
DWIDTH 20 0
BBX 18 18 1 0
BITMAP
03F000
0FFC00
3FFF00
3E1F00
7C0F80
7C0F80
F807C0
F807C0
F807C0
F807C0
F807C0
F807C0
7C0F80
7C0F80
3E1F00
3FFF00
0FFC00
03F000
ENDCHAR
STARTCHAR 05E2
ENCODING 1506
SWIDTH 540 0
DWIDTH 18 0
BBX 16 21 0 -3
BITMAP
7C1F
7C1F
7C1F
3E1F
3E1F
3E1F
3E1F
3E1F
3F1F
1F1F
1F1F
1F1E
1F1E
1F3E
1FBC
0FFC
0FF8
3FF0
FFC0
FE00
6000
ENDCHAR
STARTCHAR 05E3
ENCODING 1507
SWIDTH 600 0
DWIDTH 20 0
BBX 16 25 2 -7
BITMAP
3FE0
FFF8
FFFC
F87E
F83E
F81F
F81F
F81F
F81F
F81F
7E1F
7F1F
1F1F
001F
001F
001F
001F
001F
001F
001F
001F
001F
001F
001F
001F
ENDCHAR
STARTCHAR 05E4
ENCODING 1508
SWIDTH 570 0
DWIDTH 19 0
BBX 17 18 1 0
BITMAP
3FC000
FFF800
FFFC00
F87E00
F81F00
F81F00
F80F80
FC0F80
7E0F80
7F0F80
1F0F80
000F80
001F00
003F00
407E00
FFFC00
FFF800
3FC000
ENDCHAR
STARTCHAR 05E5
ENCODING 1509
SWIDTH 480 0
DWIDTH 16 0
BBX 15 25 0 -7
BITMAP
F83E
7C3E
7C3E
3C3E
3E3E
3E3E
1F3C
1F7C
0FFC
0FF8
07F0
07E0
07C0
07C0
07C0
07C0
07C0
07C0
07C0
07C0
07C0
07C0
07C0
07C0
07C0
ENDCHAR
STARTCHAR 05E6
ENCODING 1510
SWIDTH 510 0
DWIDTH 17 0
BBX 16 18 0 0
BITMAP
FC1F
7E1F
7E1F
3F1F
1F1F
1F9F
0F9E
0FFE
07FC
03F8
03F0
01F0
01F8
00FC
7FFC
7FFE
7FFE
7FFE
ENDCHAR
STARTCHAR 05E7
ENCODING 1511
SWIDTH 570 0
DWIDTH 19 0
BBX 15 25 2 -7
BITMAP
FFFE
FFFE
FFFE
FFFE
003E
003E
003E
003E
003E
F87E
F87C
F8FC
F8F8
F8F8
F8F8
F8F8
F8F8
F8F8
F800
F800
F800
F800
F800
F800
F800
ENDCHAR
STARTCHAR 05E8
ENCODING 1512
SWIDTH 510 0
DWIDTH 17 0
BBX 14 18 1 0
BITMAP
7F80
FFE0
FFF0
83F8
00F8
00FC
007C
007C
007C
007C
007C
007C
007C
007C
007C
007C
007C
007C
ENDCHAR
STARTCHAR 05E9
ENCODING 1513
SWIDTH 690 0
DWIDTH 23 0
BBX 21 18 1 0
BITMAP
F8F8F8
F8F8F8
F8F8F8
F8F8F8
F8F8F8
F8F8F8
F8F8F0
F9F0F0
F9F1F0
FFE1F0
7FC1F0
7F01F0
7C01E0
3E03E0
3F07C0
1FFF80
07FF00
01FC00
ENDCHAR
STARTCHAR 05EA
ENCODING 1514
SWIDTH 660 0
DWIDTH 22 0
BBX 19 18 1 0
BITMAP
3FFC00
FFFF00
FFFF80
EF8FC0
0F87C0
0F83E0
0F83E0
0F83E0
0F83E0
0F83E0
0F83E0
0F83E0
0F83E0
0F83E0
0F83E0
7F83E0
FF03E0
7E03E0
ENDCHAR
STARTCHAR 05F0
ENCODING 1520
SWIDTH 540 0
DWIDTH 18 0
BBX 14 18 2 0
BITMAP
F87C
F87C
F87C
F87C
F87C
F87C
F87C
F87C
F87C
F87C
F87C
F87C
F87C
F87C
F87C
F87C
F87C
F87C
ENDCHAR
STARTCHAR 05F1
ENCODING 1521
SWIDTH 540 0
DWIDTH 18 0
BBX 14 18 2 0
BITMAP
F87C
F87C
F87C
F87C
F87C
F87C
F87C
F87C
F87C
F87C
007C
007C
007C
007C
007C
007C
007C
007C
ENDCHAR
STARTCHAR 05F2
ENCODING 1522
SWIDTH 540 0
DWIDTH 18 0
BBX 14 10 2 8
BITMAP
F87C
F87C
F87C
F87C
F87C
F87C
F87C
F87C
F87C
F87C
ENDCHAR
STARTCHAR 05F3
ENCODING 1523
SWIDTH 270 0
DWIDTH 9 0
BBX 7 7 1 11
BITMAP
3E
3C
7C
78
70
F0
E0
ENDCHAR
STARTCHAR 05F4
ENCODING 1524
SWIDTH 510 0
DWIDTH 17 0
BBX 15 7 1 11
BITMAP
3E3E
3C3C
7C7C
7878
7070
F0F0
E0E0
ENDCHAR
STARTCHAR 060C
ENCODING 1548
SWIDTH 330 0
DWIDTH 11 0
BBX 5 10 3 5
BITMAP
30
70
60
C0
C0
F0
F8
F8
78
70
ENDCHAR
STARTCHAR 061B
ENCODING 1563
SWIDTH 330 0
DWIDTH 11 0
BBX 5 16 3 5
BITMAP
30
70
60
C0
C0
F0
F8
F8
78
70
00
00
30
78
78
30
ENDCHAR
STARTCHAR 061F
ENCODING 1567
SWIDTH 360 0
DWIDTH 12 0
BBX 10 18 1 5
BITMAP
1F00
7080
E0C0
E3C0
F3C0
F380
7800
7C00
1C00
0C00
0400
0400
0000
0000
0C00
1E00
1E00
0C00
ENDCHAR
STARTCHAR 0621
ENCODING 1569
SWIDTH 450 0
DWIDTH 15 0
BBX 11 15 2 2
BITMAP
0F00
1F80
3F00
7F00
6200
E000
F0E0
FFE0
7FC0
7FC0
3F00
3800
7000
E000
8000
ENDCHAR
STARTCHAR 0622
ENCODING 1570
SWIDTH 240 0
DWIDTH 8 0
BBX 8 24 0 4
BITMAP
61
9E
00
00
10
10
30
30
38
38
38
18
18
1C
1C
1C
0C
0C
0C
0C
0C
0C
0C
0C
ENDCHAR
STARTCHAR 0623
ENCODING 1571
SWIDTH 210 0
DWIDTH 7 0
BBX 5 26 1 4
BITMAP
60
80
C0
70
C0
00
20
20
60
60
70
70
70
30
30
38
38
38
18
18
18
18
18
18
18
18
ENDCHAR
STARTCHAR 0624
ENCODING 1572
SWIDTH 450 0
DWIDTH 15 0
BBX 15 24 0 -2
BITMAP
0300
0400
0600
0780
0600
0000
0018
003C
007C
007E
00CE
00C6
00E6
00FE
00FE
007E
003E
000E
001C
803C
E0F8
3FF0
1FE0
07C0
ENDCHAR
STARTCHAR 0625
ENCODING 1573
SWIDTH 210 0
DWIDTH 7 0
BBX 5 27 2 -3
BITMAP
40
40
C0
C0
E0
E0
E0
60
60
70
70
70
30
30
30
30
30
30
30
30
00
00
30
40
60
38
60
ENDCHAR
STARTCHAR 0626
ENCODING 1574
SWIDTH 630 0
DWIDTH 21 0
BBX 17 20 2 -2
BITMAP
300000
400000
600000
780700
600F80
001F80
003F80
107880
20E080
20C000
60FE00
40FF00
C07F00
C00300
C00E00
E07E00
FFFC00
FFF800
7FE000
3F0000
ENDCHAR
STARTCHAR 0627
ENCODING 1575
SWIDTH 210 0
DWIDTH 7 0
BBX 4 20 2 4
BITMAP
40
40
C0
C0
E0
E0
E0
60
60
70
70
70
30
30
30
30
30
30
30
30
ENDCHAR
STARTCHAR 0628
ENCODING 1576
SWIDTH 630 0
DWIDTH 21 0
BBX 20 19 1 -3
BITMAP
200040
600060
4000E0
C000F0
C00070
C00070
E00030
FFFFF0
7FFFF0
7FFFF0
1FFFF0
000000
000000
002000
007800
007C00
00F800
007800
001000
ENDCHAR
STARTCHAR 0629
ENCODING 1577
SWIDTH 330 0
DWIDTH 11 0
BBX 9 20 1 4
BITMAP
0400
6F00
7E00
F600
2000
0000
0000
2000
3800
7E00
7F00
3F80
6F80
4780
C180
C380
FF80
FF00
FE00
7800
ENDCHAR
STARTCHAR 062A
ENCODING 1578
SWIDTH 630 0
DWIDTH 21 0
BBX 20 15 1 5
BITMAP
001000
01BC00
01F800
03D800
208040
600060
4000E0
C000F0
C00070
C00070
E00030
FFFFF0
7FFFF0
7FFFF0
1FFFF0
ENDCHAR
STARTCHAR 062B
ENCODING 1579
SWIDTH 630 0
DWIDTH 21 0
BBX 20 18 1 5
BITMAP
008000
00E000
01C000
005000
01BC00
01F800
03D800
208040
600060
4000E0
C000F0
C00070
C00070
F00030
FFFFF0
7FFFF0
7FFFF0
1FFFF0
ENDCHAR
STARTCHAR 062C
ENCODING 1580
SWIDTH 570 0
DWIDTH 19 0
BBX 18 24 1 -7
BITMAP
1FC000
3FFF00
7FFF00
7FFE00
E7FE00
8FF000
1F0000
3C0000
780000
700000
604000
C0F000
C0F800
C1F000
C0F000
C02000
E00000
F00000
780000
7F0000
3FFFC0
1FFF80
0FFE00
01F800
ENDCHAR
STARTCHAR 062D
ENCODING 1581
SWIDTH 570 0
DWIDTH 19 0
BBX 18 24 1 -7
BITMAP
1FC000
3FFF00
7FFF00
7FFE00
E7FE00
8FF000
1F0000
3C0000
780000
700000
600000
C00000
C00000
C00000
C00000
C00000
E00000
F00000
780000
7F0000
3FFFC0
1FFF80
0FFE00
01F800
ENDCHAR
STARTCHAR 062E
ENCODING 1582
SWIDTH 570 0
DWIDTH 19 0
BBX 18 32 1 -7
BITMAP
010000
03C000
03E000
07C000
03C000
008000
000000
000000
1FC000
3FFF00
7FFF00
7FFE00
E7FE00
8FF000
1F0000
3C0000
780000
700000
600000
C00000
C00000
C00000
C00000
C00000
E00000
F00000
780000
7F0000
3FFFC0
1FFF80
0FFE00
01F800
ENDCHAR
STARTCHAR 062F
ENCODING 1583
SWIDTH 330 0
DWIDTH 11 0
BBX 9 15 2 5
BITMAP
0400
0600
0700
0700
0F00
0F80
0780
0380
0380
0180
8180
FF80
FF80
FF80
7F80
ENDCHAR
STARTCHAR 0630
ENCODING 1584
SWIDTH 330 0
DWIDTH 11 0
BBX 9 23 2 5
BITMAP
2000
7800
7C00
F800
7800
1000
0000
0000
0400
0600
0700
0700
0F00
0F80
0780
0380
0380
0180
8180
FF80
FF80
FF80
7F80
ENDCHAR
STARTCHAR 0631
ENCODING 1585
SWIDTH 420 0
DWIDTH 14 0
BBX 14 17 0 -2
BITMAP
0010
0018
0018
001C
001C
000C
0004
0004
0004
000C
001C
003C
8078
E1F8
7FF0
1FE0
0780
ENDCHAR
STARTCHAR 0632
ENCODING 1586
SWIDTH 420 0
DWIDTH 14 0
BBX 14 25 0 -2
BITMAP
0040
00F0
00F8
01F0
00F0
0020
0000
0000
0010
0018
0018
001C
001C
000C
0004
0004
0004
000C
001C
003C
8078
E1F8
7FF0
1FE0
0780
ENDCHAR
STARTCHAR 0633
ENCODING 1587
SWIDTH 900 0
DWIDTH 30 0
BBX 29 17 1 -2
BITMAP
00010008
00010118
08018138
10038138
10038118
20018398
6001FFF8
4000FFF8
C000FFF8
C000FE78
C0008000
E0018000
F8078000
FFFF0000
7FFF0000
3FFE0000
0FF00000
ENDCHAR
STARTCHAR 0634
ENCODING 1588
SWIDTH 900 0
DWIDTH 30 0
BBX 29 26 1 -2
BITMAP
00000400
00000700
00000E00
00000280
00000DE0
00000FC0
00001EC0
00000400
00000000
00010008
00010118
08018138
10038138
10038118
20018398
6001FFF8
4000FFF8
C000FFF8
C000FE78
C0008000
E0018000
F8078000
FFFF0000
7FFF0000
3FFE0000
0FF00000
ENDCHAR
STARTCHAR 0635
ENCODING 1589
SWIDTH 1050 0
DWIDTH 35 0
BBX 34 19 1 -2
BITMAP
0000000F00
0000001F80
0001007F80
000100FFC0
080101E1C0
10038780C0
10038F00C0
20019E01C0
6001FFFFC0
4000FFFFC0
C000FFFFC0
C000FFFFC0
C000800000
E001800000
F807800000
FFFF000000
7FFF000000
3FFE000000
0FF0000000
ENDCHAR
STARTCHAR 0636
ENCODING 1590
SWIDTH 1050 0
DWIDTH 35 0
BBX 34 27 1 -2
BITMAP
0000020000
0000078000
000007C000
00000F8000
0000078000
0000010000
0000000000
0000000000
0000000F00
0000001F80
0001007F80
000100FFC0
080101E1C0
10038780C0
10038F00C0
20019E01C0
6001FFFFC0
4000FFFFC0
C000FFFFC0
C000FFFFC0
C000800000
E001800000
F807800000
FFFF000000
7FFF000000
3FFE000000
0FF0000000
ENDCHAR
STARTCHAR 0637
ENCODING 1591
SWIDTH 510 0
DWIDTH 17 0
BBX 18 22 -1 5
BITMAP
040000
060000
0F8000
0F8000
0F8000
070000
070000
060000
060000
030000
030F00
031F80
037FC0
03FFC0
03E1C0
0380C0
0F00C0
1E01C0
FFFFC0
FFFFC0
FFFFC0
FFFFC0
ENDCHAR
STARTCHAR 0638
ENCODING 1592
SWIDTH 510 0
DWIDTH 17 0
BBX 18 22 -1 5
BITMAP
040000
060000
0F8800
0F9E00
0F9F00
073E00
071E00
060400
060000
030000
030F00
031F80
037FC0
03FFC0
03E1C0
0380C0
0F00C0
1E01C0
FFFFC0
FFFFC0
FFFFC0
FFFFC0
ENDCHAR
STARTCHAR 0639
ENCODING 1593
SWIDTH 540 0
DWIDTH 18 0
BBX 17 27 1 -7
BITMAP
07C000
1FF000
3FF800
3C0000
300000
700000
780C00
7C7800
7FF800
3FF000
1FC000
1F0000
3C0000
780000
700000
600000
C00000
C00000
C00000
C00000
E00000
F00000
7E0000
7FFF80
3FFF00
1FFC00
07F000
ENDCHAR
STARTCHAR 063A
ENCODING 1594
SWIDTH 540 0
DWIDTH 18 0
BBX 17 35 1 -7
BITMAP
040000
0F0000
0F8000
1F0000
0F0000
020000
000000
000000
07C000
1FF000
3FF800
3C0000
300000
700000
780C00
7C7800
7FF800
3FF000
1FC000
1F0000
3C0000
780000
700000
600000
C00000
C00000
C00000
C00000
E00000
F00000
7E0000
7FFF80
3FFF00
1FFC00
07F000
ENDCHAR
STARTCHAR 0640
ENCODING 1600
SWIDTH 210 0
DWIDTH 7 0
BBX 8 4 -1 5
BITMAP
FF
FF
FF
FF
ENDCHAR
STARTCHAR 0641
ENCODING 1601
SWIDTH 750 0
DWIDTH 25 0
BBX 24 21 1 5
BITMAP
000010
00003C
00003E
00007C
00003C
000008
000000
000000
00001C
00003E
60007E
60007F
4000CF
C000CF
C000E7
C000F7
F000FF
FFFFFF
FFFFFF
7FFFFF
1FFFFF
ENDCHAR
STARTCHAR 0642
ENCODING 1602
SWIDTH 600 0
DWIDTH 20 0
BBX 19 25 1 -4
BITMAP
000100
001BC0
001F80
003D80
000800
000000
000380
0003C0
0007C0
0007C0
080CE0
100CE0
300FE0
200FE0
600FE0
4007E0
C00020
C00020
C00060
E000E0
FC07E0
FFFFC0
7FFF80
3FFF00
07F800
ENDCHAR
STARTCHAR 0643
ENCODING 1603
SWIDTH 540 0
DWIDTH 18 0
BBX 17 21 1 5
BITMAP
000400
000400
000E00
004F80
00CF80
01CF00
018700
030600
03E600
03E600
23E300
206300
40C300
4F8300
C00300
C00180
F00180
FFFF80
FFFF80
7FFF80
1FFF80
ENDCHAR
STARTCHAR 0644
ENCODING 1604
SWIDTH 450 0
DWIDTH 15 0
BBX 14 27 1 -1
BITMAP
0020
0020
0030
007C
007C
0078
0038
0030
0030
0018
0018
0018
0018
1018
200C
200C
600C
400C
C00C
C00C
C00C
C01C
F07C
FFF8
7FF0
7FE0
1F80
ENDCHAR
STARTCHAR 0645
ENCODING 1605
SWIDTH 360 0
DWIDTH 12 0
BBX 11 21 1 -7
BITMAP
0E00
1F00
1F80
3FC0
23E0
01E0
1FE0
7FE0
7FE0
F000
C000
C000
E000
6000
6000
3000
3000
3000
3000
3000
2000
ENDCHAR
STARTCHAR 0646
ENCODING 1606
SWIDTH 540 0
DWIDTH 18 0
BBX 17 22 1 -2
BITMAP
008000
01E000
01F000
03E000
01E000
004100
000100
080180
100380
100380
200180
600180
400080
C00080
C00080
C00080
E00180
F80780
FFFF00
7FFF00
3FFE00
0FF000
ENDCHAR
STARTCHAR 0647
ENCODING 1607
SWIDTH 330 0
DWIDTH 11 0
BBX 9 13 1 4
BITMAP
2000
3800
7E00
7F00
3F80
6F80
4780
C180
C380
FF80
FF00
FE00
7800
ENDCHAR
STARTCHAR 0648
ENCODING 1608
SWIDTH 450 0
DWIDTH 15 0
BBX 15 18 0 -2
BITMAP
0018
003C
007C
007E
00CE
00C6
00E6
00FE
00FE
007E
003E
000E
001C
803C
E0F8
3FF0
1FE0
07C0
ENDCHAR
STARTCHAR 0649
ENCODING 1609
SWIDTH 630 0
DWIDTH 21 0
BBX 17 17 2 -2
BITMAP
000700
000F80
001F80
003F80
107880
20E080
20C000
60FE00
40FF00
C07F00
C00300
C00E00
E07E00
FFFC00
FFF800
7FE000
3F0000
ENDCHAR
STARTCHAR 064A
ENCODING 1610
SWIDTH 630 0
DWIDTH 21 0
BBX 17 21 2 -6
BITMAP
000700
000F80
001F80
003F80
107880
20E080
20C000
60FE00
40FF00
C07F00
C00300
C00E00
E07E00
FFFC00
FFF800
7FE000
3F0000
003000
037800
07B000
030000
ENDCHAR
STARTCHAR 064B
ENCODING 1611
SWIDTH 210 0
DWIDTH 7 0
BBX 6 5 1 23
BITMAP
04
38
C4
38
C0
ENDCHAR
STARTCHAR 064C
ENCODING 1612
SWIDTH 240 0
DWIDTH 8 0
BBX 7 6 1 23
BITMAP
06
0A
CC
26
2A
70
ENDCHAR
STARTCHAR 064D
ENCODING 1613
SWIDTH 210 0
DWIDTH 7 0
BBX 6 5 1 -4
BITMAP
04
38
C4
38
C0
ENDCHAR
STARTCHAR 064E
ENCODING 1614
SWIDTH 210 0
DWIDTH 7 0
BBX 6 3 1 23
BITMAP
04
38
C0
ENDCHAR
STARTCHAR 064F
ENCODING 1615
SWIDTH 210 0
DWIDTH 7 0
BBX 5 6 2 23
BITMAP
18
28
38
18
28
C0
ENDCHAR
STARTCHAR 0650
ENCODING 1616
SWIDTH 210 0
DWIDTH 7 0
BBX 6 3 1 -2
BITMAP
04
38
C0
ENDCHAR
STARTCHAR 0651
ENCODING 1617
SWIDTH 210 0
DWIDTH 7 0
BBX 7 5 0 23
BITMAP
02
12
9E
FC
E0
ENDCHAR
STARTCHAR 0652
ENCODING 1618
SWIDTH 150 0
DWIDTH 5 0
BBX 4 5 1 23
BITMAP
60
B0
90
F0
60
ENDCHAR
STARTCHAR 0653
ENCODING 1619
SWIDTH 240 0
DWIDTH 8 0
BBX 7 2 0 25
BITMAP
F0
1E
ENDCHAR
STARTCHAR 0654
ENCODING 1620
SWIDTH 210 0
DWIDTH 7 0
BBX 4 4 2 25
BITMAP
60
80
70
C0
ENDCHAR
STARTCHAR 0655
ENCODING 1621
SWIDTH 210 0
DWIDTH 7 0
BBX 4 4 2 -4
BITMAP
60
80
70
C0
ENDCHAR
STARTCHAR 0660
ENCODING 1632
SWIDTH 570 0
DWIDTH 19 0
BBX 6 8 6 7
BITMAP
40
60
78
FC
FC
F8
78
18
ENDCHAR
STARTCHAR 0661
ENCODING 1633
SWIDTH 570 0
DWIDTH 19 0
BBX 6 18 6 5
BITMAP
40
60
60
F0
F0
78
78
38
3C
1C
1C
1C
1C
0C
0C
0C
08
08
ENDCHAR
STARTCHAR 0662
ENCODING 1634
SWIDTH 570 0
DWIDTH 19 0
BBX 10 18 4 5
BITMAP
4040
6040
70C0
FFC0
FFC0
7FC0
3F80
3F00
1C00
1C00
0E00
0E00
0600
0600
0200
0200
0200
0200
ENDCHAR
STARTCHAR 0663
ENCODING 1635
SWIDTH 570 0
DWIDTH 19 0
BBX 13 18 3 5
BITMAP
4088
6098
71F8
FFF8
FFF8
7FF8
7FF0
3EE0
3800
1C00
1C00
1C00
0C00
0C00
0C00
0C00
0800
0800
ENDCHAR
STARTCHAR 0664
ENCODING 1636
SWIDTH 570 0
DWIDTH 19 0
BBX 9 18 5 5
BITMAP
0200
0600
0E00
1C00
3000
6000
FC00
FF00
FE00
3C00
0800
1800
3000
7C00
7F80
7F80
3F00
0700
ENDCHAR
STARTCHAR 0665
ENCODING 1637
SWIDTH 570 0
DWIDTH 19 0
BBX 11 12 4 8
BITMAP
0E00
1F80
3FC0
3FE0
63E0
41E0
C060
E060
FFC0
FFC0
FF80
3E00
ENDCHAR
STARTCHAR 0666
ENCODING 1638
SWIDTH 570 0
DWIDTH 19 0
BBX 12 19 3 5
BITMAP
8000
C0C0
FF80
FF80
FF80
FF80
7F80
0080
0080
0080
00C0
00C0
00E0
00F0
00F0
00F0
0070
0030
0010
ENDCHAR
STARTCHAR 0667
ENCODING 1639
SWIDTH 570 0
DWIDTH 19 0
BBX 13 18 3 5
BITMAP
8008
C018
E018
F038
F038
F838
7870
7870
3C60
1CC0
0CC0
0E80
0680
0680
0380
0300
0100
0100
ENDCHAR
STARTCHAR 0668
ENCODING 1640
SWIDTH 570 0
DWIDTH 19 0
BBX 13 18 3 5
BITMAP
0400
0400
0600
0E00
0B00
0B00
1B00
1B80
19C0
31E0
70E0
70F0
E0F8
E078
E078
C038
C018
8008
ENDCHAR
STARTCHAR 0669
ENCODING 1641
SWIDTH 570 0
DWIDTH 19 0
BBX 11 19 4 5
BITMAP
0F00
3F00
7F80
7F80
E380
C180
FF80
FF80
FF80
3F80
0180
0180
01C0
01E0
01E0
00E0
00C0
00C0
0040
ENDCHAR
STARTCHAR 066A
ENCODING 1642
SWIDTH 510 0
DWIDTH 17 0
BBX 13 23 2 3
BITMAP
3018
7830
7830
3060
0060
00C0
00C0
0180
0180
0300
0300
0700
0600
0600
0C00
0C00
1800
1800
3000
3060
60F0
60F0
C060
ENDCHAR
STARTCHAR 066B
ENCODING 1643
SWIDTH 330 0
DWIDTH 11 0
BBX 4 8 4 1
BITMAP
60
F0
F0
70
30
60
40
80
ENDCHAR
STARTCHAR 066C
ENCODING 1644
SWIDTH 330 0
DWIDTH 11 0
BBX 5 10 3 5
BITMAP
30
70
60
C0
C0
F0
F8
F8
78
70
ENDCHAR
STARTCHAR 066D
ENCODING 1645
SWIDTH 510 0
DWIDTH 17 0
BBX 11 11 3 14
BITMAP
0400
2E80
75C0
3580
0E40
FBE0
4E40
3580
75C0
2E80
0400
ENDCHAR
STARTCHAR 066E
ENCODING 1646
SWIDTH 630 0
DWIDTH 21 0
BBX 20 11 1 5
BITMAP
200040
600060
4000E0
C000F0
C00070
C00070
E00030
FFFFF0
7FFFF0
7FFFF0
1FFFF0
ENDCHAR
STARTCHAR 066F
ENCODING 1647
SWIDTH 600 0
DWIDTH 20 0
BBX 19 19 1 -4
BITMAP
000380
0003C0
0007C0
0007C0
080CE0
100CE0
300FE0
200FE0
600FE0
4007E0
C00020
C00020
C00060
E000E0
FC07E0
FFFFC0
7FFF80
3FFF00
07F800
ENDCHAR
STARTCHAR 0670
ENCODING 1648
SWIDTH 0 0
DWIDTH 0 0
BBX 2 10 -1 17
BITMAP
80
80
80
C0
40
40
40
40
40
40
ENDCHAR
STARTCHAR 0671
ENCODING 1649
SWIDTH 210 0
DWIDTH 7 0
BBX 7 25 -1 4
BITMAP
0E
12
22
FC
80
08
08
18
18
1C
1C
1C
0C
0C
0E
0E
0E
06
06
06
06
06
06
06
06
ENDCHAR
STARTCHAR 0672
ENCODING 1650
SWIDTH 210 0
DWIDTH 7 0
BBX 6 25 0 4
BITMAP
18
20
1C
E0
00
10
10
30
30
38
38
38
18
18
1C
1C
1C
0C
0C
0C
0C
0C
0C
0C
0C
ENDCHAR
STARTCHAR 0673
ENCODING 1651
SWIDTH 210 0
DWIDTH 7 0
BBX 6 26 0 -2
BITMAP
10
10
30
30
38
38
38
18
18
1C
1C
1C
0C
0C
0C
0C
0C
0C
0C
0C
00
00
18
20
1C
E0
ENDCHAR
STARTCHAR 0674
ENCODING 1652
SWIDTH 210 0
DWIDTH 7 0
BBX 4 4 2 25
BITMAP
60
80
70
C0
ENDCHAR
STARTCHAR 0675
ENCODING 1653
SWIDTH 210 0
DWIDTH 7 0
BBX 7 20 2 4
BITMAP
4C
50
CE
D8
E0
E0
E0
60
60
70
70
70
30
30
30
30
30
30
30
30
ENDCHAR
STARTCHAR 0676
ENCODING 1654
SWIDTH 450 0
DWIDTH 15 0
BBX 17 25 0 -2
BITMAP
000300
000400
000380
000600
000000
000000
000000
001800
003C00
007C00
007E00
00CE00
00C600
00E600
00FE00
00FE00
007E00
003E00
000E00
001C00
803C00
E0F800
3FF000
1FE000
07C000
ENDCHAR
STARTCHAR 0677
ENCODING 1655
SWIDTH 450 0
DWIDTH 15 0
BBX 17 26 0 -2
BITMAP
006000
00A300
00E400
006380
00A600
030000
000000
000000
001800
003C00
007C00
007E00
00CE00
00C600
00E600
00FE00
00FE00
007E00
003E00
000E00
001C00
803C00
E0F800
3FF000
1FE000
07C000
ENDCHAR
STARTCHAR 0678
ENCODING 1656
SWIDTH 630 0
DWIDTH 21 0
BBX 19 25 2 -2
BITMAP
0000C0
000100
0000E0
000180
000000
000000
000000
000000
000700
000F80
001F80
003F80
107880
20E080
20C000
60FE00
40FF00
C07F00
C00300
C00E00
E07E00
FFFC00
FFF800
7FE000
3F0000
ENDCHAR
STARTCHAR 0679
ENCODING 1657
SWIDTH 630 0
DWIDTH 21 0
BBX 20 23 1 5
BITMAP
010000
01C000
00C000
008000
004000
004C00
007E00
006200
00C200
03FE00
03FE00
000000
200040
600060
4000E0
C000F0
C00070
C00070
E00030
FFFFF0
7FFFF0
7FFFF0
1FFFF0
ENDCHAR
STARTCHAR 067A
ENCODING 1658
SWIDTH 630 0
DWIDTH 21 0
BBX 20 20 1 5
BITMAP
008000
00E000
01C000
006000
003800
007000
001000
000000
000000
200040
600060
4000E0
C000F0
C00070
C00070
E00030
FFFFF0
7FFFF0
7FFFF0
1FFFF0
ENDCHAR
STARTCHAR 067B
ENCODING 1659
SWIDTH 630 0
DWIDTH 21 0
BBX 20 20 1 -4
BITMAP
200040
600060
4000E0
C000F0
C00070
C00070
E00030
FFFFF0
7FFFF0
7FFFF0
1FFFF0
000000
000000
002000
003800
007000
001800
000E00
001C00
000400
ENDCHAR
STARTCHAR 067C
ENCODING 1660
SWIDTH 630 0
DWIDTH 21 0
BBX 20 19 1 1
BITMAP
001000
01BC00
01F800
03D800
208040
600060
4000E0
C000F0
C00070
C00070
E00030
FFFFF0
7FFFF0
7FFFF0
1FFFF0
00B000
009000
00F000
006000
ENDCHAR
STARTCHAR 067D
ENCODING 1661
SWIDTH 630 0
DWIDTH 21 0
BBX 20 20 1 5
BITMAP
001000
01BC00
01F800
03D800
00A000
003800
007000
001000
000000
200040
600060
4000E0
C000F0
C00070
C00070
E00030
FFFFF0
7FFFF0
7FFFF0
1FFFF0
ENDCHAR
STARTCHAR 067E
ENCODING 1662
SWIDTH 630 0
DWIDTH 21 0
BBX 20 21 1 -5
BITMAP
200040
600060
4000E0
C000F0
C00070
C00070
E00030
FFFFF0
7FFFF0
7FFFF0
1FFFF0
000000
000000
001000
01BC00
01F800
03D800
00A000
003800
007000
001000
ENDCHAR
STARTCHAR 067F
ENCODING 1663
SWIDTH 630 0
DWIDTH 21 0
BBX 20 19 1 5
BITMAP
004000
06F000
07E000
0F7000
03BC00
01F800
03D800
008000
200040
600060
4000E0
C000F0
C00070
C00070
E00030
FFFFF0
7FFFF0
7FFFF0
1FFFF0
ENDCHAR
STARTCHAR 0680
ENCODING 1664
SWIDTH 630 0
DWIDTH 21 0
BBX 20 22 1 -6
BITMAP
200040
600060
4000E0
C000F0
C00070
C00070
E00030
FFFFF0
7FFFF0
7FFFF0
1FFFF0
000000
000000
000000
001000
01BC00
01F800
03DC00
00EF00
007E00
00F600
002000
ENDCHAR
STARTCHAR 0681
ENCODING 1665
SWIDTH 570 0
DWIDTH 19 0
BBX 18 31 1 -7
BITMAP
006000
008000
007000
00C000
000000
000000
000000
1FC000
3FFF00
7FFF00
7FFE00
E7FE00
8FF000
1F0000
3C0000
780000
700000
600000
C00000
C00000
C00000
C00000
C00000
E00000
F00000
780000
7F0000
3FFFC0
1FFF80
0FFE00
01F800
ENDCHAR
STARTCHAR 0682
ENCODING 1666
SWIDTH 570 0
DWIDTH 19 0
BBX 18 35 1 -7
BITMAP
020000
038000
070000
018000
00E000
01C000
004000
000000
000000
000000
000000
1FC000
3FFF00
7FFF00
7FFE00
E7FE00
8FF000
1F0000
3C0000
780000
700000
600000
C00000
C00000
C00000
C00000
C00000
E00000
F00000
780000
7F0000
3FFFC0
1FFF80
0FFE00
01F800
ENDCHAR
STARTCHAR 0683
ENCODING 1667
SWIDTH 570 0
DWIDTH 19 0
BBX 18 24 1 -7
BITMAP
1FC000
3FFF00
7FFF00
7FFE00
E7FE00
8FF000
1F0000
3C0000
780000
701000
61BC00
C1F800
C3D800
C08000
C00000
C00000
E00000
F00000
780000
7F0000
3FFFC0
1FFF80
0FFE00
01F800
ENDCHAR
STARTCHAR 0684
ENCODING 1668
SWIDTH 570 0
DWIDTH 19 0
BBX 18 24 1 -7
BITMAP
1FC000
3FFF00
7FFF00
7FFE00
E7FE00
8FF000
1F0000
3C0000
780000
708000
60E000
C1C000
C06000
C03800
C07000
C01000
E00000
F00000
780000
7F0000
3FFFC0
1FFF80
0FFE00
01F800
ENDCHAR
STARTCHAR 0685
ENCODING 1669
SWIDTH 570 0
DWIDTH 19 0
BBX 18 35 1 -7
BITMAP
010000
01C000
038000
00A000
027800
03F000
07B000
030000
000000
000000
000000
1FC000
3FFF00
7FFF00
7FFE00
E7FE00
8FF000
1F0000
3C0000
780000
700000
600000
C00000
C00000
C00000
C00000
C00000
E00000
F00000
780000
7F0000
3FFFC0
1FFF80
0FFE00
01F800
ENDCHAR
STARTCHAR 0686
ENCODING 1670
SWIDTH 570 0
DWIDTH 19 0
BBX 18 24 1 -7
BITMAP
1FC000
3FFF00
7FFF00
7FFE00
E7FE00
8FF000
1F0000
3C0000
780000
702000
637800
C3F000
C7B000
C14000
C07000
C0E000
E02000
F00000
780000
7F0000
3FFFC0
1FFF80
0FFE00
01F800
ENDCHAR
STARTCHAR 0687
ENCODING 1671
SWIDTH 570 0
DWIDTH 19 0
BBX 18 24 1 -7
BITMAP
1FC000
3FFF00
7FFF00
7FFE00
E7FE00
8FF000
1F0000
3C0000
780000
702000
637800
C3F000
C7B800
C1DE00
C0FC00
C1EC00
E04000
F00000
780000
7F0000
3FFFC0
1FFF80
0FFE00
01F800
ENDCHAR
STARTCHAR 0688
ENCODING 1672
SWIDTH 330 0
DWIDTH 11 0
BBX 10 25 1 5
BITMAP
4000
7000
3000
2000
1000
1300
1F80
1880
3080
FF80
FF80
0000
0200
0300
0380
0380
07C0
07C0
01C0
01C0
40C0
7FC0
7FC0
7FC0
3FC0
ENDCHAR
STARTCHAR 0689
ENCODING 1673
SWIDTH 330 0
DWIDTH 11 0
BBX 9 19 2 1
BITMAP
0400
0600
0700
0700
0F00
0F80
0780
0380
0380
0180
8180
FF80
FF80
FF80
7F80
1600
1200
1E00
0C00
ENDCHAR
STARTCHAR 068A
ENCODING 1674
SWIDTH 330 0
DWIDTH 11 0
BBX 9 23 2 -3
BITMAP
0400
0600
0700
0700
0F00
0F80
0780
0380
0380
0180
8180
FF80
FF80
FF80
7F80
0000
0000
0800
1E00
1F00
3E00
1E00
0400
ENDCHAR
STARTCHAR 068B
ENCODING 1675
SWIDTH 330 0
DWIDTH 11 0
BBX 10 33 1 -3
BITMAP
4000
7000
3000
2000
1000
1300
1F80
1880
3080
FF80
FF80
0000
0200
0300
0380
0380
07C0
07C0
01C0
01C0
40C0
7FC0
7FC0
7FC0
3FC0
0000
0000
0400
0F00
0F80
1F00
0F00
0200
ENDCHAR
STARTCHAR 068C
ENCODING 1676
SWIDTH 330 0
DWIDTH 11 0
BBX 9 23 2 5
BITMAP
0400
6F00
7E00
F600
2000
0000
0000
0000
0400
0600
0700
0700
0F00
0F80
0780
0380
0380
0180
8180
FF80
FF80
FF80
7F80
ENDCHAR
STARTCHAR 068D
ENCODING 1677
SWIDTH 330 0
DWIDTH 11 0
BBX 9 22 2 -2
BITMAP
0400
0600
0700
0700
0F00
0F80
0780
0380
0380
0180
8180
FF80
FF80
FF80
7F80
0000
0000
0200
3780
3F00
7B00
1000
ENDCHAR
STARTCHAR 068E
ENCODING 1678
SWIDTH 330 0
DWIDTH 11 0
BBX 9 24 2 5
BITMAP
2000
3800
7000
1400
4F00
7E00
F600
6000
0000
0000
0000
0400
0600
0700
0700
0F80
0F80
0380
0380
8180
FF80
FF80
FF80
7F80
ENDCHAR
STARTCHAR 068F
ENCODING 1679
SWIDTH 330 0
DWIDTH 11 0
BBX 10 24 1 5
BITMAP
0400
6F00
7E00
F600
2800
0E00
1C00
0400
0000
0000
0000
0200
0300
0380
0380
07C0
07C0
01C0
01C0
40C0
7FC0
7FC0
7FC0
3FC0
ENDCHAR
STARTCHAR 0690
ENCODING 1680
SWIDTH 330 0
DWIDTH 11 0
BBX 10 23 1 5
BITMAP
0400
6F00
7E00
F700
3BC0
1F80
3D80
0800
0000
0000
0200
0300
0380
0380
07C0
07C0
01C0
01C0
40C0
7FC0
7FC0
7FC0
3FC0
ENDCHAR
STARTCHAR 0691
ENCODING 1681
SWIDTH 420 0
DWIDTH 14 0
BBX 14 30 0 -2
BITMAP
0200
0380
0180
0100
0080
0098
00FC
00C4
0184
07FC
07FC
0000
0000
0010
0018
0018
001C
001C
000C
0004
0004
0004
000C
001C
003C
8078
E1F8
7FF0
1FE0
0780
ENDCHAR
STARTCHAR 0692
ENCODING 1682
SWIDTH 420 0
DWIDTH 14 0
BBX 14 23 0 -2
BITMAP
006C
0028
0038
0010
0000
0000
0010
0018
0018
001C
001C
000C
0004
0004
0004
000C
001C
003C
8078
E1F8
7FF0
1FE0
0780
ENDCHAR
STARTCHAR 0693
ENCODING 1683
SWIDTH 420 0
DWIDTH 14 0
BBX 15 18 0 -3
BITMAP
0010
0018
0018
001C
001C
000C
0004
0004
0004
000C
001C
003C
8078
E1FC
7FF6
1FF2
079E
000C
ENDCHAR
STARTCHAR 0694
ENCODING 1684
SWIDTH 420 0
DWIDTH 14 0
BBX 16 22 0 -7
BITMAP
0010
0018
0018
001C
001C
000C
0004
0004
0004
000C
001C
003C
8078
E1F8
7FF0
1FE0
0788
001E
001F
003E
001E
0004
ENDCHAR
STARTCHAR 0695
ENCODING 1685
SWIDTH 420 0
DWIDTH 14 0
BBX 15 21 0 -6
BITMAP
0010
0018
0018
001C
001C
000C
0004
0004
0004
000C
001C
003C
8078
E1F8
7FF0
1FE0
0780
0036
0014
001C
0008
ENDCHAR
STARTCHAR 0696
ENCODING 1686
SWIDTH 420 0
DWIDTH 14 0
BBX 16 22 0 -7
BITMAP
0010
0018
0018
001C
001C
010C
03C4
03E4
07C4
03CC
009C
003C
8078
E1F8
7FF0
1FE0
0788
001E
001F
003E
001E
0004
ENDCHAR
STARTCHAR 0697
ENCODING 1687
SWIDTH 420 0
DWIDTH 14 0
BBX 15 25 0 -2
BITMAP
0008
00DE
00FC
01EC
0040
0000
0000
0000
0010
0018
0018
001C
001C
000C
0004
0004
0004
000C
001C
003C
8078
E1F8
7FF0
1FE0
0780
ENDCHAR
STARTCHAR 0698
ENCODING 1688
SWIDTH 420 0
DWIDTH 14 0
BBX 14 27 0 -2
BITMAP
0080
00E0
01C0
0050
01BC
01F8
03D8
0080
0000
0000
0010
0018
0018
001C
001C
000C
0004
0004
0004
000C
001C
003C
8078
E1F8
7FF0
1FE0
0780
ENDCHAR
STARTCHAR 0699
ENCODING 1689
SWIDTH 420 0
DWIDTH 14 0
BBX 15 28 0 -2
BITMAP
0020
0378
03F0
07B8
01DE
00FC
01EC
0040
0000
0000
0000
0010
0018
0018
001C
001C
000C
0004
0004
0004
000C
001C
003C
8078
E1F8
7FF0
1FE0
0780
ENDCHAR
STARTCHAR 069A
ENCODING 1690
SWIDTH 900 0
DWIDTH 30 0
BBX 29 23 1 -3
BITMAP
00000800
00001E00
00001F00
00003E00
00001E00
00010408
00010118
08018138
10038138
10038118
20018398
6001FFF8
4000FFF8
C000FFF8
C000FE78
C0008000
E0018000
F8078200
FFFF0780
7FFF07C0
3FFE0F80
0FF00780
00000100
ENDCHAR
STARTCHAR 069B
ENCODING 1691
SWIDTH 900 0
DWIDTH 30 0
BBX 29 20 1 -5
BITMAP
00010008
00010118
08018138
10038138
10038118
20018398
6001FFF8
4000FFF8
C000FFF8
C000FE78
C0008000
E0018000
F8078080
FFFF0DE0
7FFF0FC0
3FFE1EC0
0FF00500
000001C0
00000380
00000080
ENDCHAR
STARTCHAR 069C
ENCODING 1692
SWIDTH 900 0
DWIDTH 30 0
BBX 29 29 1 -5
BITMAP
00000400
00000700
00000E00
00000280
00000DE0
00000FC0
00001EC0
00000400
00000000
00010008
00010118
08018138
10038138
10038118
20018398
6001FFF8
4000FFF8
C000FFF8
C000FE78
C0008000
E0018000
F8078080
FFFF0DE0
7FFF0FC0
3FFE1EC0
0FF00500
000001C0
00000380
00000080
ENDCHAR
STARTCHAR 069D
ENCODING 1693
SWIDTH 1050 0
DWIDTH 35 0
BBX 34 19 1 -2
BITMAP
0000000F00
0000001F80
0001007F80
000100FFC0
080101E1C0
10038780C0
10038F00C0
20019E01C0
6001FFFFC0
4000FFFFC0
C000FFFFC0
C000FFFFC0
C000800000
E001800000
F807801000
FFFF01BC00
7FFF01F800
3FFE03D800
0FF0008000
ENDCHAR
STARTCHAR 069E
ENCODING 1694
SWIDTH 1050 0
DWIDTH 35 0
BBX 34 29 1 -2
BITMAP
0000040000
0000070000
00000E0000
0000028000
000009E000
00000FC000
00001EC000
00000C0000
0000000000
0000000000
0000000F00
0000001F80
0001007F80
000100FFC0
080101E1C0
10038780C0
10038F00C0
20019E01C0
6001FFFFC0
4000FFFFC0
C000FFFFC0
C000FFFFC0
C000800000
E001800000
F807800000
FFFF000000
7FFF000000
3FFE000000
0FF0000000
ENDCHAR
STARTCHAR 069F
ENCODING 1695
SWIDTH 510 0
DWIDTH 17 0
BBX 18 23 -1 5
BITMAP
000800
040E00
061C00
0F8500
0F93C0
0F9F80
073D80
071800
060000
060000
030000
030F00
031F80
037FC0
03FFC0
03E1C0
0380C0
0F00C0
1E01C0
FFFFC0
FFFFC0
FFFFC0
FFFFC0
ENDCHAR
STARTCHAR 06A0
ENCODING 1696
SWIDTH 540 0
DWIDTH 18 0
BBX 17 36 1 -7
BITMAP
100000
1C0000
380000
0A0000
278000
3F0000
7B0000
300000
000000
07C000
1FF000
3FF800
3C0000
300000
700000
780C00
7C7800
7FF800
3FF000
1FC000
1F0000
3C0000
780000
700000
600000
C00000
C00000
C00000
C00000
E00000
F00000
7E0000
7FFF80
3FFF00
1FFC00
07F000
ENDCHAR
STARTCHAR 06A1
ENCODING 1697
SWIDTH 750 0
DWIDTH 25 0
BBX 24 13 1 5
BITMAP
00001C
00003E
60007E
60007F
4000CF
C000CF
C000E7
C000F7
F000FF
FFFFFF
FFFFFF
7FFFFF
1FFFFF
ENDCHAR
STARTCHAR 06A2
ENCODING 1698
SWIDTH 750 0
DWIDTH 25 0
BBX 24 21 1 -3
BITMAP
00001C
00003E
60007E
60007F
4000CF
C000CF
C000E7
C000F7
F000FF
FFFFFF
FFFFFF
7FFFFF
1FFFFF
000000
000000
000010
00003C
00003E
00007C
00003C
000008
ENDCHAR
STARTCHAR 06A3
ENCODING 1699
SWIDTH 750 0
DWIDTH 25 0
BBX 24 29 1 -3
BITMAP
000010
00003C
00003E
00007C
00003C
000008
000000
000000
00001C
00003E
60007E
60007F
4000CF
C000CF
C000E7
C000F7
F000FF
FFFFFF
FFFFFF
7FFFFF
1FFFFF
000000
000000
000800
001E00
001F00
003E00
001E00
000400
ENDCHAR
STARTCHAR 06A4
ENCODING 1700
SWIDTH 750 0
DWIDTH 25 0
BBX 24 23 1 5
BITMAP
000040
000070
0000E0
000028
00009E
0000FC
0001EC
0000C0
000000
000000
00001C
00003E
60007E
60007F
4000CF
C000CF
C000E7
C000F7
F000FF
FFFFFF
FFFFFF
7FFFFF
1FFFFF
ENDCHAR
STARTCHAR 06A5
ENCODING 1701
SWIDTH 750 0
DWIDTH 25 0
BBX 24 23 1 -5
BITMAP
00001C
00003E
60007E
60007F
4000CF
C000CF
C000E7
C000F7
F000FF
FFFFFF
FFFFFF
7FFFFF
1FFFFF
000000
000000
000004
00006F
00007E
0000F6
000028
00000E
00001C
000004
ENDCHAR
STARTCHAR 06A6
ENCODING 1702
SWIDTH 750 0
DWIDTH 25 0
BBX 24 23 1 5
BITMAP
000020
000378
0003F0
0007B8
0001DE
0000FC
0001EC
000040
000000
000000
00001C
00003E
60007E
60007F
4000CF
C000CF
C000E7
C000F7
F000FF
FFFFFF
FFFFFF
7FFFFF
1FFFFF
ENDCHAR
STARTCHAR 06A7
ENCODING 1703
SWIDTH 600 0
DWIDTH 20 0
BBX 19 26 1 -4
BITMAP
000400
000F00
000F80
001F00
000700
000200
000000
000380
0003C0
0007C0
0007C0
080CE0
100CE0
300FE0
200FE0
600FE0
4007E0
C00020
C00020
C00060
E000E0
FC07E0
FFFFC0
7FFF80
3FFF00
07F800
ENDCHAR
STARTCHAR 06A8
ENCODING 1704
SWIDTH 600 0
DWIDTH 20 0
BBX 19 30 1 -4
BITMAP
000800
000E00
001C00
000500
0013C0
001F80
003D80
001800
000000
000000
000000
000380
0003C0
0007C0
0007C0
080CE0
100CE0
300FE0
200FE0
600FE0
4007E0
C00020
C00020
C00060
E000E0
FC07E0
FFFFC0
7FFF80
3FFF00
07F800
ENDCHAR
STARTCHAR 06A9
ENCODING 1705
SWIDTH 750 0
DWIDTH 25 0
BBX 24 18 1 5
BITMAP
000002
00001E
00007E
0001FE
0003F8
0003E0
0003C0
0003E0
2003F0
6001F8
4000BC
C0001E
C0000E
E00007
FFFFFF
FFFFFF
7FFFFF
1FFFFF
ENDCHAR
STARTCHAR 06AA
ENCODING 1706
SWIDTH 750 0
DWIDTH 25 0
BBX 24 17 1 5
BITMAP
000400
001C00
007C00
01FC00
03F000
038000
03E000
03FE00
43FFE0
40FFFC
C03FFE
C001FF
E0001F
FFFFFF
FFFFFF
7FFFFF
1FFFFF
ENDCHAR
STARTCHAR 06AB
ENCODING 1707
SWIDTH 750 0
DWIDTH 25 0
BBX 24 18 1 5
BITMAP
000002
00001E
00007E
0001FE
0003FB
0003E9
0003CF
0003E6
2003F0
6001F8
4000BC
C0001E
C0000E
E00007
FFFFFF
FFFFFF
7FFFFF
1FFFFF
ENDCHAR
STARTCHAR 06AC
ENCODING 1708
SWIDTH 540 0
DWIDTH 18 0
BBX 17 24 1 5
BITMAP
010000
03C000
03E000
07C400
03C400
008E00
000F80
004F80
00CF00
01C700
018600
030600
03E600
23E300
23E300
406300
40C300
CF8300
C00180
F00180
FFFF80
FFFF80
7FFF80
1FFF80
ENDCHAR
STARTCHAR 06AD
ENCODING 1709
SWIDTH 540 0
DWIDTH 18 0
BBX 17 22 1 5
BITMAP
030000
066400
00C400
060E00
0C4F80
00CF80
01CF00
018700
030600
03E600
03E600
23E300
206300
40C300
4F8300
C00300
C00180
F00180
FFFF80
FFFF80
7FFF80
1FFF80
ENDCHAR
STARTCHAR 06AE
ENCODING 1710
SWIDTH 540 0
DWIDTH 18 0
BBX 17 31 1 -5
BITMAP
000400
000400
000E00
004F80
00CF80
01CF00
018700
030600
03E600
03E600
23E300
206300
40C300
4F8300
C00300
C00180
F00180
FFFF80
FFFF80
7FFF80
1FFF80
000000
000000
001000
01BC00
01F800
03D800
00A000
003800
007000
001000
ENDCHAR
STARTCHAR 06AF
ENCODING 1711
SWIDTH 750 0
DWIDTH 25 0
BBX 24 24 1 5
BITMAP
000002
00000E
00003E
0000FE
0001FC
0003E0
000702
00041E
00007E
0001FE
0003F8
0003E0
0003C0
0003E0
2003F0
6001F8
4000BC
C0001E
C0000E
E00007
FFFFFF
FFFFFF
7FFFFF
1FFFFF
ENDCHAR
STARTCHAR 06B0
ENCODING 1712
SWIDTH 750 0
DWIDTH 25 0
BBX 24 24 1 5
BITMAP
000002
00000E
00003E
0000FE
0001FC
0003E0
000702
00041E
00007E
0001FF
0003FF
0003EF
0003CF
0003E6
2003F0
6001F8
4000BC
C0001E
C0000E
E00007
FFFFFF
FFFFFF
7FFFFF
1FFFFF
ENDCHAR
STARTCHAR 06B1
ENCODING 1713
SWIDTH 750 0
DWIDTH 25 0
BBX 24 24 1 5
BITMAP
000030
0001E2
00030E
00003E
0000FE
0001FC
0003E2
00071E
00047E
0001FE
0003F8
0003E0
0003C0
0003E0
2003F0
6001F8
4000BC
C0001E
C0000E
E00007
FFFFFF
FFFFFF
7FFFFF
1FFFFF
ENDCHAR
STARTCHAR 06B2
ENCODING 1714
SWIDTH 750 0
DWIDTH 25 0
BBX 24 31 1 -2
BITMAP
000002
00000E
00003E
0000FE
0001FC
0003E0
000702
00041E
00007E
0001FE
0003F8
0003E0
0003C0
0003E0
2003F0
6001F8
4000BC
C0001E
C0000E
E00007
FFFFFF
FFFFFF
7FFFFF
1FFFFF
000000
000000
000200
003780
003F00
007B00
001000
ENDCHAR
STARTCHAR 06B3
ENCODING 1715
SWIDTH 750 0
DWIDTH 25 0
BBX 24 33 1 -4
BITMAP
000002
00000E
00003E
0000FE
0001FC
0003E0
000702
00041E
00007E
0001FE
0003F8
0003E0
0003C0
0003E0
2003F0
6001F8
4000BC
C0001E
C0000E
E00007
FFFFFF
FFFFFF
7FFFFF
1FFFFF
000000
000000
001000
001C00
003800
000C00
000700
000E00
000200
ENDCHAR
STARTCHAR 06B4
ENCODING 1716
SWIDTH 750 0
DWIDTH 25 0
BBX 24 24 1 5
BITMAP
000300
000662
00000E
00061E
00007E
0001FC
0003E2
00071E
00047E
0001FE
0003F8
0003E0
0003C0
0003E0
2003F0
6001F8
4000BC
C0001E
C0000E
E00007
FFFFFF
FFFFFF
7FFFFF
1FFFFF
ENDCHAR
STARTCHAR 06B5
ENCODING 1717
SWIDTH 450 0
DWIDTH 15 0
BBX 14 30 1 -1
BITMAP
01B0
00A0
00E0
0040
0020
0020
0070
007C
0078
0038
0030
0030
0018
0018
0018
0018
1018
200C
200C
600C
400C
C00C
C00C
C00C
C01C
F07C
FFF8
7FF0
7FE0
1F80
ENDCHAR
STARTCHAR 06B6
ENCODING 1718
SWIDTH 450 0
DWIDTH 15 0
BBX 14 30 1 -1
BITMAP
0200
0780
07C0
0F80
07A0
0120
0070
007C
0078
0038
0030
0030
0018
0018
0018
0018
1018
200C
200C
600C
400C
C00C
C00C
C00C
C01C
F07C
FFF8
7FF0
7FE0
1F80
ENDCHAR
STARTCHAR 06B7
ENCODING 1719
SWIDTH 450 0
DWIDTH 15 0
BBX 14 30 1 -1
BITMAP
00C0
0198
0030
0180
0320
0020
0070
007C
0078
0038
0030
0030
0018
0018
0018
0018
1018
200C
200C
600C
400C
C00C
C00C
C00C
C01C
F07C
FFF8
7FF0
7FE0
1F80
ENDCHAR
STARTCHAR 06B8
ENCODING 1720
SWIDTH 450 0
DWIDTH 15 0
BBX 14 32 1 -6
BITMAP
0020
0020
0030
007C
007C
0078
0038
0030
0030
0018
0018
0018
0018
1018
200C
200C
600C
400C
C00C
C00C
C00C
C01C
F07C
FFF8
7FF0
7FE0
1F80
0000
0000
00C0
0600
0180
ENDCHAR
STARTCHAR 06B9
ENCODING 1721
SWIDTH 540 0
DWIDTH 18 0
BBX 17 27 1 -7
BITMAP
008000
01E000
01F000
03E000
01E100
004100
080180
100380
100380
200180
600180
400080
C00080
C00080
C00080
E00180
F80780
FFFF00
7FFF00
3FFE00
0FF000
008000
01E000
01F000
03E000
01E000
004000
ENDCHAR
STARTCHAR 06BA
ENCODING 1722
SWIDTH 540 0
DWIDTH 18 0
BBX 17 17 1 -2
BITMAP
000100
000100
080180
100380
100380
200180
600180
400080
C00080
C00080
C00080
E00180
F80780
FFFF00
7FFF00
3FFE00
0FF000
ENDCHAR
STARTCHAR 06BB
ENCODING 1723
SWIDTH 540 0
DWIDTH 18 0
BBX 17 29 1 -2
BITMAP
040000
070000
030000
020000
010000
013000
01F800
018800
030800
0FF800
0FF800
000000
000100
000100
080180
100380
100380
200180
600180
400080
C00080
C00080
C00080
E00180
F80780
FFFF00
7FFF00
3FFE00
0FF000
ENDCHAR
STARTCHAR 06BC
ENCODING 1724
SWIDTH 540 0
DWIDTH 18 0
BBX 17 26 1 -6
BITMAP
008000
01E000
01F000
03E000
01E000
004100
000100
080180
100380
100380
200180
600180
400080
C00080
C00080
C00080
E00180
F80780
FFFF00
7FFF00
3FFE00
0FF000
02C000
024000
03C000
018000
ENDCHAR
STARTCHAR 06BD
ENCODING 1725
SWIDTH 540 0
DWIDTH 18 0
BBX 17 26 1 -2
BITMAP
010000
01C000
038000
00A000
027800
03F000
07B000
030000
000000
000100
000100
080180
100380
100380
200180
600180
400080
C00080
C00080
C00080
E00180
F80780
FFFF00
7FFF00
3FFE00
0FF000
ENDCHAR
STARTCHAR 06BE
ENCODING 1726
SWIDTH 450 0
DWIDTH 15 0
BBX 14 17 -1 4
BITMAP
0200
0300
0780
07C0
03E0
07E0
0FF0
1CF0
18F8
1DD8
1F8C
1FCC
FFFC
FFFC
FDFC
F078
0018
ENDCHAR
STARTCHAR 06BF
ENCODING 1727
SWIDTH 570 0
DWIDTH 19 0
BBX 18 31 1 -7
BITMAP
010000
03C000
03E000
07C000
03C000
008000
000000
1FC000
3FFF00
7FFF00
7FFE00
E7FE00
8FF000
1F0000
3C0000
780000
702000
637800
C3F000
C7B000
C14000
C07000
C0E000
E02000
F00000
780000
7F0000
3FFFC0
1FFF80
0FFE00
01F800
ENDCHAR
STARTCHAR 06C0
ENCODING 1728
SWIDTH 330 0
DWIDTH 11 0
BBX 9 19 1 4
BITMAP
3000
4000
3800
6000
0000
0000
2000
3800
7E00
7F00
3F80
6F80
4780
C180
C380
FF80
FF00
FE00
7800
ENDCHAR
STARTCHAR 06C1
ENCODING 1729
SWIDTH 390 0
DWIDTH 13 0
BBX 13 10 0 3
BITMAP
0300
0F80
0FC0
1FE0
39F8
30F8
6078
4038
C000
8000
ENDCHAR
STARTCHAR 06C2
ENCODING 1730
SWIDTH 390 0
DWIDTH 13 0
BBX 13 16 0 3
BITMAP
0600
0800
0700
0C00
0000
0000
0300
0F80
0FC0
1FE0
39F8
30F8
6078
4038
C000
8000
ENDCHAR
STARTCHAR 06C3
ENCODING 1731
SWIDTH 390 0
DWIDTH 13 0
BBX 13 17 0 3
BITMAP
0100
1BC0
1F80
3D80
0800
0000
0000
0300
0F80
0FC0
1FE0
39F8
30F8
6078
4038
C000
8000
ENDCHAR
STARTCHAR 06C4
ENCODING 1732
SWIDTH 450 0
DWIDTH 15 0
BBX 15 18 0 -2
BITMAP
0018
003C
007C
007E
00CE
00C6
00E6
00FE
00FE
007E
003E
018E
02DC
827C
E3F8
3FF0
1FE0
07C0
ENDCHAR
STARTCHAR 06C5
ENCODING 1733
SWIDTH 450 0
DWIDTH 15 0
BBX 15 18 0 -2
BITMAP
0018
003C
007C
007E
00CE
00C6
00E6
00FE
00FE
007E
003E
0F0E
01FC
803C
E0F8
3FF8
1FF0
03C0
ENDCHAR
STARTCHAR 06C6
ENCODING 1734
SWIDTH 450 0
DWIDTH 15 0
BBX 15 24 0 -2
BITMAP
006C
0028
0038
0010
0000
0000
0018
003C
007C
007E
00CE
00C6
00E6
00FE
00FE
007E
003E
000E
001C
803C
E0F8
3FF0
1FE0
07C0
ENDCHAR
STARTCHAR 06C7
ENCODING 1735
SWIDTH 450 0
DWIDTH 15 0
BBX 15 27 0 -2
BITMAP
0018
0028
0038
0018
0028
00C0
0000
0000
0000
0018
003C
007C
007E
00CE
00C6
00E6
00FE
00FE
007E
003E
000E
001C
803C
E0F8
3FF0
1FE0
07C0
ENDCHAR
STARTCHAR 06C8
ENCODING 1736
SWIDTH 450 0
DWIDTH 15 0
BBX 15 29 0 -2
BITMAP
0020
0020
0020
0030
0010
0010
0010
0010
0010
0010
0000
0018
003C
007C
007E
00CE
00C6
00E6
00FE
00FE
007E
003E
000E
001C
803C
E0F8
3FF0
1FE0
07C0
ENDCHAR
STARTCHAR 06C9
ENCODING 1737
SWIDTH 450 0
DWIDTH 15 0
BBX 15 24 0 -2
BITMAP
0010
0038
0028
006C
0000
0000
0018
003C
007C
007E
00CE
00C6
00E6
00FE
00FE
007E
003E
000E
001C
803C
E0F8
3FF0
1FE0
07C0
ENDCHAR
STARTCHAR 06CA
ENCODING 1738
SWIDTH 450 0
DWIDTH 15 0
BBX 15 25 0 -2
BITMAP
0008
00DE
00FC
01EC
0040
0000
0000
0018
003C
007C
007E
00CE
00C6
00E6
00FE
00FE
007E
003E
000E
001C
803C
E0F8
3FF0
1FE0
07C0
ENDCHAR
STARTCHAR 06CB
ENCODING 1739
SWIDTH 450 0
DWIDTH 15 0
BBX 15 28 0 -2
BITMAP
0040
0070
00E0
0028
009E
00FC
01EC
00C0
0000
0000
0018
003C
007C
007E
00CE
00C6
00E6
00FE
00FE
007E
003E
000E
001C
803C
E0F8
3FF0
1FE0
07C0
ENDCHAR
STARTCHAR 06CC
ENCODING 1740
SWIDTH 630 0
DWIDTH 21 0
BBX 17 17 2 -2
BITMAP
000700
000F80
001F80
003F80
107880
20E080
20C000
60FE00
40FF00
C07F00
C00300
C00E00
E07E00
FFFC00
FFF800
7FE000
3F0000
ENDCHAR
STARTCHAR 06CD
ENCODING 1741
SWIDTH 630 0
DWIDTH 21 0
BBX 18 17 1 -2
BITMAP
000380
0007C0
000FC0
001FC0
183C40
707040
906000
307F00
207F80
603F80
600180
600700
703F00
7FFE00
7FFC00
3FF000
1F8000
ENDCHAR
STARTCHAR 06CE
ENCODING 1742
SWIDTH 630 0
DWIDTH 21 0
BBX 17 20 2 -2
BITMAP
0D8000
050000
070000
020700
000F80
001F80
003F80
107880
20E080
20C000
60FE00
40FF00
C07F00
C00300
C00E00
E07E00
FFFC00
FFF800
7FE000
3F0000
ENDCHAR
STARTCHAR 06CF
ENCODING 1743
SWIDTH 450 0
DWIDTH 15 0
BBX 15 25 0 -2
BITMAP
0040
00F0
00F8
01F0
00F0
0020
0000
0018
003C
007C
007E
00CE
00C6
00E6
00FE
00FE
007E
003E
000E
001C
803C
E0F8
3FF0
1FE0
07C0
ENDCHAR
STARTCHAR 06D0
ENCODING 1744
SWIDTH 630 0
DWIDTH 21 0
BBX 17 21 2 -6
BITMAP
000700
000F80
001F80
003F80
107880
20E080
20C000
60FE00
40FF00
C07F00
C00300
C00E00
E07E00
FFFC00
FFF800
7FE000
3F0000
000000
030000
000000
030000
ENDCHAR
STARTCHAR 06D1
ENCODING 1745
SWIDTH 630 0
DWIDTH 21 0
BBX 17 21 2 -6
BITMAP
000700
000F80
001F80
003F80
107880
20E080
20C000
60FE00
40FF00
C07F00
C00300
C00E00
E07E00
FFFC00
FFF800
7FE000
3F0000
000000
018000
0C0000
030000
ENDCHAR
STARTCHAR 06D2
ENCODING 1746
SWIDTH 810 0
DWIDTH 27 0
BBX 26 16 1 -1
BITMAP
00180000
00380000
007C0000
00FC0000
01CC0000
07840000
1F800000
3F000000
7E000000
78000000
E0000000
C0000000
FFFFFFC0
FFFFFF80
FFFFFF00
FFFFFC00
ENDCHAR
STARTCHAR 06D3
ENCODING 1747
SWIDTH 810 0
DWIDTH 27 0
BBX 26 20 1 -1
BITMAP
01800000
02000000
01C00000
03000000
00180000
00380000
007C0000
00FC0000
01CC0000
07840000
1F800000
3F000000
7E000000
78000000
E0000000
C0000000
FFFFFFC0
FFFFFF80
FFFFFF00
FFFFFC00
ENDCHAR
STARTCHAR 06D4
ENCODING 1748
SWIDTH 210 0
DWIDTH 7 0
BBX 5 4 1 5
BITMAP
F8
F8
F8
F8
ENDCHAR
STARTCHAR 06D5
ENCODING 1749
SWIDTH 330 0
DWIDTH 11 0
BBX 9 13 1 4
BITMAP
2000
3800
7E00
7F00
3F80
6F80
4780
C180
C380
FF80
FF00
FE00
7800
ENDCHAR
STARTCHAR 06D6
ENCODING 1750
SWIDTH 0 0
DWIDTH 0 0
BBX 15 12 -8 17
BITMAP
1000
1C00
0C00
080C
051E
05B2
1FFE
3FFE
6000
4000
FFF0
FFF0
ENDCHAR
STARTCHAR 06D7
ENCODING 1751
SWIDTH 0 0
DWIDTH 0 0
BBX 12 12 -6 17
BITMAP
20C0
3B00
1880
1140
09C0
0840
1FC0
3FC0
6000
C000
FFF0
FFF0
ENDCHAR
STARTCHAR 06D8
ENCODING 1752
SWIDTH 0 0
DWIDTH 0 0
BBX 7 5 -4 17
BITMAP
0C
1E
12
FE
E6
ENDCHAR
STARTCHAR 06D9
ENCODING 1753
SWIDTH 0 0
DWIDTH 0 0
BBX 7 10 -3 17
BITMAP
04
86
C6
E4
34
1C
08
14
3C
38
ENDCHAR
STARTCHAR 06DA
ENCODING 1754
SWIDTH 0 0
DWIDTH 0 0
BBX 8 11 -4 17
BITMAP
7E
FE
B0
40
88
9C
88
80
E0
7F
3C
ENDCHAR
STARTCHAR 06DB
ENCODING 1755
SWIDTH 0 0
DWIDTH 0 0
BBX 4 4 -2 17
BITMAP
60
60
B0
D0
ENDCHAR
STARTCHAR 06DC
ENCODING 1756
SWIDTH 0 0
DWIDTH 0 0
BBX 14 8 -6 17
BITMAP
0214
4314
4314
81FC
81FC
C300
FF00
7E00
ENDCHAR
STARTCHAR 06DD
ENCODING 1757
SWIDTH 1110 0
DWIDTH 37 0
BBX 35 35 1 -6
BITMAP
0003F80000
001FFF0000
01FC07F000
026000C800
027FFFC800
027FFFC800
0780003C00
0C00000600
1800000300
3800000380
3000000180
60000000C0
60000000C0
60000000C0
C000000060
C000000060
C000000060
C000000060
C000000060
C000000060
C000000060
60000000C0
60000000C0
60000000C0
3000000180
3000000380
1800000300
0C00000600
0780003C00
027FFFC800
027FFFC800
026000C800
01FC07F000
001FFF0000
0007F80000
ENDCHAR
STARTCHAR 06DE
ENCODING 1758
SWIDTH 1080 0
DWIDTH 36 0
BBX 33 33 2 -4
BITMAP
0000800000
0001C00000
0003600000
0006300000
000C180000
07FFFFF000
0430061000
0460031000
04C0019000
058000D000
0700007000
0600003000
0C00001800
1C01C01C00
3402201600
6404101300
C404101180
6404101300
3402201600
1C01C01C00
0C00001800
0600003000
0700007000
058000D000
04C0019000
0460031000
0430061000
07FFFFF000
000C180000
0006300000
0003600000
0001C00000
0000800000
ENDCHAR
STARTCHAR 06DF
ENCODING 1759
SWIDTH 0 0
DWIDTH 0 0
BBX 2 2 -1 17
BITMAP
C0
C0
ENDCHAR
STARTCHAR 06E0
ENCODING 1760
SWIDTH 0 0
DWIDTH 0 0
BBX 2 2 -1 17
BITMAP
C0
C0
ENDCHAR
STARTCHAR 06E1
ENCODING 1761
SWIDTH 0 0
DWIDTH 0 0
BBX 9 6 -4 17
BITMAP
1800
3C00
0600
0300
FF80
FF80
ENDCHAR
STARTCHAR 06E2
ENCODING 1762
SWIDTH 0 0
DWIDTH 0 0
BBX 5 10 -3 17
BITMAP
20
70
58
78
F8
80
C0
40
40
40
ENDCHAR
STARTCHAR 06E3
ENCODING 1763
SWIDTH 0 0
DWIDTH 0 0
BBX 14 8 -6 -7
BITMAP
0214
4314
4314
81FC
81FC
C300
FF00
7E00
ENDCHAR
STARTCHAR 06E4
ENCODING 1764
SWIDTH 0 0
DWIDTH 0 0
BBX 4 1 -2 17
BITMAP
F0
ENDCHAR
STARTCHAR 06E5
ENCODING 1765
SWIDTH 210 0
DWIDTH 7 0
BBX 7 9 0 17
BITMAP
04
0E
0A
0E
0E
02
8E
7C
38
ENDCHAR
STARTCHAR 06E6
ENCODING 1766
SWIDTH 360 0
DWIDTH 12 0
BBX 12 8 0 17
BITMAP
0400
0E00
1A00
7000
E000
8000
FFF0
FFE0
ENDCHAR
STARTCHAR 06E7
ENCODING 1767
SWIDTH 0 0
DWIDTH 0 0
BBX 12 8 -6 17
BITMAP
0400
0E00
1A00
7000
E000
8000
FFF0
FFE0
ENDCHAR
STARTCHAR 06E8
ENCODING 1768
SWIDTH 0 0
DWIDTH 0 0
BBX 8 11 -4 17
BITMAP
08
1C
08
02
43
43
81
81
C3
FF
7C
ENDCHAR
STARTCHAR 06E9
ENCODING 1769
SWIDTH 600 0
DWIDTH 20 0
BBX 19 27 0 0
BITMAP
004000
00A000
011000
024800
04A400
095200
12A900
271C80
4C0640
920920
491240
251480
351580
151500
151500
151500
151500
151500
151500
151500
151500
151500
15F500
340580
27FC80
400040
FFFFE0
ENDCHAR
STARTCHAR 06EA
ENCODING 1770
SWIDTH 0 0
DWIDTH 0 0
BBX 5 5 -3 -6
BITMAP
20
50
88
50
20
ENDCHAR
STARTCHAR 06EB
ENCODING 1771
SWIDTH 0 0
DWIDTH 0 0
BBX 5 5 -3 17
BITMAP
20
50
88
50
20
ENDCHAR
STARTCHAR 06EC
ENCODING 1772
SWIDTH 0 0
DWIDTH 0 0
BBX 2 2 -1 17
BITMAP
C0
C0
ENDCHAR
STARTCHAR 06ED
ENCODING 1773
SWIDTH 0 0
DWIDTH 0 0
BBX 5 10 -3 -7
BITMAP
20
70
58
78
F8
80
C0
40
40
40
ENDCHAR
STARTCHAR 06F0
ENCODING 1776
SWIDTH 570 0
DWIDTH 19 0
BBX 6 8 6 7
BITMAP
40
60
78
FC
FC
F8
78
18
ENDCHAR
STARTCHAR 06F1
ENCODING 1777
SWIDTH 570 0
DWIDTH 19 0
BBX 6 18 6 5
BITMAP
40
60
60
F0
F0
78
78
38
3C
1C
1C
1C
1C
0C
0C
0C
08
08
ENDCHAR
STARTCHAR 06F2
ENCODING 1778
SWIDTH 570 0
DWIDTH 19 0
BBX 10 18 4 5
BITMAP
4040
6040
70C0
FFC0
FFC0
7FC0
3F80
3F00
1C00
1C00
0E00
0E00
0600
0600
0200
0200
0200
0200
ENDCHAR
STARTCHAR 06F3
ENCODING 1779
SWIDTH 570 0
DWIDTH 19 0
BBX 13 18 3 5
BITMAP
4088
6098
71F8
FFF8
FFF8
7FF8
7FF0
3EE0
3800
1C00
1C00
1C00
0C00
0C00
0C00
0C00
0800
0800
ENDCHAR
STARTCHAR 06F4
ENCODING 1780
SWIDTH 570 0
DWIDTH 19 0
BBX 13 19 2 5
BITMAP
00E0
21F0
3300
7A00
7E18
FFF8
7FF8
3FF0
3FE0
1FC0
0E00
0E00
0E00
0600
0600
0600
0600
0400
0400
ENDCHAR
STARTCHAR 06F5
ENCODING 1781
SWIDTH 570 0
DWIDTH 19 0
BBX 13 18 3 5
BITMAP
0400
0600
0700
0F80
07C0
07E0
0DE0
18F0
3070
3038
6038
6018
E118
F3F8
FFF0
FFF0
7EE0
3C00
ENDCHAR
STARTCHAR 06F6
ENCODING 1782
SWIDTH 570 0
DWIDTH 19 0
BBX 11 19 4 5
BITMAP
0700
1F80
3FC0
3000
6000
F060
FFE0
FFC0
FFC0
7F80
1E00
1C00
1800
3800
3000
3000
3000
2000
2000
ENDCHAR
STARTCHAR 06F7
ENCODING 1783
SWIDTH 570 0
DWIDTH 19 0
BBX 13 18 3 5
BITMAP
8008
C018
E018
F038
F038
F838
7870
7870
3C60
1CC0
0CC0
0E80
0680
0680
0380
0300
0100
0100
ENDCHAR
STARTCHAR 06F8
ENCODING 1784
SWIDTH 570 0
DWIDTH 19 0
BBX 13 18 3 5
BITMAP
0400
0400
0600
0E00
0B00
0B00
1B00
1B80
19C0
31E0
70E0
70F0
E0F8
E078
E078
C038
C018
8008
ENDCHAR
STARTCHAR 06F9
ENCODING 1785
SWIDTH 570 0
DWIDTH 19 0
BBX 11 19 4 5
BITMAP
0F00
3F00
7F80
7F80
E380
C180
FF80
FF80
FF80
3F80
0180
0180
01C0
01E0
01E0
00E0
00C0
00C0
0040
ENDCHAR
STARTCHAR 06FA
ENCODING 1786
SWIDTH 900 0
DWIDTH 30 0
BBX 29 27 1 -3
BITMAP
00000400
00000700
00000E00
00000280
00000DE0
00000FC0
00001EC0
00000400
00000000
00010008
00010118
08018138
10038138
10038118
20018398
6001FFF8
4000FFF8
C000FFF8
C000FE78
C0008000
E0018000
F8078200
FFFF0780
7FFF07C0
3FFE0F80
0FF00780
00000100
ENDCHAR
STARTCHAR 06FB
ENCODING 1787
SWIDTH 1050 0
DWIDTH 35 0
BBX 34 28 1 -3
BITMAP
0000020000
0000078000
000007C000
00000F8000
0000078000
0000010000
0000000000
0000000000
0000000F00
0000001F80
0001007F80
000100FFC0
080101E1C0
10038780C0
10038F00C0
20019E01C0
6001FFFFC0
4000FFFFC0
C000FFFFC0
C000FFFFC0
C000800000
E001800000
F807804000
FFFF00F000
7FFF00F800
3FFE01F000
0FF000F000
0000002000
ENDCHAR
STARTCHAR 06FC
ENCODING 1788
SWIDTH 540 0
DWIDTH 18 0
BBX 17 35 1 -7
BITMAP
040000
0F0000
0F8000
1F0000
0F0000
020000
000000
000000
07C000
1FF000
3FF800
3C0000
300000
700000
780C00
7C7800
7FF800
3FF000
1FC000
1F0000
3C0000
780000
704000
60F000
C0F800
C1F000
C0F000
C02000
E00000
F00000
7E0000
7FFF80
3FFF00
1FFC00
07F000
ENDCHAR
STARTCHAR 06FD
ENCODING 1789
SWIDTH 450 0
DWIDTH 15 0
BBX 11 22 2 -5
BITMAP
0F00
1F80
3F00
7F00
6200
E000
F0E0
FFE0
7FC0
7FC0
3F00
3800
7000
E000
8000
1980
1980
1980
1980
1980
1980
1980
ENDCHAR
STARTCHAR 06FE
ENCODING 1790
SWIDTH 360 0
DWIDTH 12 0
BBX 11 21 1 -7
BITMAP
0E00
1F00
1F80
3FC0
23E0
01E0
1FE0
7FE0
7FE0
F000
C000
C000
E660
6660
6660
3660
3660
3660
3660
3000
2000
ENDCHAR
STARTCHAR 1E80
ENCODING 7808
SWIDTH 930 0
DWIDTH 31 0
BBX 31 31 0 0
BITMAP
000F8000
00078000
0003C000
0001C000
0000E000
00000000
00000000
F807C03E
F807C03E
7C0FE07E
7C0FE07C
7C0FE07C
7C0EE07C
7C1EF07C
3C1EF07C
3E1EF0F8
3E1C70F8
3E3C78F8
3E3C78F8
1E3C78F0
1F3839F0
1F7839F0
1F783DF0
1F783DF0
0F701DE0
0FF01DE0
0FF01FE0
0FF01FE0
0FE00FE0
07E00FC0
07E00FC0
ENDCHAR
STARTCHAR 1E81
ENCODING 7809
SWIDTH 750 0
DWIDTH 25 0
BBX 25 25 0 0
BITMAP
007C0000
003C0000
001E0000
000E0000
00070000
00000000
00000000
F01C0780
F81C0F80
783E0F00
783E0F00
783E0F00
3C761E00
3C771E00
3C771E00
1C771C00
1EE3BC00
1EE3BC00
0EE3B800
0EE3B800
0FC1F800
07C1F000
07C1F000
0780F000
0380E000
ENDCHAR
STARTCHAR 1E82
ENCODING 7810
SWIDTH 930 0
DWIDTH 31 0
BBX 31 31 0 0
BITMAP
0001F000
0001E000
0003C000
00038000
00070000
00000000
00000000
F807C03E
F807C03E
7C0FE07E
7C0FE07C
7C0FE07C
7C0EE07C
7C1EF07C
3C1EF07C
3E1EF0F8
3E1C70F8
3E3C78F8
3E3C78F8
1E3C78F0
1F3839F0
1F7839F0
1F783DF0
1F783DF0
0F701DE0
0FF01DE0
0FF01FE0
0FF01FE0
0FE00FE0
07E00FC0
07E00FC0
ENDCHAR
STARTCHAR 1E83
ENCODING 7811
SWIDTH 750 0
DWIDTH 25 0
BBX 25 25 0 0
BITMAP
000F8000
000F0000
001E0000
001C0000
00380000
00000000
00000000
F01C0780
F81C0F80
783E0F00
783E0F00
783E0F00
3C761E00
3C771E00
3C771E00
1C771C00
1EE3BC00
1EE3BC00
0EE3B800
0EE3B800
0FC1F800
07C1F000
07C1F000
0780F000
0380E000
ENDCHAR
STARTCHAR 1E84
ENCODING 7812
SWIDTH 930 0
DWIDTH 31 0
BBX 31 29 0 0
BITMAP
00383800
00383800
00383800
00000000
00000000
F807C03E
F807C03E
7C0FE07E
7C0FE07C
7C0FE07C
7C0EE07C
7C1EF07C
3C1EF07C
3E1EF0F8
3E1C70F8
3E3C78F8
3E3C78F8
1E3C78F0
1F3839F0
1F7839F0
1F783DF0
1F783DF0
0F701DE0
0FF01DE0
0FF01FE0
0FF01FE0
0FE00FE0
07E00FC0
07E00FC0
ENDCHAR
STARTCHAR 1E85
ENCODING 7813
SWIDTH 750 0
DWIDTH 25 0
BBX 25 23 0 0
BITMAP
01C1C000
01C1C000
01C1C000
00000000
00000000
F01C0780
F81C0F80
783E0F00
783E0F00
783E0F00
3C761E00
3C771E00
3C771E00
1C771C00
1EE3BC00
1EE3BC00
0EE3B800
0EE3B800
0FC1F800
07C1F000
07C1F000
0780F000
0380E000
ENDCHAR
STARTCHAR 1EA0
ENCODING 7840
SWIDTH 690 0
DWIDTH 23 0
BBX 23 31 0 -7
BITMAP
00FE00
00FE00
01FF00
01FF00
01EF00
03EF80
03EF80
03C780
07C7C0
07C7C0
07C3C0
0F83E0
0F83E0
0F83E0
1F01F0
1FFFF0
3FFFF0
3FFFF8
3FFFF8
7E00F8
7C007C
7C007C
FC007C
F8003E
000000
000000
007C00
007C00
007C00
007C00
007C00
ENDCHAR
STARTCHAR 1EA1
ENCODING 7841
SWIDTH 540 0
DWIDTH 18 0
BBX 16 25 1 -7
BITMAP
0FF0
1FF8
3FFC
787E
303E
003E
007E
0FFE
3FFE
7FBE
FC3E
F83E
F83E
F87E
FCFE
7FFE
7FDE
1F1F
0000
0000
07C0
07C0
07C0
07C0
07C0
ENDCHAR
STARTCHAR 1EA2
ENCODING 7842
SWIDTH 690 0
DWIDTH 23 0
BBX 23 30 0 0
BITMAP
007C00
007F00
000700
001E00
001800
000000
00FE00
00FE00
01FF00
01FF00
01EF00
03EF80
03EF80
03C780
07C7C0
07C7C0
07C3C0
0F83E0
0F83E0
0F83E0
1F01F0
1FFFF0
1FFFF0
3FFFF8
3FFFF8
3E00F8
7C007C
7C007C
FC007C
F8003E
ENDCHAR
STARTCHAR 1EA3
ENCODING 7843
SWIDTH 540 0
DWIDTH 18 0
BBX 16 26 1 0
BITMAP
07C0
07F0
0070
0070
01E0
0180
0000
0000
0FF0
1FF8
3FFC
787E
303E
003E
007E
0FFE
3FFE
7FBE
FC3E
F83E
F83E
F87E
FCFE
7FFE
7FDE
1F1F
ENDCHAR
STARTCHAR 1EA4
ENCODING 7844
SWIDTH 690 0
DWIDTH 23 0
BBX 23 30 0 0
BITMAP
001F00
003C00
000000
007C00
01C700
000000
00FE00
00FE00
01FF00
01FF00
01EF00
03EF80
03EF80
03C780
07C7C0
07C7C0
07C3C0
0F83E0
0F83E0
0F83E0
1F01F0
1FFFF0
1FFFF0
3FFFF8
3FFFF8
3E00F8
7C007C
7C007C
FC007C
F8003E
ENDCHAR
STARTCHAR 1EA5
ENCODING 7845
SWIDTH 540 0
DWIDTH 18 0
BBX 16 31 1 0
BITMAP
0078
00F0
00F0
01E0
01C0
0000
0000
01C0
03E0
0770
0E38
0000
0000
0FF0
1FF8
3FFC
787E
303E
003E
007E
0FFE
3FFE
7FBE
FC3E
F83E
F83E
F87E
FCFE
7FFE
7FDE
1F1F
ENDCHAR
STARTCHAR 1EA6
ENCODING 7846
SWIDTH 690 0
DWIDTH 23 0
BBX 23 30 0 0
BITMAP
00F800
003C00
000000
007C00
01C700
000000
00FE00
00FE00
01FF00
01FF00
01EF00
03EF80
03EF80
03C780
07C7C0
07C7C0
07C3C0
0F83E0
0F83E0
0F83E0
1F01F0
1FFFF0
1FFFF0
3FFFF8
3FFFF8
3E00F8
7C007C
7C007C
FC007C
F8003E
ENDCHAR
STARTCHAR 1EA7
ENCODING 7847
SWIDTH 540 0
DWIDTH 18 0
BBX 16 31 1 0
BITMAP
0780
03C0
01C0
01E0
00E0
0000
0000
01C0
03E0
0770
0E38
0000
0000
0FF0
1FF8
3FFC
787E
303E
003E
007E
0FFE
3FFE
7FBE
FC3E
F83E
F83E
F87E
FCFE
7FFE
7FDE
1F1F
ENDCHAR
STARTCHAR 1EA8
ENCODING 7848
SWIDTH 690 0
DWIDTH 23 0
BBX 23 31 0 0
BITMAP
007C00
000400
001800
000000
007C00
01C700
000000
00FE00
00FE00
01FF00
01FF00
01EF00
03EF80
03EF80
03C780
07C7C0
07C7C0
07C3C0
0F83E0
0F83E0
0F83E0
1F01F0
1FFFF0
1FFFF0
3FFFF8
3FFFF8
3E00F8
7C007C
7C007C
FC007C
F8003E
ENDCHAR
STARTCHAR 1EA9
ENCODING 7849
SWIDTH 540 0
DWIDTH 18 0
BBX 16 30 1 0
BITMAP
03E0
03F8
0038
00F0
00C0
0000
01C0
03E0
0770
0E38
0000
0000
0FF0
1FF8
3FFC
787E
303E
003E
007E
0FFE
3FFE
7FBE
FC3E
F83E
F83E
F87E
FCFE
7FFE
7FDE
1F1F
ENDCHAR
STARTCHAR 1EAA
ENCODING 7850
SWIDTH 690 0
DWIDTH 23 0
BBX 23 30 0 0
BITMAP
01F180
031F00
000000
007C00
01C700
000000
00FE00
00FE00
01FF00
01FF00
01EF00
03EF80
03EF80
03C780
07C7C0
07C7C0
07C3C0
0F83E0
0F83E0
0F83E0
1F01F0
1FFFF0
1FFFF0
3FFFF8
3FFFF8
3E00F8
7C007C
7C007C
FC007C
F8003E
ENDCHAR
STARTCHAR 1EAB
ENCODING 7851
SWIDTH 540 0
DWIDTH 18 0
BBX 16 30 1 0
BITMAP
070C
0FCC
19F8
1870
0000
0000
01C0
03E0
0770
0E38
0000
0000
0FF0
1FF8
3FFC
787E
303E
003E
007E
0FFE
3FFE
7FBE
FC3E
F83E
F83E
F87E
FCFE
7FFE
7FDE
1F1F
ENDCHAR
STARTCHAR 1EAC
ENCODING 7852
SWIDTH 690 0
DWIDTH 23 0
BBX 23 35 0 -7
BITMAP
007C00
01C700
000000
000000
00FE00
00FE00
01FF00
01FF00
01EF00
03EF80
03EF80
03C780
07C7C0
07C7C0
07C3C0
0F83E0
0F83E0
0F83E0
1F01F0
1FFFF0
3FFFF0
3FFFF8
3FFFF8
7E00F8
7C007C
7C007C
FC007C
F8003E
000000
000000
007C00
007C00
007C00
007C00
007C00
ENDCHAR
STARTCHAR 1EAD
ENCODING 7853
SWIDTH 540 0
DWIDTH 18 0
BBX 16 31 1 -7
BITMAP
01C0
03E0
0770
0E38
0000
0000
0FF0
1FF8
3FFC
787E
303E
003E
007E
0FFE
3FFE
7FBE
FC3E
F83E
F83E
F87E
FCFE
7FFE
7FDE
1F1F
0000
0000
07C0
07C0
07C0
07C0
07C0
ENDCHAR
STARTCHAR 1EAE
ENCODING 7854
SWIDTH 690 0
DWIDTH 23 0
BBX 23 30 0 0
BITMAP
003E00
007800
000000
018300
007C00
000000
00FE00
00FE00
01FF00
01FF00
01EF00
03EF80
03EF80
03C780
07C7C0
07C7C0
07C3C0
0F83E0
0F83E0
0F83E0
1F01F0
1FFFF0
1FFFF0
3FFFF8
3FFFF8
3E00F8
7C007C
7C007C
FC007C
F8003E
ENDCHAR
STARTCHAR 1EAF
ENCODING 7855
SWIDTH 540 0
DWIDTH 18 0
BBX 16 31 1 0
BITMAP
00F0
01E0
01E0
03C0
0380
0000
0000
1818
1C38
0FF0
07E0
0000
0000
0FF0
1FF8
3FFC
787E
303E
003E
007E
0FFE
3FFE
7FBE
FC3E
F83E
F83E
F87E
FCFE
7FFE
7FDE
1F1F
ENDCHAR
STARTCHAR 1EB0
ENCODING 7856
SWIDTH 690 0
DWIDTH 23 0
BBX 23 30 0 0
BITMAP
00F800
003C00
000000
018300
007C00
000000
00FE00
00FE00
01FF00
01FF00
01EF00
03EF80
03EF80
03C780
07C7C0
07C7C0
07C3C0
0F83E0
0F83E0
0F83E0
1F01F0
1FFFF0
1FFFF0
3FFFF8
3FFFF8
3E00F8
7C007C
7C007C
FC007C
F8003E
ENDCHAR
STARTCHAR 1EB1
ENCODING 7857
SWIDTH 540 0
DWIDTH 18 0
BBX 16 31 1 0
BITMAP
0F00
0780
0380
03C0
01C0
0000
0000
1818
1C38
0FF0
07E0
0000
0000
0FF0
1FF8
3FFC
787E
303E
003E
007E
0FFE
3FFE
7FBE
FC3E
F83E
F83E
F87E
FCFE
7FFE
7FDE
1F1F
ENDCHAR
STARTCHAR 1EB2
ENCODING 7858
SWIDTH 690 0
DWIDTH 23 0
BBX 23 31 0 0
BITMAP
007C00
000400
001800
000000
018300
007C00
000000
00FE00
00FE00
01FF00
01FF00
01EF00
03EF80
03EF80
03C780
07C7C0
07C7C0
07C3C0
0F83E0
0F83E0
0F83E0
1F01F0
1FFFF0
1FFFF0
3FFFF8
3FFFF8
3E00F8
7C007C
7C007C
FC007C
F8003E
ENDCHAR
STARTCHAR 1EB3
ENCODING 7859
SWIDTH 540 0
DWIDTH 18 0
BBX 16 30 1 0
BITMAP
07C0
07F0
0070
01E0
0180
0000
1818
1C38
0FF0
07E0
0000
0000
0FF0
1FF8
3FFC
787E
303E
003E
007E
0FFE
3FFE
7FBE
FC3E
F83E
F83E
F87E
FCFE
7FFE
7FDE
1F1F
ENDCHAR
STARTCHAR 1EB4
ENCODING 7860
SWIDTH 690 0
DWIDTH 23 0
BBX 23 30 0 0
BITMAP
01F180
031F00
000000
018300
007C00
000000
00FE00
00FE00
01FF00
01FF00
01EF00
03EF80
03EF80
03C780
07C7C0
07C7C0
07C3C0
0F83E0
0F83E0
0F83E0
1F01F0
1FFFF0
1FFFF0
3FFFF8
3FFFF8
3E00F8
7C007C
7C007C
FC007C
F8003E
ENDCHAR
STARTCHAR 1EB5
ENCODING 7861
SWIDTH 540 0
DWIDTH 18 0
BBX 16 30 1 0
BITMAP
070C
0FCC
19F8
1870
0000
0000
1818
1C38
0FF0
07E0
0000
0000
0FF0
1FF8
3FFC
787E
303E
003E
007E
0FFE
3FFE
7FBE
FC3E
F83E
F83E
F87E
FCFE
7FFE
7FDE
1F1F
ENDCHAR
STARTCHAR 1EB6
ENCODING 7862
SWIDTH 690 0
DWIDTH 23 0
BBX 23 35 0 -7
BITMAP
018300
007C00
000000
000000
00FE00
00FE00
01FF00
01FF00
01EF00
03EF80
03EF80
03C780
07C7C0
07C7C0
07C3C0
0F83E0
0F83E0
0F83E0
1F01F0
1FFFF0
3FFFF0
3FFFF8
3FFFF8
7E00F8
7C007C
7C007C
FC007C
F8003E
000000
000000
007C00
007C00
007C00
007C00
007C00
ENDCHAR
STARTCHAR 1EB7
ENCODING 7863
SWIDTH 540 0
DWIDTH 18 0
BBX 16 31 1 -7
BITMAP
1818
1C38
0FF0
07E0
0000
0000
0FF0
1FF8
3FFC
787E
303E
003E
007E
0FFE
3FFE
7FBE
FC3E
F83E
F83E
F87E
FCFE
7FFE
7FDE
1F1F
0000
0000
07C0
07C0
07C0
07C0
07C0
ENDCHAR
STARTCHAR 1EB8
ENCODING 7864
SWIDTH 660 0
DWIDTH 22 0
BBX 18 31 2 -7
BITMAP
FFFFC0
FFFFC0
FFFFC0
FFFFC0
F80000
F80000
F80000
F80000
F80000
FFFF80
FFFF80
FFFF80
FFFF80
F80000
F80000
F80000
F80000
F80000
F80000
F80000
FFFFC0
FFFFC0
FFFFC0
FFFFC0
000000
000000
01F000
01F000
01F000
01F000
01F000
ENDCHAR
STARTCHAR 1EB9
ENCODING 7865
SWIDTH 540 0
DWIDTH 18 0
BBX 16 25 1 -7
BITMAP
07E0
1FF8
3FFC
7E3E
7C3E
F81E
F81F
FFFF
FFFF
FFFF
F800
F800
F800
7C1C
7E3F
3FFE
1FFC
07F0
0000
0000
03E0
03E0
03E0
03E0
03E0
ENDCHAR
STARTCHAR 1EBA
ENCODING 7866
SWIDTH 660 0
DWIDTH 22 0
BBX 18 30 2 0
BITMAP
03E000
03F800
003800
00F000
00C000
000000
FFFFC0
FFFFC0
FFFFC0
FFFFC0
F80000
F80000
F80000
F80000
F80000
FFFF80
FFFF80
FFFF80
FFFF80
F80000
F80000
F80000
F80000
F80000
F80000
F80000
FFFFC0
FFFFC0
FFFFC0
FFFFC0
ENDCHAR
STARTCHAR 1EBB
ENCODING 7867
SWIDTH 540 0
DWIDTH 18 0
BBX 16 26 1 0
BITMAP
07C0
07F0
0070
0070
01E0
0180
0000
0000
07E0
1FF8
3FFC
7E3E
7C3E
F81E
F81F
FFFF
FFFF
FFFF
F800
F800
F800
7C1C
7E3F
3FFE
1FFC
07F0
ENDCHAR
STARTCHAR 1EBC
ENCODING 7868
SWIDTH 660 0
DWIDTH 22 0
BBX 18 30 2 0
BITMAP
078600
0FFE00
0FFE00
0C3C00
000000
000000
FFFFC0
FFFFC0
FFFFC0
FFFFC0
F80000
F80000
F80000
F80000
F80000
FFFF80
FFFF80
FFFF80
FFFF80
F80000
F80000
F80000
F80000
F80000
F80000
F80000
FFFFC0
FFFFC0
FFFFC0
FFFFC0
ENDCHAR
STARTCHAR 1EBD
ENCODING 7869
SWIDTH 540 0
DWIDTH 18 0
BBX 16 24 1 0
BITMAP
0F0C
1FFC
1FFC
1878
0000
0000
07E0
1FF8
3FFC
7E3E
7C3E
F81E
F81F
FFFF
FFFF
FFFF
F800
F800
F800
7C1C
7E3F
3FFE
1FFC
07F0
ENDCHAR
STARTCHAR 1EBE
ENCODING 7870
SWIDTH 660 0
DWIDTH 22 0
BBX 18 30 2 0
BITMAP
007C00
00F000
000000
01F000
071C00
000000
FFFFC0
FFFFC0
FFFFC0
FFFFC0
F80000
F80000
F80000
F80000
F80000
FFFF80
FFFF80
FFFF80
FFFF80
F80000
F80000
F80000
F80000
F80000
F80000
F80000
FFFFC0
FFFFC0
FFFFC0
FFFFC0
ENDCHAR
STARTCHAR 1EBF
ENCODING 7871
SWIDTH 540 0
DWIDTH 18 0
BBX 16 31 1 0
BITMAP
0078
00F0
00F0
01E0
01C0
0000
0000
01C0
03E0
0770
0E38
0000
0000
07E0
1FF8
3FFC
7E3E
7C3E
F81E
F81F
FFFF
FFFF
FFFF
F800
F800
F800
7C1C
7E3F
3FFE
1FFC
07F0
ENDCHAR
STARTCHAR 1EC0
ENCODING 7872
SWIDTH 660 0
DWIDTH 22 0
BBX 18 30 2 0
BITMAP
03E000
00F000
000000
01F000
071C00
000000
FFFFC0
FFFFC0
FFFFC0
FFFFC0
F80000
F80000
F80000
F80000
F80000
FFFF80
FFFF80
FFFF80
FFFF80
F80000
F80000
F80000
F80000
F80000
F80000
F80000
FFFFC0
FFFFC0
FFFFC0
FFFFC0
ENDCHAR
STARTCHAR 1EC1
ENCODING 7873
SWIDTH 540 0
DWIDTH 18 0
BBX 16 31 1 0
BITMAP
0780
03C0
01C0
01E0
00E0
0000
0000
01C0
03E0
0770
0E38
0000
0000
07E0
1FF8
3FFC
7E3E
7C3E
F81E
F81F
FFFF
FFFF
FFFF
F800
F800
F800
7C1C
7E3F
3FFE
1FFC
07F0
ENDCHAR
STARTCHAR 1EC2
ENCODING 7874
SWIDTH 660 0
DWIDTH 22 0
BBX 18 31 2 0
BITMAP
01F000
001000
006000
000000
01F000
071C00
000000
FFFFC0
FFFFC0
FFFFC0
FFFFC0
F80000
F80000
F80000
F80000
F80000
FFFF80
FFFF80
FFFF80
FFFF80
F80000
F80000
F80000
F80000
F80000
F80000
F80000
FFFFC0
FFFFC0
FFFFC0
FFFFC0
ENDCHAR
STARTCHAR 1EC3
ENCODING 7875
SWIDTH 540 0
DWIDTH 18 0
BBX 16 30 1 0
BITMAP
03E0
03F8
0038
00F0
00C0
0000
01C0
03E0
0770
0E38
0000
0000
07E0
1FF8
3FFC
7E3E
7C3E
F81E
F81F
FFFF
FFFF
FFFF
F800
F800
F800
7C1C
7E3F
3FFE
1FFC
07F0
ENDCHAR
STARTCHAR 1EC4
ENCODING 7876
SWIDTH 660 0
DWIDTH 22 0
BBX 18 30 2 0
BITMAP
07C600
0C7C00
000000
01F000
071C00
000000
FFFFC0
FFFFC0
FFFFC0
FFFFC0
F80000
F80000
F80000
F80000
F80000
FFFF80
FFFF80
FFFF80
FFFF80
F80000
F80000
F80000
F80000
F80000
F80000
F80000
FFFFC0
FFFFC0
FFFFC0
FFFFC0
ENDCHAR
STARTCHAR 1EC5
ENCODING 7877
SWIDTH 540 0
DWIDTH 18 0
BBX 16 30 1 0
BITMAP
070C
0FCC
19F8
1870
0000
0000
01C0
03E0
0770
0E38
0000
0000
07E0
1FF8
3FFC
7E3E
7C3E
F81E
F81F
FFFF
FFFF
FFFF
F800
F800
F800
7C1C
7E3F
3FFE
1FFC
07F0
ENDCHAR
STARTCHAR 1EC6
ENCODING 7878
SWIDTH 660 0
DWIDTH 22 0
BBX 18 35 2 -7
BITMAP
01F000
071C00
000000
000000
FFFFC0
FFFFC0
FFFFC0
FFFFC0
F80000
F80000
F80000
F80000
F80000
FFFF80
FFFF80
FFFF80
FFFF80
F80000
F80000
F80000
F80000
F80000
F80000
F80000
FFFFC0
FFFFC0
FFFFC0
FFFFC0
000000
000000
01F000
01F000
01F000
01F000
01F000
ENDCHAR
STARTCHAR 1EC7
ENCODING 7879
SWIDTH 540 0
DWIDTH 18 0
BBX 16 31 1 -7
BITMAP
01C0
03E0
0770
0E38
0000
0000
07E0
1FF8
3FFC
7E3E
7C3E
F81E
F81F
FFFF
FFFF
FFFF
F800
F800
F800
7C1C
7E3F
3FFE
1FFC
07F0
0000
0000
03E0
03E0
03E0
03E0
03E0
ENDCHAR
STARTCHAR 1EC8
ENCODING 7880
SWIDTH 270 0
DWIDTH 9 0
BBX 7 30 2 0
BITMAP
F8
FE
0E
3C
30
00
F8
F8
F8
F8
F8
F8
F8
F8
F8
F8
F8
F8
F8
F8
F8
F8
F8
F8
F8
F8
F8
F8
F8
F8
ENDCHAR
STARTCHAR 1EC9
ENCODING 7881
SWIDTH 270 0
DWIDTH 9 0
BBX 7 26 2 0
BITMAP
F8
FE
0E
0E
3C
30
00
00
F8
F8
F8
F8
F8
F8
F8
F8
F8
F8
F8
F8
F8
F8
F8
F8
F8
F8
ENDCHAR
STARTCHAR 1ECA
ENCODING 7882
SWIDTH 270 0
DWIDTH 9 0
BBX 5 31 2 -7
BITMAP
F8
F8
F8
F8
F8
F8
F8
F8
F8
F8
F8
F8
F8
F8
F8
F8
F8
F8
F8
F8
F8
F8
F8
F8
00
00
F8
F8
F8
F8
F8
ENDCHAR
STARTCHAR 1ECB
ENCODING 7883
SWIDTH 270 0
DWIDTH 9 0
BBX 5 31 2 -7
BITMAP
F8
F8
F8
00
00
00
F8
F8
F8
F8
F8
F8
F8
F8
F8
F8
F8
F8
F8
F8
F8
F8
F8
F8
00
00
F8
F8
F8
F8
F8
ENDCHAR
STARTCHAR 1ECC
ENCODING 7884
SWIDTH 750 0
DWIDTH 25 0
BBX 23 31 1 -7
BITMAP
00FE00
07FFC0
0FFFE0
1FFFF0
3F83F8
7E00FC
7C007C
7C007C
F8003E
F8003E
F8003E
F8003E
F8003E
F8003E
F8003E
F8003E
7C007C
7C007C
7E00FC
3F83F8
1FFFF0
0FFFE0
07FFC0
00FE00
000000
000000
007C00
007C00
007C00
007C00
007C00
ENDCHAR
STARTCHAR 1ECD
ENCODING 7885
SWIDTH 600 0
DWIDTH 20 0
BBX 17 25 2 -7
BITMAP
03E000
1FF800
3FFE00
3E3E00
7C1F00
7C1F00
F80F80
F80F80
F80F80
F80F80
F80F80
F80F80
7C1F80
7C1F00
7E3F00
3FFE00
1FFC00
03F000
000000
000000
07C000
07C000
07C000
07C000
07C000
ENDCHAR
STARTCHAR 1ECE
ENCODING 7886
SWIDTH 750 0
DWIDTH 25 0
BBX 23 30 1 0
BITMAP
007C00
007F00
000700
001E00
001800
000000
00FE00
07FFC0
0FFFE0
1FFFF0
3F83F8
7E00FC
7C007C
7C007C
F8003E
F8003E
F8003E
F8003E
F8003E
F8003E
F8003E
F8003E
7C007C
7C007C
7E00FC
3F83F8
1FFFF0
0FFFE0
07FFC0
00FE00
ENDCHAR
STARTCHAR 1ECF
ENCODING 7887
SWIDTH 600 0
DWIDTH 20 0
BBX 17 26 2 0
BITMAP
03E000
03F800
003800
003800
00F000
00C000
000000
000000
03E000
1FF800
3FFE00
3E3E00
7C1F00
7C1F00
F80F80
F80F80
F80F80
F80F80
F80F80
F80F80
7C1F80
7C1F00
7E3F00
3FFE00
1FFC00
03F000
ENDCHAR
STARTCHAR 1ED0
ENCODING 7888
SWIDTH 750 0
DWIDTH 25 0
BBX 23 30 1 0
BITMAP
001F00
003C00
000000
007C00
01C700
000000
00FE00
07FFC0
0FFFE0
1FFFF0
3F83F8
7E00FC
7C007C
7C007C
F8003E
F8003E
F8003E
F8003E
F8003E
F8003E
F8003E
F8003E
7C007C
7C007C
7E00FC
3F83F8
1FFFF0
0FFFE0
07FFC0
00FE00
ENDCHAR
STARTCHAR 1ED1
ENCODING 7889
SWIDTH 600 0
DWIDTH 20 0
BBX 17 31 2 0
BITMAP
007800
00F000
00F000
01E000
01C000
000000
000000
01C000
03E000
077000
0E3800
000000
000000
03E000
1FF800
3FFE00
3E3E00
7C1F00
7C1F00
F80F80
F80F80
F80F80
F80F80
F80F80
F80F80
7C1F80
7C1F00
7E3F00
3FFE00
1FFC00
03F000
ENDCHAR
STARTCHAR 1ED2
ENCODING 7890
SWIDTH 750 0
DWIDTH 25 0
BBX 23 30 1 0
BITMAP
00F800
003C00
000000
007C00
01C700
000000
00FE00
07FFC0
0FFFE0
1FFFF0
3F83F8
7E00FC
7C007C
7C007C
F8003E
F8003E
F8003E
F8003E
F8003E
F8003E
F8003E
F8003E
7C007C
7C007C
7E00FC
3F83F8
1FFFF0
0FFFE0
07FFC0
00FE00
ENDCHAR
STARTCHAR 1ED3
ENCODING 7891
SWIDTH 600 0
DWIDTH 20 0
BBX 17 31 2 0
BITMAP
078000
03C000
01C000
01E000
00E000
000000
000000
01C000
03E000
077000
0E3800
000000
000000
03E000
1FF800
3FFE00
3E3E00
7C1F00
7C1F00
F80F80
F80F80
F80F80
F80F80
F80F80
F80F80
7C1F80
7C1F00
7E3F00
3FFE00
1FFC00
03F000
ENDCHAR
STARTCHAR 1ED4
ENCODING 7892
SWIDTH 750 0
DWIDTH 25 0
BBX 23 31 1 0
BITMAP
007C00
000400
001800
000000
007C00
01C700
000000
00FE00
07FFC0
0FFFE0
1FFFF0
3F83F8
7E00FC
7C007C
7C007C
F8003E
F8003E
F8003E
F8003E
F8003E
F8003E
F8003E
F8003E
7C007C
7C007C
7E00FC
3F83F8
1FFFF0
0FFFE0
07FFC0
00FE00
ENDCHAR
STARTCHAR 1ED5
ENCODING 7893
SWIDTH 600 0
DWIDTH 20 0
BBX 17 30 2 0
BITMAP
03E000
03F800
003800
00F000
00C000
000000
01C000
03E000
077000
0E3800
000000
000000
03E000
1FF800
3FFE00
3E3E00
7C1F00
7C1F00
F80F80
F80F80
F80F80
F80F80
F80F80
F80F80
7C1F80
7C1F00
7E3F00
3FFE00
1FFC00
03F000
ENDCHAR
STARTCHAR 1ED6
ENCODING 7894
SWIDTH 750 0
DWIDTH 25 0
BBX 23 30 1 0
BITMAP
01F180
031F00
000000
007C00
01C700
000000
00FE00
07FFC0
0FFFE0
1FFFF0
3F83F8
7E00FC
7C007C
7C007C
F8003E
F8003E
F8003E
F8003E
F8003E
F8003E
F8003E
F8003E
7C007C
7C007C
7E00FC
3F83F8
1FFFF0
0FFFE0
07FFC0
00FE00
ENDCHAR
STARTCHAR 1ED7
ENCODING 7895
SWIDTH 600 0
DWIDTH 20 0
BBX 17 30 2 0
BITMAP
070C00
0FCC00
19F800
187000
000000
000000
01C000
03E000
077000
0E3800
000000
000000
03E000
1FF800
3FFE00
3E3E00
7C1F00
7C1F00
F80F80
F80F80
F80F80
F80F80
F80F80
F80F80
7C1F80
7C1F00
7E3F00
3FFE00
1FFC00
03F000
ENDCHAR
STARTCHAR 1ED8
ENCODING 7896
SWIDTH 750 0
DWIDTH 25 0
BBX 23 35 1 -7
BITMAP
007C00
01C700
000000
000000
00FE00
07FFC0
0FFFE0
1FFFF0
3F83F8
7E00FC
7C007C
7C007C
F8003E
F8003E
F8003E
F8003E
F8003E
F8003E
F8003E
F8003E
7C007C
7C007C
7E00FC
3F83F8
1FFFF0
0FFFE0
07FFC0
00FE00
000000
000000
007C00
007C00
007C00
007C00
007C00
ENDCHAR
STARTCHAR 1ED9
ENCODING 7897
SWIDTH 600 0
DWIDTH 20 0
BBX 17 31 2 -7
BITMAP
01C000
03E000
077000
0E3800
000000
000000
03E000
1FF800
3FFE00
3E3E00
7C1F00
7C1F00
F80F80
F80F80
F80F80
F80F80
F80F80
F80F80
7C1F80
7C1F00
7E3F00
3FFE00
1FFC00
03F000
000000
000000
07C000
07C000
07C000
07C000
07C000
ENDCHAR
STARTCHAR 1EDA
ENCODING 7898
SWIDTH 840 0
DWIDTH 28 0
BBX 27 31 1 0
BITMAP
003E0000
003C0000
00780000
00700000
00E00000
00000000
00000000
00FE03E0
07FFC3E0
0FFFE3E0
1FFFF3E0
3F83FBE0
7E00FC60
7C007C60
7C007CC0
F8003F80
F8003F00
F8003E00
F8003E00
F8003E00
F8003E00
F8003E00
F8007E00
7C007C00
7C007C00
7E00FC00
3F83F800
1FFFF000
0FFFE000
07FFC000
00FE0000
ENDCHAR
STARTCHAR 1EDB
ENCODING 7899
SWIDTH 690 0
DWIDTH 23 0
BBX 21 25 2 0
BITMAP
00F800
00F000
01E000
01C000
038000
000000
000000
03F078
0FFC78
3FFE78
3E3F78
7C1F78
7C1F98
F80F98
F80FB0
F80FE0
F80FC0
F80F80
F80F80
7C1F00
7C1F00
7E3E00
3FFC00
1FF800
03E000
ENDCHAR
STARTCHAR 1EDC
ENCODING 7900
SWIDTH 840 0
DWIDTH 28 0
BBX 27 31 1 0
BITMAP
00F80000
00780000
003C0000
001C0000
000E0000
00000000
00000000
00FE03E0
07FFC3E0
0FFFE3E0
1FFFF3E0
3F83FBE0
7E00FC60
7C007C60
7C007CC0
F8003F80
F8003F00
F8003E00
F8003E00
F8003E00
F8003E00
F8003E00
F8007E00
7C007C00
7C007C00
7E00FC00
3F83F800
1FFFF000
0FFFE000
07FFC000
00FE0000
ENDCHAR
STARTCHAR 1EDD
ENCODING 7901
SWIDTH 690 0
DWIDTH 23 0
BBX 21 25 2 0
BITMAP
07C000
03C000
01E000
00E000
007000
000000
000000
03F078
0FFC78
3FFE78
3E3F78
7C1F78
7C1F98
F80F98
F80FB0
F80FE0
F80FC0
F80F80
F80F80
7C1F00
7C1F00
7E3E00
3FFC00
1FF800
03E000
ENDCHAR
STARTCHAR 1EDE
ENCODING 7902
SWIDTH 840 0
DWIDTH 28 0
BBX 27 30 1 0
BITMAP
007C0000
007F0000
00070000
001E0000
00180000
00000000
00FE03E0
07FFC3E0
0FFFE3E0
1FFFF3E0
3F83FBE0
7E00FC60
7C007C60
7C007CC0
F8003F80
F8003F00
F8003E00
F8003E00
F8003E00
F8003E00
F8003E00
F8007E00
7C007C00
7C007C00
7E00FC00
3F83F800
1FFFF000
0FFFE000
07FFC000
00FE0000
ENDCHAR
STARTCHAR 1EDF
ENCODING 7903
SWIDTH 690 0
DWIDTH 23 0
BBX 21 26 2 0
BITMAP
03E000
03F800
003800
003800
00F000
00C000
000000
000000
03F078
0FFC78
3FFE78
3E3F78
7C1F78
7C1F98
F80F98
F80FB0
F80FE0
F80FC0
F80F80
F80F80
7C1F00
7C1F00
7E3E00
3FFC00
1FF800
03E000
ENDCHAR
STARTCHAR 1EE0
ENCODING 7904
SWIDTH 840 0
DWIDTH 28 0
BBX 27 30 1 0
BITMAP
01E18000
03FF8000
03FF8000
030F0000
00000000
00000000
00FE03E0
07FFC3E0
0FFFE3E0
1FFFF3E0
3F83FBE0
7E00FC60
7C007C60
7C007CC0
F8003F80
F8003F00
F8003E00
F8003E00
F8003E00
F8003E00
F8003E00
F8007E00
7C007C00
7C007C00
7E00FC00
3F83F800
1FFFF000
0FFFE000
07FFC000
00FE0000
ENDCHAR
ENDFONT
